<svg width="68" height="71" viewBox="0 0 68 71" fill="none" xmlns="http://www.w3.org/2000/svg">
<path d="M5.45558 30.6204L5.4556 30.6205L30.3527 50.571L30.2277 50.7271L30.3527 50.571C32.8695 52.5882 36.5556 52.1806 38.5728 49.6648C39.5502 48.4456 39.9927 46.9195 39.8218 45.3663C39.6509 43.8134 38.8849 42.4212 37.6666 41.4437L5.45558 30.6204ZM5.45558 30.6204C2.93885 28.6043 2.53216 24.9162 4.54828 22.4004C4.8708 21.9983 5.24857 21.6479 5.66335 21.3466C6.09542 23.0529 7.11522 24.6184 8.67089 25.6987L8.67092 25.6987C9.94431 26.5827 11.4349 27.0499 12.9803 27.0499C14.7042 27.0499 16.3467 26.455 17.6647 25.4159L37.6665 41.4436L5.45558 30.6204ZM56.7703 47.0583H42.248C42.063 48.5288 41.4904 49.9689 40.497 51.2087L40.4969 51.2087C38.8556 53.2545 36.4381 54.3195 34.0015 54.3195C34.0015 54.3195 34.0014 54.3195 34.0014 54.3195V54.1195L56.7703 47.0583ZM56.7703 47.0583V56.9803H13.3841L22.6323 47.5471L56.7703 47.0583ZM67.3233 56.9803H59.236V44.7906H59.037V44.5906H59.036H58.836H42.1882C41.8559 42.6606 40.8537 40.8387 39.2073 39.5205L19.3405 23.5989L25.3049 15.0051L25.3049 15.005C25.8316 14.245 26.1938 13.4212 26.4104 12.5749H50.1828V17.1856H47.2198H47.0198V17.3856V29.2689V29.4689H47.2198H50.1828V40.1261C50.1828 41.768 51.5186 43.1037 53.1604 43.1037C54.8022 43.1037 56.1391 41.7681 56.1391 40.1261V29.4689H59.1031H59.3031V29.2689V17.3856V17.1856H59.1031H56.1391V12.2878C58.5026 11.5223 60.2187 9.30347 60.2187 6.68747C60.2187 3.4408 57.5767 0.8 54.3302 0.8H20.4048C18.0629 0.8 15.9715 2.19899 15.0361 4.31171C14.1973 4.84344 13.4529 5.53264 12.8687 6.37397L12.8687 6.37403L6.76789 15.1677C6.03501 16.2238 5.61152 17.4038 5.4733 18.5998C4.3767 19.1338 3.39762 19.8938 2.6232 20.8595L2.62317 20.8596C-0.244163 24.4374 0.33388 29.6803 3.91173 32.5467C3.91174 32.5467 3.91175 32.5467 3.91175 32.5467L20.6973 45.9978L9.9296 56.9803H4.7467H4.5467V57.1803V70.1083V70.3083H4.7467H67.3233H67.5233V70.1083V57.1803V56.9803H67.3233ZM53.6734 39.9261H53.6724V40.1261C53.6724 40.408 53.443 40.6371 53.1604 40.6371C52.8793 40.6371 52.6495 40.4073 52.6495 40.1261V29.4689H53.6734V39.9261ZM21.9957 6.49834L21.9958 6.49837C24.3064 8.10213 24.8813 11.2863 23.2784 13.5981L17.1756 22.3907L17.1756 22.3908C16.2231 23.7648 14.655 24.5842 12.9803 24.5842C11.9403 24.5842 10.9364 24.2702 10.0782 23.6735L10.078 23.6734C7.76632 22.0696 7.19148 18.8845 8.79532 16.5727L14.8961 7.77908C14.8961 7.77905 14.8961 7.77903 14.8961 7.779C15.8496 6.40594 17.4178 5.5865 19.0925 5.5865C20.1323 5.5865 21.1362 5.90148 21.9957 6.49834ZM56.8365 19.6522V27.0022H49.4865V19.6522H56.8365ZM52.6485 17.1856V12.5749H53.6724V17.1856H52.6485ZM20.5648 3.26667H54.3312C56.2182 3.26667 57.753 4.80156 57.753 6.68747C57.753 8.57444 56.2182 10.1093 54.3312 10.1093H26.6216C26.451 7.92079 25.3431 5.82085 23.4018 4.47404C22.5393 3.87434 21.5764 3.46698 20.5648 3.26667ZM65.0577 59.4469V67.8416H7.0144V59.4469H65.0577Z" fill="black" stroke="black" stroke-width="0.4"/>
</svg>
