<svg width="79" height="67" viewBox="0 0 79 67" fill="none" xmlns="http://www.w3.org/2000/svg">
<path d="M45.9505 26.6991L45.9505 26.6982L45.8007 25.2797L42.7785 19.7227L42.9389 19.6355L42.7785 19.7227C41.1748 16.7736 40.6245 13.3352 41.2305 10.0398L41.2305 10.0398L41.3016 9.65362C41.3016 9.65358 41.3016 9.65354 41.3016 9.65351C41.8103 6.87924 43.3686 4.44737 45.6882 2.80778L45.6882 2.80777C47.5465 1.49428 49.7362 0.8 52.0196 0.8H60.3934C63.1701 0.8 65.9215 1.66941 68.1853 3.25537C70.4506 3.45849 72.2334 5.34829 72.2334 7.64594V17.0908C72.2334 18.0681 71.8999 19.0295 71.2935 19.8001L66.7478 25.5796L66.6301 26.6921L66.63 26.693C66.5019 27.8554 65.9776 28.9413 65.1519 29.758L59.9155 34.9399C59.9155 34.9399 59.9155 34.94 59.9155 34.94C58.9617 35.8844 57.6407 36.4247 56.2898 36.4247C54.9389 36.4247 53.6179 35.8844 52.6641 34.94C52.6641 34.94 52.6641 34.9399 52.6641 34.9399M45.9505 26.6991L46.1493 26.6772C46.2715 27.7881 46.7755 28.8316 47.5684 29.6153L52.8048 34.7978L52.6641 34.9399M45.9505 26.6991C46.0777 27.8554 46.6021 28.9414 47.4277 29.7575L47.5682 29.6155L47.4277 29.7575M45.9505 26.6991L47.4277 29.7575M52.6641 34.9399L47.4277 29.7575M52.6641 34.9399L47.4277 29.7575M43.6037 10.0698L43.6036 10.0704L43.5317 10.4561C43.5317 10.4562 43.5317 10.4563 43.5317 10.4564C43.0219 13.2345 43.4862 16.1345 44.8388 18.6213L44.8388 18.6214L45.1601 19.2126L45.0316 17.9943C45.0316 17.9942 45.0316 17.9942 45.0316 17.9942L45.0316 17.9939L45.2305 17.973C45.1812 17.5131 45.4711 17.0842 45.9192 16.953C49.3738 15.9381 53.8288 13.2367 56.178 11.7166C56.3353 11.6144 56.52 11.56 56.7085 11.56H60.9561H60.9598C62.7634 11.56 64.4884 12.3198 65.6933 13.6441L43.6037 10.0698ZM43.6037 10.0698C44.0025 7.89228 45.2253 5.9845 47.0463 4.69722L47.0463 4.69722C48.5062 3.66509 50.2249 3.12 52.0196 3.12H60.3934C62.7889 3.12 65.1635 3.90363 67.0784 5.32542L67.0787 5.32565C67.2816 5.47569 67.5269 5.55703 67.7801 5.55703C68.9476 5.55703 69.8934 6.49603 69.8934 7.64594V17.0908C69.8934 17.5524 69.7352 18.0081 69.4483 18.3729L69.5941 18.4876L69.4483 18.3729L67.2085 21.2208M43.6037 10.0698L67.2085 21.2208M67.2085 21.2208L67.4912 18.5473C67.6867 16.7133 67.0855 14.8773 65.8413 13.5095L65.8413 13.5095C64.5981 12.1433 62.8193 11.36 60.9598 11.36H60.9561H56.7085C56.4818 11.36 56.2592 11.4253 56.0693 11.5487M67.2085 21.2208L56.0693 11.5487M56.0693 11.5487C56.0693 11.5487 56.0694 11.5487 56.0694 11.5487L56.1779 11.7164L56.0691 11.5489C56.0691 11.5488 56.0692 11.5488 56.0693 11.5487ZM64.4506 25.013L64.4505 25.0134C64.4488 25.0304 64.4492 25.0447 64.4499 25.0548C64.4499 25.0554 64.45 25.0561 64.45 25.0567L64.3029 26.4471C64.3029 26.4473 64.3028 26.4475 64.3028 26.4477C64.2328 27.0796 63.9472 27.672 63.499 28.1157L58.2625 33.2982C57.2302 34.3198 55.3494 34.3198 54.3172 33.2982L49.0807 28.1152L49.0806 28.1151C48.6322 27.6718 48.3467 27.0794 48.2778 26.4537C48.2778 26.4536 48.2777 26.4534 48.2777 26.4533L48.1052 24.8196C48.105 24.8167 48.1048 24.8137 48.1044 24.8107L47.4571 18.6845C50.8469 17.4918 54.7645 15.1486 57.0551 13.68H60.9561C62.1543 13.68 63.3006 14.1853 64.1018 15.0658C64.9019 15.9459 65.2895 17.1263 65.1648 18.3035L64.4506 25.013ZM48.103 24.8648C48.1029 24.8649 48.1029 24.8649 48.1029 24.865L48.103 24.8648Z" fill="black" stroke="black" stroke-width="0.4"/>
<path d="M71.0636 53.6H62.0352C61.3905 53.6 60.8652 54.1175 60.8652 54.76V58.0094C60.8652 58.6519 61.3905 59.1694 62.0352 59.1694H71.0636C71.7083 59.1694 72.2336 58.6519 72.2336 58.0094V54.76C72.2336 54.1175 71.7083 53.6 71.0636 53.6ZM69.8936 56.8494H63.2052V55.92H69.8936V56.8494Z" fill="black" stroke="black" stroke-width="0.4"/>
<mask id="path-3-outside-1_14_6" maskUnits="userSpaceOnUse" x="0" y="35.7417" width="79" height="31" fill="black">
<rect fill="white" y="35.7417" width="79" height="31"/>
<path d="M77.413 51.7975C77.1004 48.2134 74.8412 45.0761 71.5125 43.6094L62.9596 39.8485C62.9325 39.7638 62.8934 39.682 62.8421 39.6058L61.2005 37.1692C61.1937 37.1591 61.1817 37.1545 61.1745 37.1447C61.1007 37.0432 61.0118 36.9565 60.9061 36.8911C60.8878 36.8797 60.8676 36.8742 60.8485 36.8641C60.7534 36.8135 60.651 36.7807 60.5421 36.7638C60.5234 36.7608 60.5081 36.7482 60.4891 36.7464C60.4768 36.7452 60.466 36.7514 60.4538 36.7507C60.4332 36.7494 60.4142 36.7417 60.3935 36.7417H52.1864C52.1667 36.7417 52.1488 36.749 52.1293 36.7502C52.1164 36.7509 52.1036 36.7441 52.0907 36.7455C52.07 36.7475 52.0533 36.7611 52.0328 36.7645C51.9273 36.7814 51.8281 36.8133 51.7356 36.862C51.7143 36.8732 51.6919 36.8794 51.6715 36.8922C51.5673 36.957 51.4797 37.0426 51.4066 37.1425C51.3988 37.1531 51.3857 37.1582 51.3783 37.1692L49.7396 39.6077C49.6892 39.6828 49.6507 39.7635 49.6238 39.847L41.0579 43.6136C40.5838 43.8261 40.1471 44.0775 39.7295 44.3451C39.2144 43.998 38.6763 43.6799 38.0977 43.428L29.9797 39.8494C29.9525 39.7643 29.9136 39.6822 29.8621 39.6058L28.2205 37.1692C28.2137 37.1591 28.2017 37.1545 28.1945 37.1447C28.1207 37.0432 28.0318 36.9565 27.9261 36.8911C27.9078 36.8797 27.8876 36.8742 27.8685 36.8641C27.7734 36.8135 27.671 36.7807 27.5621 36.7638C27.5434 36.7608 27.5281 36.7482 27.5091 36.7464C27.4969 36.7452 27.486 36.7514 27.4738 36.7507C27.4532 36.7494 27.4343 36.7417 27.4135 36.7417H19.2064C19.1855 36.7417 19.1666 36.7494 19.146 36.7507C19.1337 36.7514 19.123 36.7452 19.1107 36.7464C19.0917 36.7482 19.0765 36.7608 19.0577 36.7638C18.9488 36.7807 18.8464 36.8135 18.7513 36.8641C18.7322 36.8742 18.7121 36.8797 18.6937 36.8911C18.588 36.9565 18.4992 37.0432 18.4253 37.1447C18.4181 37.1545 18.4061 37.1591 18.3993 37.1692L16.7577 39.6058C16.7056 39.6831 16.6667 39.7663 16.6396 39.8524L8.52498 43.4247C4.92822 45.0072 2.48238 48.4009 2.14231 52.2813L1.00369 65.237C0.980012 65.5047 1.07095 65.7705 1.25472 65.9687C1.43849 66.167 1.69804 66.28 1.96991 66.28H23.3099H44.6499H56.2899H77.6299C77.9018 66.28 78.1613 66.167 78.3451 65.9687C78.5289 65.7705 78.6198 65.5047 78.5961 65.2366L77.413 51.7975ZM60.8955 40.1772L58.7331 43.9229L57.5121 41.9109L60.2428 39.2083L60.8955 40.1772ZM52.3376 39.2089L55.0676 41.9107L54.4922 42.8591L53.8468 43.9227L51.6871 40.1777L52.3376 39.2089ZM27.9155 40.1772L25.7531 43.9229L24.5321 41.9109L27.2628 39.2083L27.9155 40.1772ZM19.357 39.2083L22.0885 41.9117L20.8685 43.9237L20.8679 43.9248L18.7043 40.1772L19.357 39.2083ZM22.3399 64.36H3.028L4.07473 52.4472C4.35417 49.263 6.36143 46.4777 9.31311 45.1788L17.3099 41.6636L20.0068 46.3033C20.0434 46.3664 20.0898 46.4216 20.1386 46.4738C20.1465 46.4821 20.1517 46.493 20.1597 46.501C20.2055 46.5467 20.2589 46.5831 20.3126 46.6185C20.3283 46.6288 20.341 46.6431 20.3572 46.6526C20.3981 46.6762 20.4438 46.69 20.4879 46.7076C20.5215 46.7211 20.5527 46.7396 20.5877 46.7493C20.6225 46.7588 20.6598 46.7588 20.6957 46.7646C20.7429 46.7722 20.7889 46.7842 20.8375 46.7847C20.8413 46.7847 20.8442 46.7847 20.848 46.7847C20.8621 46.7847 20.8752 46.7799 20.8892 46.7794C21.2166 46.772 21.5121 46.596 21.6797 46.3188L22.3399 45.2295V64.36ZM21.548 38.6617H25.0718L23.3099 40.4055L21.548 38.6617ZM24.2799 64.36V45.2295L24.9402 46.3188C24.9818 46.3875 25.0325 46.4489 25.0886 46.5041C25.2281 46.6469 25.4098 46.7356 25.6198 46.7651C25.6702 46.7731 25.7199 46.7847 25.7718 46.7847C25.7756 46.7847 25.7785 46.7847 25.7823 46.7847C26.0613 46.7816 26.3184 46.6555 26.4982 46.4516C26.5403 46.4042 26.5824 46.3564 26.6149 46.3005L29.308 41.6617L37.3143 45.1839C37.9679 45.4689 38.5751 45.8303 39.1321 46.2677C41.0872 47.7498 42.3329 50.0008 42.5489 52.443L43.5918 64.36H24.2799ZM55.3199 64.36H45.5394L44.4813 52.2766C44.4506 51.9292 44.3992 51.586 44.335 51.2461C44.3143 51.1366 44.2855 51.0296 44.2614 50.921C44.2106 50.6917 44.1558 50.4637 44.0901 50.239C44.0534 50.1138 44.0116 49.9908 43.9704 49.8671C43.9026 49.6633 43.8298 49.4619 43.7498 49.2629C43.6989 49.1358 43.6462 49.0101 43.5904 48.8853C43.5045 48.6934 43.4115 48.5055 43.3146 48.3191C43.2518 48.1983 43.1909 48.077 43.1236 47.9588C43.0141 47.7665 42.8946 47.5806 42.7732 47.3954C42.706 47.2928 42.6441 47.1872 42.5734 47.087C42.3826 46.8167 42.1803 46.5541 41.9645 46.302C41.8908 46.2159 41.8087 46.1371 41.7321 46.0532C41.5994 45.9078 41.4699 45.7595 41.3288 45.6213C41.4984 45.5313 41.6717 45.4459 41.8498 45.3663L50.2918 41.6617L52.9849 46.3005C53.0189 46.359 53.0625 46.4093 53.1069 46.4585C53.1182 46.471 53.126 46.4867 53.1379 46.4986C53.1761 46.5368 53.2216 46.5658 53.2654 46.5968C53.2893 46.6138 53.3098 46.6356 53.3352 46.6503C53.3772 46.6747 53.4242 46.689 53.4697 46.7069C53.5018 46.7197 53.5315 46.7376 53.565 46.7469C53.6136 46.7604 53.6654 46.7625 53.7162 46.7683C53.7496 46.7722 53.7815 46.782 53.8156 46.7823C53.816 46.7823 53.8162 46.7823 53.8166 46.7823C53.8194 46.7823 53.8232 46.7823 53.8261 46.7823C54.1661 46.7823 54.4825 46.6056 54.6578 46.3164L55.3199 45.2252V64.36ZM54.5291 38.6617H58.0518L56.2906 40.4048L54.5291 38.6617ZM57.2599 64.36V45.2295L57.9201 46.3188C58.0954 46.608 58.4118 46.7847 58.7518 46.7847C58.7556 46.7847 58.7585 46.7847 58.7623 46.7847C59.0413 46.7816 59.2984 46.6555 59.4782 46.4516C59.5203 46.4042 59.5624 46.3564 59.5949 46.3005L62.288 41.6617L70.7262 45.3648C73.407 46.5461 75.2286 49.0741 75.4806 51.9625C75.4806 51.963 75.4806 51.963 75.4806 51.9634L76.5718 64.36H57.2599Z"/>
</mask>
<path d="M77.413 51.7975C77.1004 48.2134 74.8412 45.0761 71.5125 43.6094L62.9596 39.8485C62.9325 39.7638 62.8934 39.682 62.8421 39.6058L61.2005 37.1692C61.1937 37.1591 61.1817 37.1545 61.1745 37.1447C61.1007 37.0432 61.0118 36.9565 60.9061 36.8911C60.8878 36.8797 60.8676 36.8742 60.8485 36.8641C60.7534 36.8135 60.651 36.7807 60.5421 36.7638C60.5234 36.7608 60.5081 36.7482 60.4891 36.7464C60.4768 36.7452 60.466 36.7514 60.4538 36.7507C60.4332 36.7494 60.4142 36.7417 60.3935 36.7417H52.1864C52.1667 36.7417 52.1488 36.749 52.1293 36.7502C52.1164 36.7509 52.1036 36.7441 52.0907 36.7455C52.07 36.7475 52.0533 36.7611 52.0328 36.7645C51.9273 36.7814 51.8281 36.8133 51.7356 36.862C51.7143 36.8732 51.6919 36.8794 51.6715 36.8922C51.5673 36.957 51.4797 37.0426 51.4066 37.1425C51.3988 37.1531 51.3857 37.1582 51.3783 37.1692L49.7396 39.6077C49.6892 39.6828 49.6507 39.7635 49.6238 39.847L41.0579 43.6136C40.5838 43.8261 40.1471 44.0775 39.7295 44.3451C39.2144 43.998 38.6763 43.6799 38.0977 43.428L29.9797 39.8494C29.9525 39.7643 29.9136 39.6822 29.8621 39.6058L28.2205 37.1692C28.2137 37.1591 28.2017 37.1545 28.1945 37.1447C28.1207 37.0432 28.0318 36.9565 27.9261 36.8911C27.9078 36.8797 27.8876 36.8742 27.8685 36.8641C27.7734 36.8135 27.671 36.7807 27.5621 36.7638C27.5434 36.7608 27.5281 36.7482 27.5091 36.7464C27.4969 36.7452 27.486 36.7514 27.4738 36.7507C27.4532 36.7494 27.4343 36.7417 27.4135 36.7417H19.2064C19.1855 36.7417 19.1666 36.7494 19.146 36.7507C19.1337 36.7514 19.123 36.7452 19.1107 36.7464C19.0917 36.7482 19.0765 36.7608 19.0577 36.7638C18.9488 36.7807 18.8464 36.8135 18.7513 36.8641C18.7322 36.8742 18.7121 36.8797 18.6937 36.8911C18.588 36.9565 18.4992 37.0432 18.4253 37.1447C18.4181 37.1545 18.4061 37.1591 18.3993 37.1692L16.7577 39.6058C16.7056 39.6831 16.6667 39.7663 16.6396 39.8524L8.52498 43.4247C4.92822 45.0072 2.48238 48.4009 2.14231 52.2813L1.00369 65.237C0.980012 65.5047 1.07095 65.7705 1.25472 65.9687C1.43849 66.167 1.69804 66.28 1.96991 66.28H23.3099H44.6499H56.2899H77.6299C77.9018 66.28 78.1613 66.167 78.3451 65.9687C78.5289 65.7705 78.6198 65.5047 78.5961 65.2366L77.413 51.7975ZM60.8955 40.1772L58.7331 43.9229L57.5121 41.9109L60.2428 39.2083L60.8955 40.1772ZM52.3376 39.2089L55.0676 41.9107L54.4922 42.8591L53.8468 43.9227L51.6871 40.1777L52.3376 39.2089ZM27.9155 40.1772L25.7531 43.9229L24.5321 41.9109L27.2628 39.2083L27.9155 40.1772ZM19.357 39.2083L22.0885 41.9117L20.8685 43.9237L20.8679 43.9248L18.7043 40.1772L19.357 39.2083ZM22.3399 64.36H3.028L4.07473 52.4472C4.35417 49.263 6.36143 46.4777 9.31311 45.1788L17.3099 41.6636L20.0068 46.3033C20.0434 46.3664 20.0898 46.4216 20.1386 46.4738C20.1465 46.4821 20.1517 46.493 20.1597 46.501C20.2055 46.5467 20.2589 46.5831 20.3126 46.6185C20.3283 46.6288 20.341 46.6431 20.3572 46.6526C20.3981 46.6762 20.4438 46.69 20.4879 46.7076C20.5215 46.7211 20.5527 46.7396 20.5877 46.7493C20.6225 46.7588 20.6598 46.7588 20.6957 46.7646C20.7429 46.7722 20.7889 46.7842 20.8375 46.7847C20.8413 46.7847 20.8442 46.7847 20.848 46.7847C20.8621 46.7847 20.8752 46.7799 20.8892 46.7794C21.2166 46.772 21.5121 46.596 21.6797 46.3188L22.3399 45.2295V64.36ZM21.548 38.6617H25.0718L23.3099 40.4055L21.548 38.6617ZM24.2799 64.36V45.2295L24.9402 46.3188C24.9818 46.3875 25.0325 46.4489 25.0886 46.5041C25.2281 46.6469 25.4098 46.7356 25.6198 46.7651C25.6702 46.7731 25.7199 46.7847 25.7718 46.7847C25.7756 46.7847 25.7785 46.7847 25.7823 46.7847C26.0613 46.7816 26.3184 46.6555 26.4982 46.4516C26.5403 46.4042 26.5824 46.3564 26.6149 46.3005L29.308 41.6617L37.3143 45.1839C37.9679 45.4689 38.5751 45.8303 39.1321 46.2677C41.0872 47.7498 42.3329 50.0008 42.5489 52.443L43.5918 64.36H24.2799ZM55.3199 64.36H45.5394L44.4813 52.2766C44.4506 51.9292 44.3992 51.586 44.335 51.2461C44.3143 51.1366 44.2855 51.0296 44.2614 50.921C44.2106 50.6917 44.1558 50.4637 44.0901 50.239C44.0534 50.1138 44.0116 49.9908 43.9704 49.8671C43.9026 49.6633 43.8298 49.4619 43.7498 49.2629C43.6989 49.1358 43.6462 49.0101 43.5904 48.8853C43.5045 48.6934 43.4115 48.5055 43.3146 48.3191C43.2518 48.1983 43.1909 48.077 43.1236 47.9588C43.0141 47.7665 42.8946 47.5806 42.7732 47.3954C42.706 47.2928 42.6441 47.1872 42.5734 47.087C42.3826 46.8167 42.1803 46.5541 41.9645 46.302C41.8908 46.2159 41.8087 46.1371 41.7321 46.0532C41.5994 45.9078 41.4699 45.7595 41.3288 45.6213C41.4984 45.5313 41.6717 45.4459 41.8498 45.3663L50.2918 41.6617L52.9849 46.3005C53.0189 46.359 53.0625 46.4093 53.1069 46.4585C53.1182 46.471 53.126 46.4867 53.1379 46.4986C53.1761 46.5368 53.2216 46.5658 53.2654 46.5968C53.2893 46.6138 53.3098 46.6356 53.3352 46.6503C53.3772 46.6747 53.4242 46.689 53.4697 46.7069C53.5018 46.7197 53.5315 46.7376 53.565 46.7469C53.6136 46.7604 53.6654 46.7625 53.7162 46.7683C53.7496 46.7722 53.7815 46.782 53.8156 46.7823C53.816 46.7823 53.8162 46.7823 53.8166 46.7823C53.8194 46.7823 53.8232 46.7823 53.8261 46.7823C54.1661 46.7823 54.4825 46.6056 54.6578 46.3164L55.3199 45.2252V64.36ZM54.5291 38.6617H58.0518L56.2906 40.4048L54.5291 38.6617ZM57.2599 64.36V45.2295L57.9201 46.3188C58.0954 46.608 58.4118 46.7847 58.7518 46.7847C58.7556 46.7847 58.7585 46.7847 58.7623 46.7847C59.0413 46.7816 59.2984 46.6555 59.4782 46.4516C59.5203 46.4042 59.5624 46.3564 59.5949 46.3005L62.288 41.6617L70.7262 45.3648C73.407 46.5461 75.2286 49.0741 75.4806 51.9625C75.4806 51.963 75.4806 51.963 75.4806 51.9634L76.5718 64.36H57.2599Z" fill="black"/>
<path d="M77.413 51.7975C77.1004 48.2134 74.8412 45.0761 71.5125 43.6094L62.9596 39.8485C62.9325 39.7638 62.8934 39.682 62.8421 39.6058L61.2005 37.1692C61.1937 37.1591 61.1817 37.1545 61.1745 37.1447C61.1007 37.0432 61.0118 36.9565 60.9061 36.8911C60.8878 36.8797 60.8676 36.8742 60.8485 36.8641C60.7534 36.8135 60.651 36.7807 60.5421 36.7638C60.5234 36.7608 60.5081 36.7482 60.4891 36.7464C60.4768 36.7452 60.466 36.7514 60.4538 36.7507C60.4332 36.7494 60.4142 36.7417 60.3935 36.7417H52.1864C52.1667 36.7417 52.1488 36.749 52.1293 36.7502C52.1164 36.7509 52.1036 36.7441 52.0907 36.7455C52.07 36.7475 52.0533 36.7611 52.0328 36.7645C51.9273 36.7814 51.8281 36.8133 51.7356 36.862C51.7143 36.8732 51.6919 36.8794 51.6715 36.8922C51.5673 36.957 51.4797 37.0426 51.4066 37.1425C51.3988 37.1531 51.3857 37.1582 51.3783 37.1692L49.7396 39.6077C49.6892 39.6828 49.6507 39.7635 49.6238 39.847L41.0579 43.6136C40.5838 43.8261 40.1471 44.0775 39.7295 44.3451C39.2144 43.998 38.6763 43.6799 38.0977 43.428L29.9797 39.8494C29.9525 39.7643 29.9136 39.6822 29.8621 39.6058L28.2205 37.1692C28.2137 37.1591 28.2017 37.1545 28.1945 37.1447C28.1207 37.0432 28.0318 36.9565 27.9261 36.8911C27.9078 36.8797 27.8876 36.8742 27.8685 36.8641C27.7734 36.8135 27.671 36.7807 27.5621 36.7638C27.5434 36.7608 27.5281 36.7482 27.5091 36.7464C27.4969 36.7452 27.486 36.7514 27.4738 36.7507C27.4532 36.7494 27.4343 36.7417 27.4135 36.7417H19.2064C19.1855 36.7417 19.1666 36.7494 19.146 36.7507C19.1337 36.7514 19.123 36.7452 19.1107 36.7464C19.0917 36.7482 19.0765 36.7608 19.0577 36.7638C18.9488 36.7807 18.8464 36.8135 18.7513 36.8641C18.7322 36.8742 18.7121 36.8797 18.6937 36.8911C18.588 36.9565 18.4992 37.0432 18.4253 37.1447C18.4181 37.1545 18.4061 37.1591 18.3993 37.1692L16.7577 39.6058C16.7056 39.6831 16.6667 39.7663 16.6396 39.8524L8.52498 43.4247C4.92822 45.0072 2.48238 48.4009 2.14231 52.2813L1.00369 65.237C0.980012 65.5047 1.07095 65.7705 1.25472 65.9687C1.43849 66.167 1.69804 66.28 1.96991 66.28H23.3099H44.6499H56.2899H77.6299C77.9018 66.28 78.1613 66.167 78.3451 65.9687C78.5289 65.7705 78.6198 65.5047 78.5961 65.2366L77.413 51.7975ZM60.8955 40.1772L58.7331 43.9229L57.5121 41.9109L60.2428 39.2083L60.8955 40.1772ZM52.3376 39.2089L55.0676 41.9107L54.4922 42.8591L53.8468 43.9227L51.6871 40.1777L52.3376 39.2089ZM27.9155 40.1772L25.7531 43.9229L24.5321 41.9109L27.2628 39.2083L27.9155 40.1772ZM19.357 39.2083L22.0885 41.9117L20.8685 43.9237L20.8679 43.9248L18.7043 40.1772L19.357 39.2083ZM22.3399 64.36H3.028L4.07473 52.4472C4.35417 49.263 6.36143 46.4777 9.31311 45.1788L17.3099 41.6636L20.0068 46.3033C20.0434 46.3664 20.0898 46.4216 20.1386 46.4738C20.1465 46.4821 20.1517 46.493 20.1597 46.501C20.2055 46.5467 20.2589 46.5831 20.3126 46.6185C20.3283 46.6288 20.341 46.6431 20.3572 46.6526C20.3981 46.6762 20.4438 46.69 20.4879 46.7076C20.5215 46.7211 20.5527 46.7396 20.5877 46.7493C20.6225 46.7588 20.6598 46.7588 20.6957 46.7646C20.7429 46.7722 20.7889 46.7842 20.8375 46.7847C20.8413 46.7847 20.8442 46.7847 20.848 46.7847C20.8621 46.7847 20.8752 46.7799 20.8892 46.7794C21.2166 46.772 21.5121 46.596 21.6797 46.3188L22.3399 45.2295V64.36ZM21.548 38.6617H25.0718L23.3099 40.4055L21.548 38.6617ZM24.2799 64.36V45.2295L24.9402 46.3188C24.9818 46.3875 25.0325 46.4489 25.0886 46.5041C25.2281 46.6469 25.4098 46.7356 25.6198 46.7651C25.6702 46.7731 25.7199 46.7847 25.7718 46.7847C25.7756 46.7847 25.7785 46.7847 25.7823 46.7847C26.0613 46.7816 26.3184 46.6555 26.4982 46.4516C26.5403 46.4042 26.5824 46.3564 26.6149 46.3005L29.308 41.6617L37.3143 45.1839C37.9679 45.4689 38.5751 45.8303 39.1321 46.2677C41.0872 47.7498 42.3329 50.0008 42.5489 52.443L43.5918 64.36H24.2799ZM55.3199 64.36H45.5394L44.4813 52.2766C44.4506 51.9292 44.3992 51.586 44.335 51.2461C44.3143 51.1366 44.2855 51.0296 44.2614 50.921C44.2106 50.6917 44.1558 50.4637 44.0901 50.239C44.0534 50.1138 44.0116 49.9908 43.9704 49.8671C43.9026 49.6633 43.8298 49.4619 43.7498 49.2629C43.6989 49.1358 43.6462 49.0101 43.5904 48.8853C43.5045 48.6934 43.4115 48.5055 43.3146 48.3191C43.2518 48.1983 43.1909 48.077 43.1236 47.9588C43.0141 47.7665 42.8946 47.5806 42.7732 47.3954C42.706 47.2928 42.6441 47.1872 42.5734 47.087C42.3826 46.8167 42.1803 46.5541 41.9645 46.302C41.8908 46.2159 41.8087 46.1371 41.7321 46.0532C41.5994 45.9078 41.4699 45.7595 41.3288 45.6213C41.4984 45.5313 41.6717 45.4459 41.8498 45.3663L50.2918 41.6617L52.9849 46.3005C53.0189 46.359 53.0625 46.4093 53.1069 46.4585C53.1182 46.471 53.126 46.4867 53.1379 46.4986C53.1761 46.5368 53.2216 46.5658 53.2654 46.5968C53.2893 46.6138 53.3098 46.6356 53.3352 46.6503C53.3772 46.6747 53.4242 46.689 53.4697 46.7069C53.5018 46.7197 53.5315 46.7376 53.565 46.7469C53.6136 46.7604 53.6654 46.7625 53.7162 46.7683C53.7496 46.7722 53.7815 46.782 53.8156 46.7823C53.816 46.7823 53.8162 46.7823 53.8166 46.7823C53.8194 46.7823 53.8232 46.7823 53.8261 46.7823C54.1661 46.7823 54.4825 46.6056 54.6578 46.3164L55.3199 45.2252V64.36ZM54.5291 38.6617H58.0518L56.2906 40.4048L54.5291 38.6617ZM57.2599 64.36V45.2295L57.9201 46.3188C58.0954 46.608 58.4118 46.7847 58.7518 46.7847C58.7556 46.7847 58.7585 46.7847 58.7623 46.7847C59.0413 46.7816 59.2984 46.6555 59.4782 46.4516C59.5203 46.4042 59.5624 46.3564 59.5949 46.3005L62.288 41.6617L70.7262 45.3648C73.407 46.5461 75.2286 49.0741 75.4806 51.9625C75.4806 51.963 75.4806 51.963 75.4806 51.9634L76.5718 64.36H57.2599Z" stroke="black" stroke-width="0.8" mask="url(#path-3-outside-1_14_6)"/>
<path d="M38.0834 53.6H29.055C28.4102 53.6 27.885 54.1175 27.885 54.76V58.0094C27.885 58.6519 28.4102 59.1694 29.055 59.1694H38.0834C38.7281 59.1694 39.2534 58.6519 39.2534 58.0094V54.76C39.2534 54.1175 38.7281 53.6 38.0834 53.6ZM36.9134 56.8494H30.225V55.92H36.9134V56.8494Z" fill="black" stroke="black" stroke-width="0.4"/>
<path d="M13.9742 2.89973L13.9748 2.89934C16.0951 1.52548 18.5531 0.8 21.0857 0.8H25.5341C30.728 0.8 35.3759 3.8245 37.372 8.51053C38.0753 10.1309 38.4331 11.8672 38.4331 13.6647M13.9742 2.89973L38.2331 13.6652M13.9742 2.89973C11.8579 4.28162 10.2232 6.22134 9.25062 8.504M13.9742 2.89973L9.25062 8.504M38.4331 13.6647C38.4331 13.6649 38.4331 13.665 38.4331 13.6652H38.2331M38.4331 13.6647C38.4331 13.6645 38.4331 13.6643 38.4331 13.664L38.2331 13.6652M38.4331 13.6647C38.4719 20.5129 39.7243 25.3052 40.9681 28.387C41.5901 29.9283 42.2103 31.0425 42.6763 31.7729C42.9093 32.1381 43.1038 32.4073 43.2407 32.586C43.3092 32.6754 43.3633 32.7421 43.4006 32.7868C43.4192 32.8091 43.4337 32.826 43.4436 32.8374C43.4524 32.8475 43.4573 32.8529 43.4582 32.854L43.4583 32.8541M38.2331 13.6652C38.3108 27.4112 43.2612 32.9355 43.3114 32.9898C43.571 33.2706 43.6392 33.678 43.4838 34.0258M43.4583 32.8541L43.3131 32.9883L43.4584 32.8542L43.4583 32.8541ZM43.4583 32.8541C43.7717 33.1931 43.8547 33.6858 43.6664 34.1073M43.6664 34.1073C43.6665 34.1072 43.6666 34.107 43.6667 34.1068L43.4838 34.0258M43.6664 34.1073C43.4798 34.5279 43.0614 34.8 42.5981 34.8H27.2436M43.6664 34.1073L43.4838 34.0258M43.4838 34.0258L27.2436 34.8M27.2436 34.8C27.261 34.7879 27.2783 34.7759 27.2954 34.7639L27.1808 34.6V34.8H27.2436ZM27.2436 34.8C26.6919 35.1829 26.0484 35.5807 25.384 35.8865C24.7011 36.2008 23.9817 36.4247 23.3099 36.4247C22.6386 36.4247 21.9198 36.2011 21.2371 35.887C20.5729 35.5813 19.9293 35.1836 19.3766 34.8M27.2436 34.8L5.27525 29.294L5.45775 29.3758H5.25775C5.25775 29.3552 5.261 29.3394 5.26202 29.3345C5.26349 29.3274 5.26506 29.3217 5.26602 29.3185C5.26788 29.3121 5.26974 29.3068 5.2708 29.3039C4.19368 31.703 3.19999 32.8113 3.16801 32.847C3.16735 32.8477 3.1671 32.848 3.16726 32.8478L3.16665 32.8484C2.84853 33.1859 2.76219 33.679 2.94917 34.1036L2.94921 34.1037C3.13583 34.5269 3.55655 34.8 4.02169 34.8H19.3766M19.3766 34.8H19.4394V34.6L19.3247 34.7639C19.3419 34.7759 19.3592 34.7879 19.3766 34.8ZM26.1833 32.7018L26.1835 32.702C26.3977 32.5475 26.6106 32.3858 26.8209 32.2179C28.2991 31.0378 29.6461 29.5606 30.5114 28.1602L30.5116 28.1599C30.5464 28.1038 30.5864 28.0492 30.6331 27.9977M26.1833 32.7018L31.5218 26.4686M26.1833 32.7018L26.1763 32.7074C26.176 32.7077 26.1756 32.7079 26.1753 32.7082C25.4571 33.2302 24.8458 33.5811 24.3582 33.8009C23.8645 34.0234 23.5126 34.1047 23.3099 34.1047C23.1073 34.1047 22.7553 34.0234 22.2613 33.8006C21.7723 33.5801 21.1587 33.2275 20.4371 32.7025L20.4363 32.702C18.7169 31.4625 17.0981 29.7619 16.1084 28.1602L16.1083 28.1599C16.0735 28.1038 16.0334 28.0492 15.9867 27.9977M26.1833 32.7018L31.5218 26.4686M30.6331 27.9977C30.6334 27.9974 30.6336 27.9971 30.6339 27.9968L30.7819 28.1312L30.6325 27.9983C30.6327 27.9981 30.6329 27.9979 30.6331 27.9977ZM30.6331 27.9977C31.0142 27.5691 31.2592 27.0178 31.3229 26.4471M31.3229 26.4471C31.3229 26.4472 31.3229 26.4473 31.3229 26.4474L31.5218 26.4686M31.3229 26.4471C31.3229 26.4469 31.323 26.4467 31.323 26.4464L31.5218 26.4686M31.3229 26.4471C31.3289 26.3914 31.3393 26.3389 31.351 26.2904L31.3517 26.2877C31.5301 25.5919 31.6981 24.2739 31.8384 22.8599C31.9703 21.5313 32.0764 20.1326 32.144 19.1184C27.7877 18.3212 24.7412 15.7437 23.3077 14.2738C22.8318 14.76 22.1804 15.3669 21.3653 15.9893L21.3648 15.9897C21.1315 16.1666 20.8808 16.3525 20.6109 16.5306C20.2487 16.7843 19.8305 17.0484 19.3903 17.3012L19.3882 17.3025L19.3882 17.3024L19.278 17.364C19.2779 17.364 19.2778 17.364 19.2777 17.3641C19.1065 17.4605 18.9254 17.5617 18.7441 17.6519L18.7436 17.6521L18.1876 17.9268L18.1829 17.9291L18.1829 17.929C17.7771 18.1166 17.3641 18.2906 16.941 18.4478L16.9397 18.4483C16.1238 18.7449 15.2974 18.9707 14.4743 19.122C14.5364 20.0309 14.6382 21.4027 14.7688 22.7408C14.9088 24.1756 15.0803 25.5544 15.2681 26.2877L15.2688 26.2904L15.2688 26.2904C15.2806 26.3391 15.2909 26.3919 15.2969 26.4467M15.2969 26.4467C15.2969 26.4469 15.2969 26.4471 15.2969 26.4472L15.0983 26.4686L15.2968 26.4464C15.2969 26.4465 15.2969 26.4466 15.2969 26.4467ZM15.2969 26.4467C15.3605 27.0176 15.6055 27.569 15.9867 27.9977M15.9867 27.9977C15.9865 27.9974 15.9862 27.9971 15.9859 27.9968L15.8379 28.1312L15.9873 27.9983C15.9871 27.9981 15.9869 27.9979 15.9867 27.9977ZM17.2692 16.0122L17.7893 15.7544C17.9313 15.6841 18.0753 15.6028 18.2147 15.5241L18.2203 15.5209L18.3264 15.4614C18.7046 15.2444 19.0695 15.0058 19.4101 14.7757L19.3021 14.6073C19.2993 14.6093 19.2993 14.6093 19.2996 14.6091L19.2982 14.61C18.9593 14.839 18.5993 15.0742 18.2276 15.2875L18.2285 15.287L18.3263 15.4614L18.2268 15.2879L18.1224 15.3465L18.1219 15.3468L18.1186 15.3487C17.9775 15.4283 17.8377 15.5073 17.7005 15.5751L17.7004 15.5752L17.1828 15.8318M17.2692 16.0122L17.1853 15.8307C17.1845 15.831 17.1836 15.8314 17.1828 15.8318M17.2692 16.0122L17.1804 15.833L17.1828 15.8318M17.2692 16.0122C16.9225 16.1725 16.5597 16.3248 16.196 16.4603M17.1828 15.8318C16.8414 15.9896 16.4845 16.1394 16.1269 16.2726M16.1269 16.2726C16.1272 16.2725 16.1274 16.2724 16.1276 16.2723L16.196 16.4603M16.1269 16.2726C15.343 16.5575 14.5466 16.7651 13.7452 16.8928L13.7451 16.8928L13.7419 16.8933C13.5394 16.929 13.3304 16.9579 13.1214 16.9785M16.1269 16.2726C16.1267 16.2727 16.1264 16.2728 16.1261 16.2729L16.196 16.4603M16.196 16.4603C15.4002 16.7495 14.5913 16.9605 13.7766 17.0903C13.5692 17.1269 13.3551 17.1564 13.141 17.1775C13.1404 17.1776 13.1398 17.1778 13.1393 17.178C13.1387 17.1783 13.1381 17.1785 13.1375 17.1786L13.1363 17.1784M13.1214 16.9785L13.1154 16.9798L13.1327 17.1447L13.1363 17.1784M13.1214 16.9785C13.1163 16.979 13.1115 16.9796 13.1069 16.9804M13.1214 16.9785L12.3309 19.1395C12.2592 19.142 12.1887 19.147 12.1183 19.152C12.0196 19.159 11.9211 19.1659 11.8196 19.1659C11.2834 19.1659 10.8496 18.7361 10.8496 18.2059C10.8496 17.6758 11.2834 17.2459 11.8196 17.2459C12.2695 17.2459 12.7119 17.223 13.1363 17.1784M13.1363 17.1784L13.1083 16.9807C13.0944 16.9828 13.0832 16.986 13.0758 16.9884C13.0712 16.9899 13.0676 16.9913 13.0654 16.9922M13.0654 16.9922L13.0663 16.9918C13.0687 16.9909 13.0726 16.9894 13.0775 16.9878C13.0845 16.9854 13.0946 16.9825 13.1069 16.9804M13.0654 16.9922C13.0642 16.9926 13.0631 16.9931 13.0626 16.9933L13.0627 16.9933L13.0634 16.993L13.0654 16.9922ZM13.1069 16.9804C12.6923 17.0236 12.2598 17.0459 11.8196 17.0459C11.1749 17.0459 10.6496 17.5634 10.6496 18.2059C10.6496 18.8484 11.1749 19.3659 11.8196 19.3659C11.9139 19.3659 12.0045 19.3604 12.0898 19.3545C12.1045 19.3534 12.119 19.3524 12.1334 19.3514C12.1372 19.3511 12.1409 19.3509 12.1447 19.3506M13.1069 16.9804L12.1447 19.3506M12.1447 19.3506C12.2759 21.2725 12.5763 25.1207 12.98 26.7816C13.1055 27.7603 13.5228 28.7019 14.1635 29.4538C14.326 29.7121 14.5043 29.971 14.6901 30.2284M12.1447 19.3506L31.0822 31.3057C30.9295 31.4858 30.7721 31.6635 30.6111 31.8399L30.6111 31.8399C30.5882 31.865 30.5647 31.891 30.5408 31.9174C30.4926 31.9708 30.4428 32.026 30.3925 32.0794C30.2658 32.2138 30.1372 32.3476 30.0064 32.48H40.3564C38.6987 29.6942 36.1508 23.7778 36.0931 13.6715L36.0931 13.6703C36.0931 12.1831 35.7992 10.7558 35.2193 9.42111L35.2187 9.41974C33.5895 5.59241 29.79 3.12 25.5341 3.12H21.0857C19.009 3.12 16.9933 3.7145 15.2583 4.83936C13.5309 5.96752 12.1971 7.5497 11.404 9.41316L11.4034 9.41455C10.8206 10.7559 10.5267 12.1832 10.5267 13.6652V13.6662C10.484 21.617 8.86341 26.95 7.5024 30.0341C7.49899 30.0439 7.49596 30.0511 7.49518 30.0529L7.49501 30.0533C7.49098 30.0631 7.48607 30.0744 7.48107 30.0857C7.47107 30.1082 7.45839 30.1358 7.44626 30.1621C7.02733 31.0967 6.61838 31.8652 6.25406 32.48H16.6133C16.4821 32.3472 16.3532 32.213 16.2262 32.0782C16.1767 32.0257 16.1276 31.9713 16.0802 31.9188C16.0567 31.8928 16.0336 31.8672 16.011 31.8425C15.8489 31.665 15.6905 31.4861 15.5368 31.3049C15.4576 31.2115 15.3804 31.1185 15.3039 31.0246M14.6901 30.2284C14.69 30.2284 14.69 30.2284 14.69 30.2284L14.8523 30.1114L14.6901 30.2284ZM14.6901 30.2284C14.7338 30.2891 14.7807 30.3508 14.8259 30.4101C14.846 30.4366 14.8658 30.4626 14.8847 30.4877M14.8847 30.4877C15.0194 30.6669 15.1582 30.8457 15.3039 31.0246M14.8847 30.4877L15.0413 30.37L14.8847 30.4878C14.8847 30.4878 14.8847 30.4878 14.8847 30.4877ZM15.3039 31.0246L15.4581 30.8989L15.3038 31.0245C15.3038 31.0245 15.3039 31.0245 15.3039 31.0246ZM9.25062 8.504C8.54453 10.1308 8.18676 11.8671 8.18669 13.6595C8.14604 21.2294 6.62158 26.2445 5.32468 29.182C5.31261 29.2082 5.30012 29.2354 5.29052 29.2569C5.28571 29.2677 5.28101 29.2784 5.27729 29.2873C5.27554 29.2915 5.27316 29.2974 5.27092 29.3036L9.25062 8.504ZM13.1776 16.9827C13.1769 16.9825 13.1757 16.9823 13.1745 16.9821L13.1773 16.9826L13.1776 16.9827ZM13.1776 16.9827C13.1782 16.9828 13.1786 16.9829 13.1784 16.9828L13.1783 16.9828L13.1781 16.9828L13.1776 16.9827ZM26.1513 32.731C26.151 32.7312 26.1515 32.7306 26.1526 32.7295L26.1517 32.7305L26.1514 32.7308L26.1513 32.7309L26.1513 32.731ZM19.9385 14.1503C19.7457 14.297 19.5415 14.4489 19.3152 14.5983L31.6368 30.2864C31.6811 30.2281 31.7253 30.17 31.7675 30.1115L31.9297 30.2285C31.9297 30.2285 31.9297 30.2285 31.9297 30.2285C32.1155 29.971 32.2938 29.7122 32.4563 29.4538C33.097 28.7019 33.5144 27.7603 33.6398 26.7816C34.0515 25.0886 34.3494 21.1997 34.4734 19.3505C34.4773 19.3508 34.4811 19.351 34.4849 19.3513C34.4995 19.3524 34.5142 19.3534 34.5291 19.3544C34.6146 19.3604 34.7056 19.3659 34.8002 19.3659C35.445 19.3659 35.9702 18.8484 35.9702 18.2059C35.9702 17.5634 35.445 17.0459 34.8002 17.0459C34.3762 17.0459 33.9597 17.0237 33.5582 16.9833C33.5557 16.9825 33.5531 16.9816 33.5504 16.9808C33.5389 16.9772 33.5229 16.9731 33.5035 16.9711C30.6458 16.6705 28.3389 15.3957 26.7386 14.1849C25.9389 13.58 25.3178 12.9925 24.8948 12.5541C24.6834 12.3349 24.5217 12.1531 24.4122 12.0253C24.3575 11.9614 24.3158 11.9109 24.2875 11.8761C24.2734 11.8587 24.2626 11.8451 24.2552 11.8358C24.2475 11.826 24.2441 11.8216 24.2444 11.822L24.2439 11.8213C24.0226 11.5309 23.6754 11.3614 23.3099 11.3614C22.9441 11.3614 22.5982 11.5311 22.3763 11.8209L22.3757 11.8217L22.3756 11.8217C22.3736 11.8243 22.1556 12.1073 21.7433 12.5385C21.3291 12.9717 20.7201 13.5533 19.9385 14.1503Z" fill="black" stroke="black" stroke-width="0.4"/>
</svg>
