<svg width="71" height="69" viewBox="0 0 71 69" fill="none" xmlns="http://www.w3.org/2000/svg">
<path d="M66.368 2.0542L34.754 36.0939L25.0431 22.6175C24.8663 22.3503 24.6372 22.1215 24.3697 21.9449C24.1022 21.7684 23.8018 21.6478 23.4865 21.5903C23.1712 21.5328 22.8475 21.5396 22.5349 21.6103C22.2223 21.6811 21.9272 21.8143 21.6674 22.0019C21.4076 22.1896 21.1884 22.4278 21.0229 22.7023C20.8575 22.9768 20.7493 23.2819 20.7047 23.5993C20.6602 23.9167 20.6802 24.2398 20.7637 24.5493C20.8472 24.8587 20.9924 25.1481 21.1905 25.4L32.5978 41.2387C32.8038 41.5244 33.0706 41.7608 33.3791 41.9308C33.6876 42.1008 34.0299 42.2001 34.3815 42.2217H34.5242C34.8539 42.2177 35.1793 42.1452 35.4795 42.0087C35.7797 41.8722 36.0483 41.6748 36.2682 41.429L69.8481 5.28853C70.0604 5.0595 70.2256 4.79089 70.3342 4.49803C70.4427 4.20517 70.4926 3.89379 70.4808 3.58168C70.469 3.26956 70.3959 2.96283 70.2655 2.67898C70.1352 2.39513 69.9503 2.13973 69.7212 1.92736C69.4922 1.71499 69.2236 1.54981 68.9307 1.44125C68.6379 1.3327 68.3265 1.28288 68.0144 1.29466C67.7023 1.30644 67.3955 1.37958 67.1117 1.5099C66.8279 1.64022 66.5724 1.82517 66.3601 2.0542H66.368Z" fill="black"/>
<path d="M64.6945 25.4304C64.0765 25.5547 63.5332 25.9192 63.1839 26.444C62.8346 26.9687 62.7079 27.6106 62.8316 28.2287C63.2203 30.1626 63.4168 32.1302 63.4182 34.1028C63.4182 41.8818 60.328 49.3423 54.8274 54.8429C49.3268 60.3435 41.8664 63.4337 34.0873 63.4337C26.3083 63.4337 18.8478 60.3435 13.3472 54.8429C7.84662 49.3423 4.7564 41.8818 4.7564 34.1028C4.75596 29.0247 6.07391 24.0335 8.58128 19.6177C11.0886 15.2018 14.6995 11.5126 19.0605 8.91099C23.4215 6.30941 28.3833 4.88461 33.4602 4.77603C38.5371 4.66746 43.5552 5.87883 48.0235 8.29159C48.5785 8.59435 49.2311 8.66421 49.8376 8.48581C50.4442 8.30741 50.955 7.89537 51.2578 7.34032C51.5605 6.78528 51.6304 6.1327 51.452 5.52614C51.2736 4.91959 50.8616 4.40875 50.3065 4.10599C43.7427 0.555143 36.195 -0.743578 28.8219 0.409168C21.4488 1.56191 14.6577 5.10242 9.49097 10.4873C4.32424 15.8721 1.0674 22.8037 0.220341 30.2182C-0.626721 37.6327 0.982805 45.1202 4.80188 51.5317C8.62095 57.9431 14.4385 62.9241 21.3616 65.7101C28.2848 68.4961 35.9309 68.9332 43.1264 66.9543C50.322 64.9753 56.6692 60.6898 61.1941 54.7553C65.7189 48.8209 68.1712 41.5655 68.1746 34.1028C68.1722 31.816 67.9438 29.5351 67.4928 27.2933C67.3685 26.6753 67.004 26.132 66.4792 25.7826C65.9545 25.4333 65.3126 25.3066 64.6945 25.4304V25.4304Z" fill="black"/>
</svg>
