<svg xmlns="http://www.w3.org/2000/svg" width="200" height="90" style="background:#fff"><g fill="none" fill-rule="evenodd"><path fill="#FFF" d="M0 0h200v90H0z"/><path fill="#131413" d="M199.15476 24.175558c-.093927-.103597-.264235-.2447645-.510613-.423401-.246584-.178434-.569549-.267651-.968584-.267651-.375811 0-.663269.0862802-.862787.2590432-.199724.172763-.299431.3801596-.299431.6219873 0 .3109937.090934.5673026.273008.7688257.181764.2016244.460655.4175275.836363.6479119l.528263.3109936c.575226.3340827 1.027314.6939888 1.355956 1.0798193.328744.3858306.493065.8839673.493065 1.4944101 0 .6566209-.231928 1.2095434-.695473 1.6586665-.463752.4492243-1.130015.6738364-1.998789.6738364-.340511 0-.639839-.0345323-.898087-.1036983-.258144-.0690647-.484395-.1495727-.677926-.2418277-.193738-.092255-.355065-.1930166-.484292-.3022846-.129227-.1094706-.234818-.2102321-.316978-.3023859l.686803-1.1057439c.070497.069166.155547.1495727.255461.241929.099604.0921537.219954.1812695.360845.267651.14089.0863815.299328.1583829.475415.2160043.176088.0576215.381489.0863815.616409.0863815.422672 0 .74543-.092255.968585-.2764613.222947-.1842062.334524-.4088184.334524-.6737351 0-.1958521-.02632-.3657796-.07927-.5097825-.052744-.1438004-.132117-.2735245-.237708-.3885648-.105693-.1152429-.234921-.2247134-.387371-.3284117-.152658-.1035971-.328745-.2187387-.528366-.345526l-.528262-.3282092c-.528262-.3340827-.942264-.685381-1.241386-1.0538948-.299328-.3687163-.449198-.8408271-.449198-1.4167375 0-.3109937.061723-.596164.184964-.8553085.123344-.2589419.296438-.4835541.519489-.6738364.223051-.1899786.484292-.3397537.78362-.4492243.299431-.109268.619196-.164054.959707-.164054.328642 0 .610423.0316969.845344.0949893.234818.063495.437225.1441042.607533.2418277.170204.0980273.311094.1959533.422568.2937781.111474.0980273.202511.181472.273008.2505367l-.616409 1.0021469zm-8.223676-.7429011c-.504729 0-.90975.2072953-1.215065.6219872-.305211.4145907-.481299 1.0134889-.528262 1.7967959h3.081633c.011664-.0577227.02054-.1411674.026527-.250638.005677-.109268.008773-.2273463.008773-.3541337 0-.5759104-.11746-1.0222992-.352175-1.3390651-.234921-.3165634-.575329-.4749463-1.021431-.4749463zm2.676715 1.8658605c0 .3569693-.011663.6651274-.0353.9242719-.023533.2591445-.04686.4865922-.070497.6825455h-4.314245c.046963.9789565.261138 1.6988698.642832 2.1596387.381386.4606675.930291.6910519 1.646408.6910519.246481 0 .469532-.02876.669153-.0863815.19962-.0576214.372714-.1266861.519592-.2072953.14667-.0806092.269911-.1613197.369825-.2419289.099707-.0806093.173094-.1439017.220057-.1900798l.528263.98483c-.058731.0576214-.146878.1411674-.264235.2505367-.117254.1094706-.275794.2189412-.475415.3284118-.199621.109268-.446102.2043585-.739547.2848665-.293548.0806092-.639839.1210151-1.039081.1210151-.528262 0-1.006671-.0863815-1.43502-.2591445-.428555-.172763-.792496-.4407178-1.091824-.8035606-.299328-.3627415-.531256-.823409-.695577-1.3821039-.164527-.5585936-.246584-1.2294933-.246584-2.012699 0-.7370276.085051-1.3735974.255461-1.909102.170101-.535707.401925-.976121.695473-1.321647.293445-.345526.633853-.6019362 1.021225-.7689269.387475-.1669908.80416-.2505368 1.250365-.2505368.810043 0 1.444.2505368 1.901765.7515089.457869.5009722.686906 1.2526836.686906 2.2547292zm-8.030041 3.5590595c0 .3455259.049854.5874549.149767.7256855.099707.1382307.272905.2072954.519386.2072954.129227 0 .237811-.0114433.325958-.0345324.08794-.023089.155444-.0460768.202304-.0690647l.123344 1.036578c-.070497.0345323-.199724.0806092-.387475.1382307-.187751.0577226-.440219.0863814-.757197.0863814-.481402 0-.868773-.1440029-1.162218-.4319074-.293445-.2879046-.440219-.8005226-.440219-1.5376514V18.5777737l1.42635-.1555474v10.4353506zm-6.374654.9502977c.199621 0 .375708-.0287601.528262-.0863815.152554-.0577227.284671-.1266861.396248-.2072953.111474-.0806093.205401-.1699275.281885-.2679548.076174-.0978248.143574-.1812695.202408-.2503342v-1.8314295l-.457869.0173168c-.68092.0229878-1.197415.1382306-1.549693.345526-.352175.2073966-.528263.541378-.528263 1.0020456 0 .4261352.099707.7457366.299432.9588042.199517.2130676.475415.3197027.82759.3197027zm-2.553371-1.1230607c0-.4837567.093927-.8868028.281678-1.209341.187854-.3225382.440322-.5846194.757196-.7862438.317082-.2014218.689797-.3455259 1.118352-.4318062.428452-.0864827.883327-.1296228 1.364626-.1296228h.440322v-.794649c0-.7025966-.126234-1.1863532-.378496-1.4512699-.25257-.2650181-.607635-.3973752-1.065607-.3973752-.422569 0-.774744.089217-1.056525.267651-.281678.1786365-.504832.3369182-.669153.4752501l-.598656-.9329809c.093927-.0921537.214175-.1959533.361052-.3109936.14667-.1151416.325648-.2246122.536932-.3283105.211388-.103597.451986-.1900798.722-.2591445.270015-.0690646.575226-.1036983.915737-.1036983.868774 0 1.526057.2360555 1.972262.7083688.446205.4724146.669153 1.2325313.669153 2.2806538v3.7836716c0 .3570705.011663.705432.0353 1.0451857.02343.339855.04686.5674039.070291.6825455h-1.355853l-.052847-.9156642h-.035197c-.046963.1035971-.117254.2215742-.211387.3540325-.093927.1325597-.211181.2535748-.352175.3630454-.140788.109268-.310992.2043585-.510612.2848665-.199724.0806092-.434336.1210151-.70435.1210151-.317081 0-.613416-.0576214-.889211-.172763-.276001-.1151416-.516599-.2764613-.722103-.4837566-.205504-.2073966-.363941-.4521611-.475415-.7343946-.111577-.2820311-.167314-.5901892-.167314-.9242719zm-2.394934-8.1893304c-.293444 0-.528262-.0921538-.70435-.2763601-.17619-.1843075-.264131-.4261352-.264131-.7256856 0-.2879045.087941-.5241625.264131-.7083687.176088-.1843076.410906-.2764613.70435-.2764613.281678 0 .510716.0921537.686803.2764613.176088.1842062.264131.4204642.264131.7083687 0 .2995504-.088043.5413781-.264131.7256856-.176087.1842063-.405125.2763601-.686803.2763601zm-.722 10.2972212h1.42635v-8.2930288h-1.42635v8.2930288zm-1.796174-7.3946814l-3.416261 6.1679223v.0345324h3.645195l-.12324 1.1922267h-5.370873v-.8984486l3.521852-6.2197716v-.0345323h-3.328218v-1.1402763h5.071545v.8983474zm-7.889047 3.2480657c0-1.1056426-.164424-1.9091019-.493169-2.4099728-.328538-.501276-.78651-.7516102-1.373503-.7516102-.587095 0-1.041867.2503342-1.364626.7516102-.322964.5008709-.484292 1.3043302-.484292 2.4099728 0 1.1057439.164321 1.9005955.492963 2.3842509.328744.4838579.78651.7256855 1.373605.7256855.586993 0 1.041868-.2418276 1.36473-.7256855.322758-.4836554.484292-1.278507.484292-2.3842509zm-5.194786 0c0-.7601166.090831-1.4166363.272905-1.9695588.181867-.5528214.428348-1.0049824.739649-1.3560781.311095-.3513996.669153-.6106453 1.074175-.777636.405022-.1669908.836364-.2505368 1.294129-.2505368.469635 0 .904074.083546 1.303109.2505368.399242.1669907.745636.4262364 1.039081.777636.293445.3510957.525372.8032567.69568 1.3560781.170204.5529225.255254 1.2094422.255254 1.9695588 0 .7717625-.088147 1.4341557-.264234 1.986977-.176088.5529226-.419576 1.0048811-.73067 1.3560781-.311198.3513995-.672146.6076072-1.083052.7689269-.411008.161421-.845343.241929-1.303108.241929-.469533 0-.904074-.080508-1.303109-.241929-.399036-.1613197-.745534-.4175274-1.038978-.7689269-.293445-.351197-.525269-.80032-.695473-1.3474703-.170308-.5471504-.255358-1.2121765-.255358-1.9955848zm-2.34219-5.9433102c-.04686-.0459756-.126131-.1123061-.237708-.1986876-.111577-.0863815-.252364-.1699275-.422568-.2505367-.170308-.080508-.369722-.1495726-.598656-.2071941-.229038-.0577227-.484396-.0864827-.766177-.0864827-.528262 0-.927297.1382306-1.197415.4146919-.270118.27636-.405022.5988982-.405022.9675133 0 .2303844.032204.4433507.096921.6392028.06451.1959533.164217.3887674.299328.5787459.135007.1900798.302218.3802609.501839.5701381.19962.1902824.440218.3946409.721999.6133795l.986131.7947503c.281781.2303844.548803.4664398.80127.7083688.252365.2419289.469532.4981367.651606.7688257.181868.2707903.325649.5644671.431446.8811318.10559.3167659.158437.6710009.158437 1.0626038 0 .9098918-.287665 1.6442864-.862994 2.2027787-.575122.5586949-1.414686.8379917-2.518071.8379917-.434335 0-.818816-.0404059-1.153341-.1210151-.334628-.080508-.625286-.178434-.871767-.2936768-.246585-.1151416-.451882-.2331187-.616409-.3542351-.164424-.1209138-.287562-.2216753-.369722-.3021833l.616306-1.3131405c.070394.0690647.176087.1612184.316978.2764613.14089.1151415.311095.2303844.510612.345526.199724.1151415.425665.2131688.678133.2937781.252261.0805079.537036.1209138.85391.1209138.59876 0 1.059622-.1469397 1.382483-.4407178.322758-.2936768.484189-.641937.484189-1.0451857 0-.2533722-.032307-.4837566-.096817-.691052-.064614-.2072953-.158438-.4060842-.281678-.596164-.123241-.1900798-.278995-.3771215-.466746-.561429-.187854-.1842063-.411008-.3801596-.669152-.587455l-.986235-.8119658c-.340408-.2764613-.639839-.5384413-.898087-.7862438-.258144-.2474986-.478409-.5066431-.660173-.7773322-.182074-.270689-.319971-.5644671-.414001-.881233-.093928-.3166646-.140788-.6823429-.140788-1.0970349 0-.3801596.073387-.7371288.220161-1.0712115.146568-.3340828.354962-.6218861.625079-.863815.270015-.241929.595766-.4319075.977358-.5701381.381488-.1382307.812934-.2072954 1.294232-.2072954.399139 0 .751314.0373679 1.056525.1122048.305314.0749383.566556.1612185.783723.2591445.217168.0980273.390262.1987889.519386.3023859.129227.1036983.229037.1786365.299431.2246121l-.633956 1.1402763zm-13.823586 9.0532466c.223154 0 .422672-.02876.598759-.0863815.176088-.0576214.328745-.1296228.457972-.2160043.129124-.0863815.237708-.1754973.325751-.267651.088044-.0923563.155548-.172763.202511-.241929V23.830032c-.129227-.0806092-.278788-.1497752-.449095-.2073966-.170204-.0576214-.384482-.0862802-.642729-.0862802-.328745 0-.63695.0546846-.924408.1640539-.287664.1094706-.537139.2909426-.748526.5443148-.211284.253271-.378495.5815814-.501839.9847288-.123241.4031475-.184964.8983474-.184964 1.4858023 0 .5760117.049957 1.0568315.14987 1.4425609.099604.3859318.237502.6969255.413589.9329809.176087.2362579.375811.4060841.598759.5096812.223051.1037996.457972.1555474.70435.1555474zm-3.345765-2.9889213c0-.8408271.111578-1.5434236.334629-2.1078907.223051-.5642646.510715-1.0192612.86289-1.3647872s.75121-.5902904 1.197415-.7343946c.446205-.1439017.892204-.2159031 1.338306-.2159031.270118 0 .504729.0201523.704453.0605582.199517.0402033.363838.089217.493065.1468384v-3.9737514l1.42635-.1555474v12.3704784h-1.303109v-.8811318h-.0353c-.035094.0690647-.099604.1640539-.193738.2849678-.093927.1209138-.222947.2419289-.387268.3628428-.164424.1209138-.369825.2246121-.616409.3110949-.246482.0863815-.534146.1295216-.862891.1295216-.399138 0-.777736-.0776725-1.135691-.2333212-.358059-.1554462-.672147-.4030461-.942161-.7429011-.270118-.3396525-.484292-.7775347-.64273-1.3131405-.158437-.5355045-.237811-1.1833151-.237811-1.9435331zm-3.16978 4.0256006v-5.3386398c0-.7025965-.120247-1.2065055-.360845-1.5118281-.240804-.3051201-.607532-.4577308-1.100701-.4577308-.422569 0-.774847.1035971-1.056525.3108924-.281781.2073966-.504832.4088184-.669153.6047717v6.3925346h-1.426452v-8.2930288h1.303109v.932981h.0353c.035197-.069166.111577-.1699275.228934-.3024872.117254-.1323571.270014-.2591445.457765-.3800583.187855-.1210151.411009-.2273464.669256-.3195001.258248-.0922551.551693-.138332.880438-.138332.375708 0 .716013.054786 1.021431.164054.305211.1094706.563356.2851703.774743.5270993.211284.2418277.375708.5557581.493066.9414874.117254.3859319.176087.8610807.176087 1.4255479v5.4422368h-1.426453zm-6.797222 0h-1.303109v-.932981h-.035197c-.0353.069166-.111577.1699275-.229038.3022846-.117254.1325597-.267021.2591445-.448889.3800584-.18197.1210151-.402234.2274476-.660482.3197027-.258248.092255-.545913.1382306-.862787.1382306-.375812 0-.713123-.0546847-1.012555-.164054-.299328-.1095718-.554789-.2851703-.766073-.5270992-.211284-.2418277-.372715-.5557581-.484189-.9415887-.111577-.3858306-.167314-.8609795-.167314-1.4253454v-5.4422368h1.42635v5.3386398c0 .691052.11457 1.1833151.343401 1.4772958.228934.2934743.583999.4404139 1.065401.4404139.410905 0 .757197-.1007615 1.038875-.3023858.281884-.2015231.504832-.4001094.669256-.5960627v-6.357901h1.42635v8.2930288zm-11.270216-7.1527525h-1.849021v4.5957386c0 .587455.076484.9876656.229038 1.200632.152554.2131688.410905.3197026.774846.3197026.211285 0 .393359-.02876.54581-.0863815.152657-.0576214.264234-.1094705.334628-.1554461l.193634 1.1230607c-.058627.0459756-.199518.117977-.422466.2159031-.223154.097926-.522482.1468384-.89819.1468384-.727883 0-1.273795-.1985863-1.637737-.596164-.363838-.3971726-.545809-1.056629-.545809-1.9780654v-4.7858184h-1.021328v-.9329809l1.021328-.2072954.158437-2.3151861h1.267809v2.3151861h2.025212l-.176191 1.1402763zm-6.497894-3.1444687c-.293342 0-.528262-.0921538-.70435-.2763601-.176087-.1843075-.264131-.4261352-.264131-.7256856 0-.2879045.088044-.5241625.264131-.7083687.176088-.1843076.411008-.2764613.70435-.2764613.281781 0 .510715.0921537.686803.2764613.176087.1842062.264131.4204642.264131.7083687 0 .2995504-.088044.5413781-.264131.7256856-.176088.1842063-.405022.2763601-.686803.2763601zm-.721897 10.2972212h1.42635v-8.2930288h-1.42635v8.2930288zm-4.578583-7.3600478c-.504729 0-.90975.2072953-1.215065.6219872-.305314.4145907-.481402 1.0134889-.528262 1.7967959h3.081736c.011664-.0577227.02054-.1411674.026424-.250638.00578-.109268.00867-.2273463.00867-.3541337 0-.5759104-.117254-1.0222992-.352175-1.3390651-.234818-.3165634-.575123-.4749463-1.021328-.4749463zm2.676612 1.8658605c0 .3569693-.011664.6651274-.035094.9242719-.023636.2591445-.046963.4865922-.070497.6825455h-4.314348c.04686.9789565.261138 1.6988698.642832 2.1596387.381489.4606675.930291.6910519 1.646408.6910519.246584 0 .469532-.02876.669153-.0863815.19962-.0576214.372818-.1266861.519592-.2072953.146567-.0806092.269911-.1613197.369825-.2419289.099707-.0806093.173094-.1439017.219954-.1900798l.528366.98483c-.058834.0576214-.146774.1411674-.264132.2505367-.117357.1094706-.275897.2189412-.475518.3284118-.199621.109268-.446205.2043585-.73965.2848665-.293341.0806092-.639839.1210151-1.038875.1210151-.528262 0-1.006774-.0863815-1.435123-.2591445-.428555-.172763-.792393-.4407178-1.091721-.8035606-.299431-.3627415-.531359-.823409-.695783-1.3821039-.16432-.5585936-.246481-1.2294933-.246481-2.012699 0-.7370276.085051-1.3735974.255358-1.909102.170307-.535707.402132-.976121.695576-1.321647.293342-.345526.633956-.6019362 1.021328-.7689269.387372-.1669908.80416-.2505368 1.250262-.2505368.810044 0 1.444103.2505368 1.901868.7515089.457869.5009722.6867 1.2526836.6867 2.2547292zm-8.716741 1.1403776c0-1.0366793-.1584373-1.7883907-.4754154-2.2548305-.316978-.4664398-.7513132-.6995585-1.3031089-.6995585-.4461019 0-.7895034.0921538-1.0301012.27636-.2408042.1843076-.4432118.3743874-.6075326.5701382v5.0967108c.1055905.0691659.2464811.1411674.4225686.2159031.1760874.0749382.3873717.1124073.633956.1124073.3405114 0 .6545994-.0547859.9421607-.1642565.2875613-.109268.5370357-.2934743.7484232-.5528213.2112843-.2591445.375605-.6017337.4929622-1.0278689.1174604-.4261352.1760874-.9502977.1760874-1.5721837zm1.479196-.172763c0 .8868027-.10559 1.6298051-.316874 2.2286021-.211388.5988982-.493066 1.0798193-.845241 1.4425608-.352278.3628428-.7631829.6220886-1.2327149.7775348-.4695321.1556487-.9685842.2333211-1.4968465.2333211-.3405114 0-.6456195-.0316968-.915634-.0949892-.2701177-.0633937-.5048321-.1383319-.7044529-.2247134-.1996208-.0863815-.3668316-.1754973-.5017357-.2677523-.1351104-.0921538-.2378109-.1668894-.3083078-.2246121V18.5777737l1.4264527-.1210151v4.8376676h.0350936c.0588335-.0921537.1438839-.1959533.255461-.3109936.1114739-.1151416.2493712-.2246122.4137952-.3283105.1644239-.103597.3610514-.1900798.5899858-.2591445.2289343-.0690646.4841888-.1036983.76597-.1036983.8687737 0 1.5584665.3196014 2.0691825.9588043.510715.6393041.765866 1.6442864.765866 3.0150484zm-7.7128562-2.5398996c-.0353001-.0229878-.1115771-.0517479-.2290376-.0862802-.1173572-.0345323-.2757946-.0518491-.4754154-.0518491-.4462051 0-.7953867.117977-1.0477512.3541337s-.4314452.4924657-.5371389.768927v6.0815409h-1.4263495v-8.2930288h1.3031089v1.1229595h.0353001c.058627-.1613197.134904-.3197027.2288311-.4751489.093927-.1555474.2112843-.2937781.3521748-.4146919.1408906-.1209139.3081014-.2159031.5018389-.2850691.1938407-.0689634.4255618-.103597.6956796-.103597.1996208 0 .3610514.0173168.484292.0518491.1233438.0346337.2200577.0632925.2905546.0863815l-.1760874 1.2438733zm-8.0300412 2.1078908l-.9509341-3.2653826c-.1292271-.4376797-.2405977-.8552072-.3345248-1.2525823-.0939271-.3973751-.1468771-.7285211-.1585406-.9934378h-.0351969c-.0116634.2649167-.0674004.5902904-.1672108.976121-.0999136.3858306-.2142775.797687-.3434014 1.2353668l-1.003781 3.2999149h2.9935896zm3.1168302 4.9585815h-1.6904807l-1.0918246-3.818204h-3.6802893l-1.1094747 3.818204h-1.5496933l3.9622769-11.9212541h1.197312l3.9621737 11.9212541zm-12.520374-7.0664723c-.0351968-.0229878-.111577-.0517479-.228831-.0862802-.1174605-.0345323-.2758979-.0518491-.4755187-.0518491-.4462051 0-.7953867.117977-1.047648.3541337-.2524676.2361567-.4315484.4924657-.5372421.768927v6.0815409h-1.4264527v-8.2930288h1.3031089v1.1229595h.0353001c.0588334-.1613197.1350072-.3197027.2289343-.4751489.093927-.1555474.2112843-.2937781.3521748-.4146919.1408906-.1209139.3081015-.2159031.5017357-.2850691.1939439-.0689634.425665-.103597.6957828-.103597.1995176 0 .3610515.0173168.484292.0518491.1232406.0346337.2200577.0632925.2904514.0863815l-.1760875 1.2438733zm-6.6916321-3.6108073c0 .2649168-.0821604.4779844-.2464811.6393041-.164424.1612185-.3639416.2417264-.5987592.2417264-.2348177 0-.4343353-.0805079-.5987592-.2417264-.164424-.1613197-.2465844-.3743873-.2465844-.6393041 0-.265018.0821604-.4779843.2465844-.6392028.1644239-.1613197.3639415-.2419289.5987592-.2419289.2348176 0 .4343352.0806092.5987592.2419289.1643207.1612185.2464811.3741848.2464811.6392028zm-2.7119116 0c0 .2649168-.0820572.4779844-.2464811.6393041-.164424.1612185-.3638384.2417264-.5987592.2417264-.2348177 0-.4343353-.0805079-.598656-.2417264-.164424-.1613197-.2465844-.3743873-.2465844-.6393041 0-.265018.0821604-.4779843.2465844-.6392028.1643207-.1613197.3638383-.2419289.598656-.2419289.2349208 0 .4343352.0806092.5987592.2419289.1644239.1612185.2464811.3741848.2464811.6392028zm3.5043051 10.6772796h-1.303109v-.932981h-.0351968c-.0351969.069166-.1115771.1699275-.2288311.3022846-.1173572.1325597-.2671244.2591445-.448992.3800584-.182074.1210151-.4023381.2274476-.6604827.3197027C67.56429 30.9540244 67.2765223 31 66.9595442 31c-.3757082 0-.7131231-.0546847-1.0124511-.164054-.2994312-.1095718-.5546857-.2851703-.7660732-.5270992-.2112843-.2418277-.3728182-.5557581-.4842921-.9415887-.1114739-.3858306-.167314-.8609795-.167314-1.4253454v-5.4422368h1.4264527v5.3386398c0 .691052.1144672 1.1833151.3434015 1.4772958.2289343.2934743.5839992.4404139 1.065298.4404139.4109051 0 .7571966-.1007615 1.0389778-.3023858.2817811-.2015231.5047289-.4001094.6691529-.5960627v-6.357901h1.4263495v8.2930288zm-7.3255882-7.1527525h-1.7256775v7.1527525h-1.4264527v-7.1527525H59v-.9329809l1.0213278-.1900798v-1.6585653c0-.449123.0645103-.8351561.1937374-1.157593.1292271-.3224369.2994312-.5873537.5107155-.7947503.2112843-.2072953.4578686-.3570705.7396498-.4492243.281678-.0921537.5811092-.1382306.8980872-.1382306.3052113 0 .5634592.0404059.7748466.1209138.2112843.0806092.3521749.1441042.4224654.1900798l-.299328 1.1575931c-.0703937-.0459756-.1701009-.0949893-.2992248-.1468384-.1292271-.0519505-.2877677-.0777738-.4755186-.0777738-.3406146 0-.5987592.1036983-.7748467.3110949-.1760874.2071941-.2641311.5873537-.2641311 1.140175v1.4859035h1.9018681l-.1761906 1.1402763zm110.922904-10.2695751V8.03173735c0-.6796087-.099811-1.16903633-.299431-1.4685867-.199518-.29955037-.522276-.44912302-.968585-.44912302-.234817 0-.443211.02876007-.624976.08628022-.182074.05762142-.343401.12952161-.484395.21590311-.140891.0863815-.264131.18147203-.369825.28517033-.10559.10369831-.193634.19585207-.264028.2764613v6.39253451h-1.426453V5.0773484h1.303109v.93298092h.035197c.058834-.09225503.146877-.20435857.264235-.33681695.117357-.13266091.264028-.25934702.440115-.38026086.176191-.12091384.381592-.22167538.616409-.3022846.234921-.08060923.498949-.12101511.792497-.12101511.962494 0 1.64362.36871632 2.042655 1.10574391.082161-.1150403.193738-.23889091.334525-.37155183.140891-.13235711.305315-.25327095.493066-.36274152.187854-.10936931.399241-.19868757.633956-.26775226.234817-.06906469.493065-.1036983.774846-.1036983 1.714014 0 2.571021.9790578 2.571021 2.93717341v5.56325189h-1.426349V8.03173735c0-.6796087-.123344-1.16903633-.369825-1.4685867-.246584-.29955037-.610423-.44912302-1.091721-.44912302-.399242 0-.730774.09498926-.994905.28496779-.264234.19018107-.472628.37155183-.625286.54431482.023534.12668611.041184.26197999.052847.40608418.011664.14390165.01765.29641106.01765.45773079v5.56325189h-1.426349zm-6.621239 0h-1.303109v-.9329809h-.0353c-.035093.069166-.111577.1699275-.228831.3022846-.117357.1325597-.267124.2591445-.448992.3800583-.182074.1210151-.402131.2275489-.660379.3197027-.258248.092255-.546016.1382307-.862994.1382307-.375605 0-.71302-.0546847-1.012348-.164054-.299431-.1094706-.554789-.2851703-.766176-.5270993-.211284-.2418277-.372818-.5557581-.484189-.9415887-.111577-.3857293-.167417-.8608782-.167417-1.4253453V5.0773484h1.426452v5.3386398c0 .6910519.114571 1.1833151.343505 1.4772957.228831.2934743.583896.440414 1.065298.440414.410802 0 .757197-.1007615 1.038875-.3023859.281781-.201523.504832-.4001093.669256-.5960627V5.0773484h1.426349v8.2930287zm-8.804887-10.29722119c-.293342 0-.528263-.09215376-.70435-.27636003-.176088-.18430753-.264028-.42613521-.264028-.72568558 0-.28790456.08794-.52406125.264028-.70826751.176087-.18430753.411008-.27656256.70435-.27656256.281781 0 .510818.09225503.686906.27656256.176087.18420626.264028.42036295.264028.70826751 0 .29955037-.087941.54137805-.264028.72568558-.176088.18420627-.405125.27636003-.686906.27636003zm-.721897 10.29722119h1.42635V5.0773484h-1.42635v8.2930287zm-1.408803-7.06637094c-.035197-.02308908-.111577-.05184915-.228934-.0863815-.117357-.03453234-.275795-.05184915-.475415-.05184915-.446206 0-.795387.11797707-1.047752.35413375-.252467.23615669-.431445.49246567-.537139.76892697v6.08154087h-1.426349V5.0773484h1.303109v1.12295945h.035197c.05873-.16131972.134904-.31960141.228831-.47514886.094133-.15544619.211387-.2937781.352381-.41469194.140788-.12091384.307998-.21590311.501736-.2849678.19384-.06906469.425562-.1036983.695576-.1036983.199724 0 .361052.0173168.484395.05184915.123241.03463361.219955.06339369.290452.0863815l-.176088 1.24397456zm-8.294172-.29367684c-.504626 0-.909751.20729534-1.214962.62198728-.305315.41459068-.481402 1.01348888-.528262 1.79679589h3.081633c.011767-.05762142.020643-.14116742.026423-.25063799.005884-.10926804.008774-.22734638.008774-.35413375 0-.5759104-.117357-1.02219792-.352175-1.33896383-.234818-.31666464-.575123-.4750476-1.021431-.4750476zm2.676715 1.86596185c0 .35696925-.011664.66502612-.035197.92417061-.023533.25914449-.046964.48659214-.070394.68254547h-4.314348c.04686.97895655.261138 1.69886985.642729 2.15963865.381592.4606676.930394.691052 1.646511.691052.246481 0 .469428-.0287601.669152-.0863815.199621-.0576214.372715-.1266861.519489-.2072953.146671-.0806093.269912-.1613198.369825-.241929.099707-.0806092.173198-.1439016.220058-.1900798l.528262.9848301c-.05873.0576214-.146774.1411674-.264028.2505367-.11746.1094706-.275898.2189411-.475518.3284117-.199621.1092681-.446205.2043586-.73965.2849678-.293445.080508-.63984.1209139-1.038875.1209139-.528365 0-1.006774-.0863815-1.435226-.2591445-.428555-.172763-.792393-.4407178-1.091824-.8035606-.299328-.3627415-.531153-.8234091-.695577-1.3821039-.164424-.5584924-.246584-1.22949331-.246584-2.01269904 0-.73702759.085154-1.37349617.255461-1.90910196.170101-.53570705.402028-.97612103.695473-1.32164702.293445-.34552598.633956-.60193624 1.021431-.76892696.387372-.16699073.804057-.25053672 1.250262-.25053672.810043 0 1.443896.25053672 1.901868.75150889.457766.50097217.6867 1.2526836.6867 2.25483048zm-6.920567-1.65866651h-1.849021v4.59573864c0 .5874549.07638.9876656.228934 1.2006319.152658.2131689.410905.3197027.774847.3197027.211388 0 .393255-.0287601.545912-.0863815.152451-.0576214.264028-.1094706.334525-.1554462l.193738 1.1230607c-.058731.0459757-.199724.1179771-.422672.2159031-.222948.0979261-.522276.1468385-.898087.1468385-.727883 0-1.273796-.1985863-1.637634-.596164-.363838-.3971726-.545912-1.056629-.545912-1.9780654V6.21762466h-1.021431v-.93298092l1.021431-.20729534.158437-2.31518613h1.267912V5.0773484h2.025109l-.176088 1.14027626zm-6.128173.53560579c-.093927-.10359704-.264028-.24476446-.510612-.42340099-.246584-.17833272-.569446-.26765099-.968584-.26765099-.375605 0-.66327.08628023-.862787.25904323-.199724.17276299-.299431.38015959-.299431.62208854 0 .31089238.091037.56720137.273007.76872443.181971.20162434.460759.41752745.836364.64791186l.528366.31109491c.575225.33398145 1.027314.69388747 1.355852 1.07971807.328745.38583059.493169.88396729.493169 1.49451129 0 .6565196-.231928 1.2094422-.695576 1.6585652-.463752.4492243-1.129912.6738365-1.998789.6738365-.340511 0-.639839-.0345324-.897984-.1036983-.258248-.0690647-.484292-.1495727-.677926-.2418277-.193634-.0922551-.355168-.1930166-.484395-.3022846-.129124-.1094706-.234818-.2102321-.316875-.3023859l.686699-1.1057439c.070497.0691659.155548.1495726.255461.2419289.099708.0921538.220058.1812695.360949.267651.140787.0863815.299328.158383.475415.2160044.176088.0576214.381488.0863815.616306.0863815.422672 0 .745533-.0921538.968584-.27636.222948-.1842063.334525-.4089197.334525-.6738365 0-.195852-.02632-.3657795-.079167-.5097824-.052744-.1438004-.132117-.2735246-.237811-.3885649-.105694-.1152428-.234818-.2247134-.387372-.3284117-.152657-.103597-.328744-.21873859-.528262-.34552597l-.528365-.32820918c-.528263-.33408271-.942058-.68538097-1.241386-1.05389476-.299328-.36861506-.449095-.84082716-.449095-1.41673756 0-.31099364.061723-.59616397.185067-.85530846.123137-.25894195.296335-.4835541.519386-.67383643.222948-.18997853.484292-.33965245.783723-.44922429.299225-.10926803.619093-.16405395.959501-.16405395.328745 0 .610423.03169684.845344.09498926.234817.06349496.437225.14410419.607636.24192895.1701.09792604.310991.19585207.422568.29367684.111371.0980273.202408.18147203.272905.25063798l-.61641 1.00204562zm-6.533194-3.68007454c-.293342 0-.528263-.09215376-.70435-.27636003-.176088-.18430753-.264131-.42613521-.264131-.72568558 0-.28790456.088043-.52406125.264131-.70826751.176087-.18430753.411008-.27656256.70435-.27656256.281884 0 .510818.09225503.686906.27656256.176087.18420626.264028.42036295.264028.70826751 0 .29955037-.087941.54137805-.264028.72568558-.176088.18420627-.405022.27636003-.686906.27636003zm-.721794 10.29722119h1.42635V5.0773484h-1.42635v8.2930287zm-3.557255 0V8.03173735c0-.70249524-.12035-1.20650545-.360948-1.51182809-.240804-.3051201-.607636-.45773079-1.100701-.45773079-.422569 0-.774847.10359704-1.056525.31089238-.281781.2073966-.504729.40891967-.669153.60477174v6.39253451h-1.426349V5.0773484h1.303109v.93298092h.035196c.035197-.06916595.111577-.16992749.228935-.30238587.117254-.13245838.270014-.25924575.457765-.3801596.187854-.12091384.411008-.22734637.669256-.31950014.258248-.09225503.551796-.13833191.880437-.13833191.375709 0 .716014.05478592 1.021328.16405395.305315.10957184.563459.28517033.774847.52709929.211284.24182768.375708.55575809.493168.94148742.117254.38593186.176088.86108073.176088 1.42554786v5.44223678h-1.426453zm-7.501675-10.29722119c-.293445 0-.528366-.09215376-.704453-.27636003-.176088-.18430753-.264028-.42613521-.264028-.72568558 0-.28790456.08794-.52406125.264028-.70826751.176087-.18430753.411008-.27656256.704453-.27656256.281781 0 .510715.09225503.686802.27656256.176088.18420626.264028.42036295.264028.70826751 0 .29955037-.08794.54137805-.264028.72568558-.176087.18420627-.405021.27636003-.686802.27636003zm-.722 10.29722119h1.426349V5.0773484h-1.426349v8.2930287zm-7.994845 0V8.03173735c0-.6796087-.099604-1.16903633-.299224-1.4685867-.199724-.29955037-.522482-.44912302-.968584-.44912302-.234818 0-.443212.02876007-.624977.08628022-.182074.05762142-.343608.12952161-.484395.21590311-.14089.0863815-.264131.18147203-.369825.28517033-.10559.10369831-.193737.19585207-.264131.2764613v6.39253451h-1.426453V5.0773484h1.303109v.93298092h.0353c.058731-.09225503.146774-.20435857.264131-.33681695.117358-.13266091.264132-.25934702.440219-.38026086.176088-.12091384.381592-.22167538.616306-.3022846.234818-.08060923.499052-.12101511.792497-.12101511.962597 0 1.64362.36871632 2.042758 1.10574391.082058-.1150403.193635-.23889091.334525-.37155183.140891-.13235711.305315-.25327095.493066-.36274152.187854-.10936931.399035-.19868757.633956-.26775226.234817-.06906469.493065-.1036983.774846-.1036983 1.714015 0 2.570918.9790578 2.570918 2.93717341v5.56325189h-1.426246V8.03173735c0-.6796087-.123344-1.16903633-.369825-1.4685867-.246584-.29955037-.610526-.44912302-1.091928-.44912302-.399035 0-.73067.09498926-.994801.28496779-.264131.19018107-.472628.37155183-.625183.54431482.023534.12668611.041184.26197999.052847.40608418.011664.14390165.017547.29641106.017547.45773079v5.56325189h-1.426453zm-6.95566-6.61714665c-.093927-.10359704-.264234-.24476446-.510818-.42340099-.246378-.17833272-.569343-.26765099-.968378-.26765099-.375811 0-.66327.08628023-.862994.25904323-.199517.17276299-.299328.38015959-.299328.62208854 0 .31089238.091037.56720137.273008.76872443.181868.20162434.460656.41752745.836467.64791186l.528262.31109491c.575123.33398145 1.027212.69388747 1.355956 1.07971807.328642.38583059.493066.88396729.493066 1.49451129 0 .6565196-.231928 1.2094422-.695473 1.6585652-.463752.4492243-1.130015.6738365-1.998789.6738365-.340511 0-.639942-.0345324-.89819-.1036983-.258145-.0690647-.484292-.1495727-.677823-.2418277-.193738-.0922551-.355169-.1930166-.4842924-.3022846-.1292272-.1094706-.2349209-.2102321-.3170813-.3023859l.6869057-1.1057439c.070291.0691659.155548.1495726.255358.2419289.099707.0921538.220058.1812695.360845.267651.140994.0863815.299431.158383.475519.2160044.176087.0576214.381488.0863815.616409.0863815.422569 0 .74543-.0921538.968378-.27636.223051-.1842063.334731-.4089197.334731-.6738365 0-.195852-.026423-.3657795-.07927-.5097824-.052847-.1438004-.132117-.2735246-.237811-.3885649-.105591-.1152428-.234818-.2247134-.387372-.3284117-.152554-.103597-.328641-.21873859-.528262-.34552597l-.528366-.32820918c-.528262-.33408271-.94216-.68538097-1.241282-1.05389476-.299431-.36861506-.4491983-.84082716-.4491983-1.41673756 0-.31099364.0617235-.59616397.1849643-.85530846.12324-.25894195.296438-.4835541.519385-.67383643.223051-.18997853.484396-.33965245.783724-.44922429.299328-.10926803.619196-.16405395.959707-.16405395.328642 0 .610423.03169684.845137.09498926.234921.06349496.437432.14410419.607636.24192895.170307.09792604.311095.19585207.422672.29367684.111474.0980273.202511.18147203.272801.25063798l-.616203 1.00204562zm-8.223675-.74290113c-.5048321 0-.9098539.20729534-1.2151684.62198728-.3053146.41459068-.481402 1.01348888-.5282623 1.79679589h3.0817365c.0116635-.05762142.0205401-.14116742.0265266-.25063799.0056769-.10926804.0086702-.22734638.0086702-.35413375 0-.5759104-.1173572-1.02219792-.3522781-1.33896383-.2347144-.31666464-.5751226-.4750476-1.0212245-.4750476zm2.6766116 1.86596185c0 .35696925-.0117667.66502612-.0351969.92417061-.0235333.25914449-.0468603.48659214-.0704969.68254547h-4.3143485c.0468603.97895655.261241 1.69886985.6428326 2.15963865.3814884.4606676.9302908.691052 1.6464072.691052.2465844 0 .4696353-.0287601.6691529-.0863815.199724-.0576214.3728182-.1266861.5196953-.2072953.1464643-.0806093.2698081-.1613198.3697217-.241929.0997072-.0806092.1730942-.1439016.2199545-.1900798l.5283655.9848301c-.0587302.0576214-.1467739.1411674-.2641311.2505367-.1173573.1094706-.2758979.2189411-.4754155.3284117-.1996208.1092681-.4462051.2043586-.7396498.2849678-.2934446.080508-.6399426.1209139-1.0389778.1209139-.5282623 0-1.006671-.0863815-1.4351229-.2591445-.4285551-.172763-.7923934-.4407178-1.0917214-.8035606-.2994312-.3627415-.5313588-.8234091-.6957828-1.3821039-.1643207-.5584924-.2463779-1.22949331-.2463779-2.01269904 0-.73702759.0850505-1.37349617.2552545-1.90910196.1703074-.53570705.4021317-.97612103.6955764-1.32164702.2934446-.34552598.633956-.60193624 1.0213277-.76892696.387475-.16699073.8041602-.25053672 1.2502621-.25053672.8100435 0 1.4441027.25053672 1.9018681.75150889.4578687.50097217.686803 1.2526836.686803 2.25483048zM87.7213468 12.3336979c.2229477 0 .4225685-.0287601.598656-.0863815.1760874-.0576214.3286415-.1296229.4578686-.2160044.1291239-.0863815.2378109-.1754972.3258546-.267651.0880438-.0923563.1555474-.172763.2024077-.2419289V6.40770446c-.1292271-.08060923-.2787879-.14977519-.448992-.20739661-.1703073-.05752015-.3845849-.08628022-.6428327-.08628022-.3286415 0-.6368461.05468465-.9244074.16405395-.2876645.10947057-.5371389.2909426-.7484232.54431482-.2113875.25327096-.3785983.5815814-.5018389.98472881-.1233437.40324867-.184964.89834731-.184964 1.48580224 0 .57601167.0498536 1.05683155.1497672 1.44256085.0997072.3859319.2377077.6969255.4137952.9329809.1760874.236258.375605.4060842.5986559.5097825.223051.1036983.4578687.1554462.704453.1554462zm-3.3458677-2.9889213c0-.84072589.1115771-1.54342366.3345249-2.10778952.2230509-.56436586.5107154-1.01936242.8628903-1.3648884.3521749-.34552599.7512101-.59029044 1.1975184-.73439463.4461019-.14390164.8921007-.2159031 1.3383058-.2159031.2700145 0 .5047289.0201523.7043497.06065945.1996208.04010208.3638384.08911573.4930655.14673715V1.15544619L90.7324832 1v12.3703771h-1.3031089v-.8811317h-.0351969c-.0351968.0690646-.0997072.1640539-.1936342.2849677-.0940303.1209139-.223051.241929-.387475.3628428-.1644239.1209139-.3698249.2246122-.616306.3110949-.2465843.0863815-.5342488.1295217-.8628903.1295217-.3991384 0-.7777367-.0776725-1.1356917-.2333212-.3581615-.1554462-.6721462-.4030462-.9422639-.7429011-.2700145-.3396525-.4841889-.7775348-.6427295-1.3130393-.1584374-.5356058-.2377077-1.1834164-.2377077-1.9436343zm-3.169677 4.0256005V8.03173735c0-.70249524-.1203505-1.20650545-.3609483-1.51182809-.2408042-.3051201-.6076358-.45773079-1.1008045-.45773079-.4225685 0-.7747434.10359704-1.0565246.31089238-.281678.2073966-.5047289.40891967-.6691529.60477174v6.39253451h-1.4264527V5.0773484h1.3031089v.93298092h.0353001c.0351968-.06916595.1115771-.16992749.2289343-.30238587.1173572-.13245838.2700145-.25924575.4578686-.3801596.1877509-.12091384.4109051-.22734637.6691529-.31950014.2582478-.09225503.5518989-.13833191.8804372-.13833191.3758114 0 .7161164.05478592 1.021431.16405395.3053145.10957184.5634591.28517033.7748466.52709929.2111811.24182768.375605.55575809.4930655.94148742.1173572.38593186.1760874.86108073.1760874 1.42554786v5.44223678h-1.4263495zm-6.7974291 0h-1.303109v-.9329809h-.0351968c-.0351968.069166-.1115771.1699275-.2288311.3022846-.1173572.1325597-.2671244.2591445-.448992.3800583-.182074.1210151-.4023381.2275489-.6604827.3197027-.2581446.092255-.5459123.1382307-.8628903.1382307-.3757083 0-.7131232-.0546847-1.0124512-.164054-.2994312-.1094706-.5546857-.2851703-.7660732-.5270993-.2112843-.2418277-.3728182-.5557581-.4842921-.9415887-.1114738-.3857293-.167314-.8608782-.167314-1.4253453V5.0773484h1.4264527v5.3386398c0 .6910519.1144672 1.1833151.3434015 1.4772957.2289343.2934743.5839992.440414 1.065298.440414.4109051 0 .7571966-.1007615 1.0389778-.3023859.2817812-.201523.5047289-.4001093.6691529-.5960627V5.0773484h1.4263495v8.2930287zm-9.4386374-3.3345485c0-.64497511-.2142776-1.15455506-.6427295-1.52914492-.4285551-.37418479-1.0418678-.56142909-1.8402478-.56142909h-1.0389778v4.18114801h.9509341c.9039705 0 1.5584666-.1756998 1.9634884-.5270993.4050217-.3510957.6075326-.8724228.6075326-1.5634747zm-.2290375-5.49408598c0-.55292259-.1996208-1.00791915-.598656-1.36488841-.3991384-.35707052-1.0273143-.53550451-1.8843214-.53550451h-.8099402v4.11188075h.7923934c.821707 0 1.4439996-.19595334 1.8665681-.58745494.4226718-.39160287.6339561-.93298092.6339561-1.62403289zm1.5496932-.05184915c0 .41469194-.0528468.77743346-.1584374 1.0884271-.1056937.31109491-.2494744.5787459-.4313419.80335805-.182074.22461214-.3934615.40608417-.6340593.54431482-.240701.13812938-.4902786.24192895-.7484232.31099364v.03453234c.316978.05772269.613416.16699073.8892106.32820918.2758978.16131973.5164956.36284279.7222062.60477174.2052977.24192895.3697217.52689675.4929622.85510593.1232406.32851298.1848609.68831774.1848609 1.07992063 0 .4723133-.0821604.9042208-.2465844 1.2957224-.1643207.3917042-.4195752.7315591-.7660732 1.0194637-.3461883.2879046-.7835168.5124154-1.3117791.6737352-.5283656.1613197-1.156335.2419289-1.8842181.2419289h-2.4829774V1.44912302h2.3419835c.7161165 0 1.3296356.07200146 1.8403511.21590311.5107155.14400291.9302908.34846275 1.2590355.61348078.3286415.26491675.5664524.5844169.7132264.95870296.1466707.37448859.2200576.79211731.2200576 1.2526836z"/><path fill="#F2CC00" d="M46.857 60H49v30h-5V60z"/><path fill="#DB2A1B" d="M46.857 31H49v30h-5V31z"/><path fill="#131413" d="M49 2v30h-5V2zM20.5273573 12.1853338c.039704-.3285829.0623485-.6684362.0623485-1.015564 0-.1893425.0015231-.40891-.0212229-.6584978 2.9009283-.041598 5.4458409-2.15018428 5.4458409-4.57598065 0-1.23441437-.7976334-2.16616772-1.2482887-2.72190009.1016462-.02161864.2032924-.04610611.3056495-.07120833.425066.3730497 1.6313151 1.69793451 1.6313151 3.37179139 0 2.91001303-2.8830563 5.61121658-6.1756424 5.67135948zM17.6041908 2.05069752c-.0540218-.32438213-.1762815-.61823177-.3625145-.87007361.0092406-.29702584.1301803-.5803223.6035816-.34723028-.2559942.2646491-.0583882.73247248-.0583882.73247248s.5239705-.24538699.415927-.59394922c.7770198.18790803.2182195 1.24076677-.5986059 1.07878063zm-.6745613 1.4938381c-.1037786-.43462697-.3241306-.88144645-.6058155-1.21781617-.2556895-.30481264-.6795369-.66700179-1.2496087-.66700179-.2608683 0-.6973073.12264227-.9752351.2409813-.104591-.19005965-.3070711-.65060851-.3070711-.85788111 0-.21290779.3575388-.42888932 1.039919-.42888932 1.5021504 0 2.3999068.68575161 2.3999068 1.83410123 0 .4030699-.1585112.7709967-.3020954 1.09650586zm3.8584946 19.53720988c.1741491 0 .2595481.0287907.360382.0660854.4329865 1.187796 2.0991315 3.4269138 2.1689942 3.5230195l.0155364.0200817.0248784-.0056351c.4081081-.0660855 1.4521904-.2254077 2.32649-.2254077h.0192935c.0951474 0 .2026832 0 .2714289.0674174.0562558.0574789.0845867.1579903.0845867.2997922 0 .21967-.0923041.5939492-.20248.7547058-.3063603-.3371893-.8026091-.4877002-1.5965869-.4877002-.2395439 0-.5217366.0716182-.6746629.1119866l-.0624499.0141392-.0718937.0186474.4592866.4633152c.7072587.7130055 1.3192684 1.3283684 1.3192684 1.7386104 0 .2467189-.2387315.5682322-.4583727.711571-.0469136-.7517346-.7989534-1.7558233-1.5304813-2.318113l-.0627546-.0473356-.0119823.2639319c-.0106621.1793016-.0263.4488686-.0263.7358536 0 1.4302117-.1436857 1.6468079-.6348573 1.6468079-.0752446 0-.1903963-.0214137-.2621884-.04877.2765062-.344259.3859713-.8005046.3859713-1.5994723l-.0042648-.3685416-.0035541-.2970258c0-.327046.0334082-.5695642.0597083-.7645418l.0142162-.1105522-.0774786-.0099385c-.2295925-.0329915-.6568925-.0919048-.9831555-.0919048-.6994397 0-1.1741611.0645485-1.5183975.391697-.2266477-.1851416-.4598958-.5034787-.4598958-.7058334 0-.2983578.184202-.3213083.425066-.3213083.1222598 0 .2360913.0172129.3937902.0372947.3008769.0444668.7543754.1117817 1.6869617.1117817h.0574743l-.0177704-.0571716c-.2367006-.6828828-.8856726-1.6757011-1.9270132-2.9523282.0938272-.3413902.1856236-.5651585.5132068-.5651585zm-8.9887346 3.5174867l-.0185826.0571716h.0576773c.9325863 0 1.3868972-.0673149 1.6876725-.1117817.1576989-.0200818.2707181-.0372947.3929779-.0372947.2409655 0 .4258784.0229505.4258784.3213083 0 .2023547-.2340605.5206918-.4598959.7058334-.3442364-.3271485-.819567-.391697-1.5183975-.391697-.3270754 0-.7542738.0589133-.9839679.0919048l-.0361499.0042008-.0405163.0057377.0134039.1105522c.0271124.1949776.0604191.4374958.0604191.7645418l-.0042649.2970258-.0034525.3685416c0 .7989677.1087543 1.2552133.3859713 1.5994723-.0717921.0273563-.1876546.04877-.2628992.04877-.4913746 0-.6341464-.2165962-.6341464-1.6468079 0-.286985-.0156379-.556552-.0256908-.7358536l-.0135055-.2653663-.06245.04877c-.7309185.5622897-1.48366919 1.5663784-1.52905966 2.318113-.22045349-.1433388-.45867729-.4648521-.45867729-.711571 0-.410242.61079121-1.0256049 1.31804985-1.7386104l.4073972-.4103444.0511786-.0529708-.1336328-.0327866c-.1522155-.0403684-.43440815-.1119866-.67466284-.1119866-.79407935 0-1.28961736.1505109-1.59658691.4877002-.10946516-.1607566-.20187081-.5350358-.20187081-.7547058 0-.1418019.0277217-.2423133.08377436-.2997922.06965964-.0674174.17699236-.0674174.27173354-.0674174h.01969967c.87358883 0 1.91858509.1593222 2.32669309.2254077l.0241676.0056351.0156379-.0200817c.070472-.0961057 1.736617-2.3352235 2.1696035-3.5230195.0994123-.0372947.186233-.0660854.3595697-.0660854.3283955 0 .4194811.2237683.5140192.5651585-1.042153 1.2766271-1.6904142 2.2694454-1.9271149 2.9523282zM7.29821879 6.51397432c0-1.67385688 1.20645226-2.99874169 1.63141672-3.37179139.10245858.02510222.2041048.04958969.30575102.07120833-.45146762.55573237-1.24828868 1.48748572-1.24828868 2.72190009 0 2.44936172 2.59456795 4.57741505 5.53184915 4.57741505-.0184811.2095267-.0291433.4304262-.0291433.6570634 0 .3614719.0199028.6984564.0554434 1.015564-3.3219324-.0200818-6.24702831-2.74064993-6.24702831-5.67135948zM29.5813851 11.6746829c1.489965 2.3783583 2.657221 2.3381948 4.4186149 2.3381948-1.4578769-1.1275507-2.4218405-2.570672-2.8810255-3.3078576L28.3963587 6.309673c-.2658439-1.35777384-.9617296-2.62651166-2.0031718-3.57045751.3498215-.13411756.6412547-.27468998.8168254-.40891-1.7778441 0-3.5394411-.91074945-4.5089897-.91074945-.6233827 0-1.0243827.3757136-1.0243827.87273752.0405164.55306845.6049017 1.116895 1.6484763 1.116895.2367006 0 .538796-.03165953.8708471-.08688441.5651977.79476696 1.0207271 1.51279285 1.0207271 2.53768055 0 1.92436676-2.2803888 3.42414743-4.5820004 3.42414743-.1302818 0-.2537601-.00502044-.3840419-.01516379-.2088774-.47622493-.9019198-1.27806149-.9019198-2.18819619 0-1.52918613.9880297-2.77794463.9880297-4.29288909 0-.94087211-.4549202-1.52334603-.6297801-1.76576173.2828019-.2646491.592107-.59036318.6637975-.81279957-.1641977.07120833-.3582496.08114676-.6432855.08114676C18.6243086.29046852 17.7249274 0 16.8478861 0c-.4998029 0-.6347558.15635096-.6347558.3049151 0 .05368801.0084282.1096301.0226445.13688394-.1869438-.074487-.3617021-.12202752-.5700718-.16126895-.2579235-.04958969-.5373744-.0746919-.8338849-.0746919-1.0655082 0-1.4443714.45112271-1.4443714.83697966 0 .3271485.2550802.92386408.5445841 1.37785562.4158254-.21014142.9141051-.35358267 1.1421745-.35358267.5650961 0 1.068453.54374478 1.3350078 1.18779597-.3802848.04579874-.4534985.06301169-.8380482.06301169-1.0370758 0-1.7430143-.3749964-1.8887309-.3749964-.0143178 0-.0418364.00717206-.0418364.03012266 0 .14702728.2941749.53503585.8742996.7487633.7635144.28186205 1.9086337.39948387 2.0991315.4311434 0 .03370869-.1940519.39876666-.4102405.46843812-.0461013.01485642-.0816419.01639329-.1349529.0056352-.7984457-.15921979-1.0208286-.22653471-2.0331274-.61536295-.0311742-.01157775-.0489445.00788927-.0489445.0407783 0 .40368465 1.0363649 1.29547936 1.9646863 1.63686952-.7754967.99917073-1.7444359 2.02118961-2.2006762 3.57967873-.1294694.01014335-.2544709.01516379-.3846512.01516379-2.3016116 0-4.58220339-1.49978067-4.58220339-3.42414743 0-1.0248877.45634176-1.74291359 1.02153941-2.53768055.33194958.05522488.63333418.08688441.87003478.08688441 1.0436761 0 1.6085692-.56382655 1.6499994-1.116895 0-.49702392-.4009999-.87273752-1.0258043-.87273752-.9695485 0-2.72972392.91074945-4.50898969.91074945.17557074.13422002.46700395.27479244.81672381.40891-1.04134063.94394585-1.73722628 2.21268367-2.00307023 3.57045751l-2.72200653 4.3953471C2.42397291 11.4422057 1.45706452 12.885327 0 14.0128777c1.76139391 0 2.92936075.0401635 4.42003656-2.3381948l1.3954269-2.25366684c.10377866.29262014.23111568.57745347.38018326.85634424l-2.7758252 4.4814119c-.46202826.7431281-1.41878218 2.1747742-2.8824471 3.30796 1.76149545 0 2.92936074.0417004 4.41922419-2.3354284l2.38995544-3.8601064c.17841399.1923138.36688091.3802218.56519766.5595234l-3.37229862 5.4467714c-.46344989.7443576-1.41522811 2.1718029-2.88183784 3.3049888 1.761597 0 2.92936075.0430323 4.41942729-2.335326l3.28689954-5.3106047c.21679788.1377036.43877454.2726408.66765622.3988691l-4.01294395 6.4782165c-.46263753.7458945-1.41512657 2.1689341-2.88102548 3.3049887 1.76149546 0 2.92946229.041598 4.41942729-2.3353259l4.13144664-6.6731941c.244418.0945688.4925932.1849368.7450332.2668007L7.76461347 22.516587c-.45644331.7345216-1.43025673 2.1832782-2.88051776 3.3050912 1.76088619 0 2.92885303.0400611 4.41881802-2.3354284l4.97599367-8.0360908c.0503661.0087089.1008338.0172129.1498799.0273563.1357652.4346269.2304049.8392337.2304049 1.243738 0 2.5246684-1.6420789 4.7553847-3.6132641 6.4765772.1258138.0560445.3454549.0746919.5486458.0746919.4066864 0 .6697887-.0214138.8536861-.0545077-.456951 1.0471211-1.4372633 2.3999769-1.9326998 3.1000727-.64551946-.1177243-1.5836907-.2095267-2.19874679-.2095267-.64318396 0-.71578841.3802217-.71578841.7185382 0 .5896459.27295209 1.0586988.59149773 1.3198643.11860418-.3012266.35896042-.7042965 1.54754083-.7042965.02264446 0 .06387159.0027664.11931499.0071721-.34758742.3901602-1.43502933 1.2766271-1.43502933 1.9909645 0 .4734585.5146284 1.1820583 1.19203292 1.1820583-.04061787-.1520477-.03482982-.2926202-.03482982-.3973323 0-.5795026.50741878-1.2566477.93695268-1.728467-.0127946.1405725-.0063973.1262283-.0063973.2896489 0 1.3686344.1228691 1.996907.9831555 1.996907.4221212 0 .7135545-.2339116.8136775-.3040954-.5592065-.5193598-.5878421-.9267329-.5878421-1.694246.0015232-.1993833.002234-.3944634.0049757-.664133.002234-.1749983-.0006093-.4072707-.0290418-.5751994.3083912-.0430324.4329865-.0430324.6696871-.0430324 0 0 1.2225979-.09754 1.5168744.5436424.3319495-.3069643.8139821-.7402593.8139821-1.2179187 0-.3154682-.1486614-.6727394-.7784415-.6727394-.2381223 0-.9880297.1477445-1.6157788.1477445.1684626-.3786849.9191823-1.4861538 1.5696775-2.2895272.0979906.3112675.2515262.6484569.5928178.9238641.0469137-.516491.3474859-2.1516187 1.1479626-3.1070399.0931164.6453832.2189303 1.3081842.2189303 2.7054044 0 3.3982255-.8096157 5.9086522-2.5292748 6.3878485.223906.393029.6967996.7458944 1.1880727.7458944.6282569 0 .9715795-.7173086 1.3205885-1.3943513C15.9940985 30.7749093 16.4967446 32 17 32s1.0066124-1.2250907 1.1885804-1.7242662c.349009.6770427.6916208 1.3943513 1.32069 1.3943513.4912732 0 .9646744-.3528654 1.1885804-.7458944-1.7195575-.4791963-2.5299855-2.989623-2.5299855-6.3878485 0-1.3972202.1252046-2.0600212.2182195-2.7054044.8011875.9554212 1.1025721 2.5905489 1.1488764 3.1070399.3411901-.2754072.495335-.6125966.5934271-.9238641.6497844.8033734 1.4004026 1.9108423 1.5696776 2.2895272-.62846 0-1.3783674-.1477445-1.6165912-.1477445-.6289677 0-.7776291.3572712-.7776291.6727394 0 .4776594.4820325.9109544.8139821 1.2179187.2935656-.6411824 1.5168743-.5436424 1.5168743-.5436424.2367006 0 .3610929 0 .6697887.0430324-.0285341.1679287-.0306665.4002011-.0293464.5751994.0029447.2696696.0036556.4647497.0044679.664133 0 .7675131-.028534 1.1748862-.5873344 1.694246.1003262.0701838.3917594.3040954.8131698.3040954.8608957 0 .9838663-.6282726.9838663-1.996907 0-.1634206.0049757-.1490764-.0063973-.2896489.4287216.4718193.9369527 1.1489644.9369527 1.728467 0 .1047121.0057881.2452846-.0355406.3973323.6782168 0 1.1927437-.7085998 1.1927437-1.1820583 0-.7143374-1.0875434-1.6008043-1.4358417-1.9909645.0567635-.0044057.0966706-.0071721.1194166-.0071721 1.1892912 0 1.4289366.4030699 1.5482516.7042965.3177333-.2611655.5905838-.7302184.5905838-1.3198643 0-.3383165-.0716905-.7185382-.7150776-.7185382-.614853 0-1.5532273.0918024-2.1992545.2095267-.4954365-.7000958-1.4750379-2.0529516-1.9328013-3.1000727.1839989.0330939.447812.0545077.853686.0545077.2040033 0 .4229336-.0186474.5494583-.0746919-1.9711852-1.7211925-3.613975-3.9519088-3.613975-6.4765772 0-.4045043.0952489-.8091111.2303034-1.243738.049046-.0101434.1002245-.0186474.1506922-.0273563l4.9752829 8.0360908c1.4898634 2.3754895 2.6586426 2.3354284 4.4187165 2.3354284-1.450058-1.121813-2.4240745-2.5705696-2.8790962-3.3050912l-4.6702426-7.5396817c.2530493-.0818639.501123-.1722319.7457441-.2668007l4.1315481 6.6731941c1.4897619 2.3769239 2.6571195 2.3353259 4.4192242 2.3353259-1.4664066-1.1360546-2.4181849-2.5590942-2.881127-3.3049887l-4.0126393-6.4782165c.2280693-.1262283.4507568-.2611655.6660315-.3988691l3.2884227 5.3106047c1.4905742 2.3783583 2.657221 2.335326 4.4180056 2.335326-1.4650865-1.1331859-2.4169663-2.5606312-2.881127-3.3049888l-3.3715878-5.4467714c.1983168-.1793016.3874945-.3672096.5643853-.5595234l2.3905647 3.8601064c1.4900666 2.3771288 2.657221 2.3354284 4.4194273 2.3354284-1.4650865-1.1331858-2.419708-2.5648319-2.8824471-3.30796l-2.7758252-4.4814119c.1491691-.27889077.2764046-.5637241.3801833-.85634424l1.3954269 2.25366684z"/></g></svg>