<?xml version="1.0" encoding="UTF-8"?>
<svg fill="none" version="1.1" viewBox="0 0 1419 532" xmlns="http://www.w3.org/2000/svg">
<path d="m41.492 1.4807c-1.3257-1.5166-2.741-1.6403-4.6212-1.3634 4.5326 4.8519 8.974 9.6062 13.455 14.403-4.4163 4.6199-8.7927 9.198-13.277 13.889 1.9926 0.3541 3.3901 0.0248 4.6997-1.4355 3.3491-3.7347 6.8943-7.2953 10.356-10.93 1.4451-1.5171 1.4476-1.5474-0.0168-3.1211-3.5415-3.8058-7.1765-7.5303-10.596-11.442z" fill="url(#a)"/>
<path d="m4.6211 1.4807c-1.3256-1.5166-2.7407-1.6403-4.6211-1.3634 4.5326 4.852 8.974 9.6062 13.455 14.403-4.4163 4.6199-8.7927 9.198-13.277 13.889 1.9924 0.3541 3.39 0.0248 4.6995-1.4355 3.3494-3.7347 6.8945-7.2953 10.357-10.93 1.4449-1.5171 1.4476-1.5474-0.0168-3.1211-3.5416-3.8058-7.1765-7.5303-10.596-11.442z" fill="url(#a)"/>
<path d="m23.057 34.946c-1.3257-1.5166-2.7408-1.6404-4.6211-1.3633 4.5325 4.8518 8.9739 9.6062 13.455 14.403-4.4164 4.62-8.7927 9.198-13.277 13.889 1.9926 0.3542 3.39 0.0248 4.6996-1.4354 3.3492-3.7349 6.8944-7.2954 10.356-10.93 1.4451-1.5171 1.4478-1.5475-0.0168-3.1211-3.5415-3.8059-7.1764-7.5304-10.596-11.442z" fill="url(#a)"/>
<path d="m78.422 1.4808c-1.3257-1.5166-2.7408-1.6404-4.6211-1.3634 4.5325 4.8519 8.9739 9.6062 13.455 14.403-4.4164 4.6199-8.7927 9.198-13.277 13.889 1.9924 0.3541 3.39 0.0248 4.6996-1.4355 3.3492-3.7347 6.8944-7.2953 10.356-10.93 1.4451-1.5171 1.4478-1.5474-0.0168-3.1211-3.5415-3.8058-7.1764-7.5302-10.596-11.442z" fill="url(#a)"/>
<path d="m59.986 34.946c-1.3256-1.5166-2.7407-1.6404-4.6211-1.3633 4.5326 4.8518 8.974 9.6062 13.455 14.403-4.4165 4.62-8.7927 9.198-13.277 13.889 1.9924 0.3542 3.39 0.0248 4.6995-1.4354 3.3494-3.7349 6.8945-7.2954 10.357-10.93 1.4449-1.5171 1.4476-1.5475-0.0168-3.1211-3.5416-3.8059-7.1765-7.5304-10.596-11.442z" fill="url(#a)"/>
<path d="m115.3 1.4808c-1.326-1.5166-2.741-1.6404-4.621-1.3634 4.532 4.8519 8.974 9.6062 13.454 14.403-4.416 4.6199-8.792 9.198-13.277 13.889 1.992 0.3541 3.39 0.0248 4.699-1.4355 3.35-3.7347 6.895-7.2953 10.357-10.93 1.445-1.5171 1.448-1.5474-0.017-3.1211-3.541-3.8058-7.176-7.5302-10.595-11.442z" fill="url(#a)"/>
<path d="m96.871 34.946c-1.3256-1.5166-2.7408-1.6404-4.6212-1.3633 4.5327 4.8518 8.974 9.6062 13.455 14.403-4.417 4.62-8.7929 9.198-13.278 13.889 1.9924 0.3542 3.39 0.0248 4.6995-1.4354 3.349-3.7349 6.894-7.2954 10.357-10.93 1.444-1.5171 1.447-1.5475-0.017-3.1211-3.542-3.8059-7.177-7.5304-10.596-11.442z" fill="url(#a)"/>
<path d="m152.23 1.4808c-1.325-1.5166-2.74-1.6404-4.621-1.3634 4.533 4.8519 8.974 9.6062 13.455 14.403-4.416 4.6199-8.793 9.198-13.277 13.889 1.992 0.3541 3.39 0.0248 4.699-1.4355 3.35-3.7347 6.895-7.2953 10.357-10.93 1.445-1.5171 1.447-1.5474-0.017-3.1211-3.542-3.8058-7.176-7.5302-10.596-11.442z" fill="url(#a)"/>
<path d="m133.8 34.946c-1.326-1.5166-2.741-1.6404-4.621-1.3633 4.532 4.8518 8.974 9.6062 13.454 14.403-4.416 4.62-8.792 9.198-13.277 13.889 1.992 0.3542 3.39 0.0248 4.7-1.4354 3.349-3.7349 6.894-7.2954 10.356-10.93 1.445-1.5171 1.448-1.5475-0.017-3.1211-3.541-3.8059-7.176-7.5304-10.595-11.442z" fill="url(#a)"/>
<path d="m189.12 1.4808c-1.325-1.5166-2.741-1.6404-4.621-1.3634 4.533 4.8519 8.974 9.6062 13.455 14.403-4.417 4.6199-8.793 9.198-13.277 13.889 1.992 0.3541 3.39 0.0248 4.699-1.4355 3.349-3.7347 6.895-7.2953 10.357-10.93 1.445-1.5171 1.447-1.5474-0.017-3.1211-3.542-3.8058-7.177-7.5302-10.596-11.442z" fill="url(#a)"/>
<path d="m170.68 34.946c-1.326-1.5166-2.741-1.6404-4.622-1.3633 4.533 4.8518 8.974 9.6062 13.455 14.403-4.416 4.62-8.793 9.198-13.277 13.889 1.992 0.3542 3.39 0.0248 4.699-1.4354 3.35-3.7349 6.895-7.2954 10.357-10.93 1.445-1.5171 1.448-1.5475-0.017-3.1211-3.541-3.8059-7.176-7.5304-10.595-11.442z" fill="url(#a)"/>
<path d="m226.05 1.4808c-1.326-1.5166-2.741-1.6404-4.621-1.3634 4.532 4.8519 8.974 9.6062 13.454 14.403-4.416 4.6199-8.792 9.198-13.277 13.889 1.992 0.3541 3.39 0.0248 4.7-1.4355 3.349-3.7347 6.894-7.2953 10.356-10.93 1.445-1.5171 1.448-1.5474-0.017-3.1211-3.541-3.8058-7.176-7.5302-10.595-11.442z" fill="url(#a)"/>
<path d="m207.61 34.946c-1.325-1.5166-2.741-1.6404-4.621-1.3633 4.533 4.8518 8.974 9.6062 13.455 14.403-4.417 4.62-8.793 9.198-13.278 13.889 1.993 0.3542 3.39 0.0248 4.7-1.4354 3.349-3.7349 6.894-7.2954 10.356-10.93 1.446-1.5171 1.448-1.5475-0.016-3.1211-3.542-3.8059-7.177-7.5304-10.596-11.442z" fill="url(#a)"/>
<path d="m262.93 1.4808c-1.326-1.5166-2.741-1.6404-4.622-1.3634 4.533 4.8519 8.974 9.6062 13.455 14.403-4.416 4.6199-8.793 9.198-13.277 13.889 1.992 0.3541 3.39 0.0248 4.699-1.4355 3.349-3.7347 6.895-7.2953 10.357-10.93 1.445-1.5171 1.447-1.5474-0.017-3.1211-3.542-3.8058-7.176-7.5302-10.595-11.442z" fill="url(#a)"/>
<path d="m244.5 34.946c-1.326-1.5166-2.741-1.6404-4.621-1.3633 4.533 4.8518 8.974 9.6062 13.455 14.403-4.417 4.62-8.793 9.198-13.278 13.889 1.993 0.3542 3.39 0.0248 4.7-1.4354 3.349-3.7349 6.894-7.2954 10.356-10.93 1.445-1.5171 1.448-1.5475-0.017-3.1211-3.541-3.8059-7.176-7.5304-10.595-11.442z" fill="url(#a)"/>
<path d="m299.86 1.4808c-1.325-1.5166-2.741-1.6404-4.621-1.3634 4.533 4.8519 8.974 9.6062 13.455 14.403-4.417 4.6199-8.793 9.198-13.277 13.889 1.992 0.3541 3.39 0.0248 4.699-1.4355 3.349-3.7347 6.895-7.2953 10.357-10.93 1.445-1.5171 1.447-1.5474-0.017-3.1211-3.542-3.8058-7.177-7.5302-10.596-11.442z" fill="url(#a)"/>
<path d="m281.43 34.946c-1.326-1.5166-2.741-1.6404-4.621-1.3633 4.532 4.8518 8.974 9.6062 13.454 14.403-4.416 4.62-8.792 9.198-13.277 13.889 1.993 0.3542 3.39 0.0248 4.7-1.4354 3.349-3.7349 6.894-7.2954 10.356-10.93 1.445-1.5171 1.448-1.5475-0.017-3.1211-3.541-3.8059-7.176-7.5304-10.595-11.442z" fill="url(#a)"/>
<path d="m336.79 1.4808c-1.326-1.5166-2.741-1.6404-4.621-1.3634 4.532 4.8519 8.974 9.6062 13.455 14.403-4.417 4.6199-8.793 9.198-13.278 13.889 1.993 0.3541 3.39 0.0248 4.7-1.4355 3.349-3.7347 6.894-7.2953 10.356-10.93 1.445-1.5171 1.448-1.5474-0.016-3.1211-3.542-3.8058-7.177-7.5302-10.596-11.442z" fill="url(#a)"/>
<path d="m318.36 34.946c-1.325-1.5166-2.74-1.6404-4.621-1.3633 4.533 4.8518 8.974 9.6062 13.455 14.403-4.416 4.62-8.793 9.198-13.277 13.889 1.992 0.3542 3.39 0.0248 4.699-1.4354 3.35-3.7349 6.895-7.2954 10.357-10.93 1.445-1.5171 1.448-1.5475-0.017-3.1211-3.542-3.8059-7.176-7.5304-10.596-11.442z" fill="url(#a)"/>
<path d="m373.72 1.4808c-1.326-1.5166-2.741-1.6404-4.621-1.3634 4.532 4.8519 8.974 9.6062 13.454 14.403-4.416 4.6199-8.792 9.198-13.277 13.889 1.992 0.3541 3.39 0.0248 4.7-1.4355 3.349-3.7347 6.894-7.2953 10.356-10.93 1.445-1.5171 1.448-1.5474-0.017-3.1211-3.541-3.8058-7.176-7.5302-10.595-11.442z" fill="url(#a)"/>
<path d="m355.28 34.946c-1.325-1.5166-2.741-1.6404-4.621-1.3633 4.533 4.8518 8.974 9.6062 13.455 14.403-4.417 4.62-8.793 9.198-13.277 13.889 1.992 0.3542 3.39 0.0248 4.699-1.4354 3.349-3.7349 6.895-7.2954 10.357-10.93 1.445-1.5171 1.447-1.5475-0.017-3.1211-3.542-3.8059-7.177-7.5304-10.596-11.442z" fill="url(#a)"/>
<path d="m410.6 1.4808c-1.326-1.5166-2.741-1.6404-4.622-1.3634 4.533 4.8519 8.974 9.6062 13.455 14.403-4.416 4.6199-8.792 9.198-13.277 13.889 1.992 0.3541 3.39 0.0248 4.699-1.4355 3.35-3.7347 6.895-7.2953 10.357-10.93 1.445-1.5171 1.448-1.5474-0.017-3.1211-3.542-3.8058-7.176-7.5302-10.595-11.442z" fill="url(#a)"/>
<path d="m392.17 34.946c-1.326-1.5166-2.741-1.6404-4.621-1.3633 4.533 4.8518 8.974 9.6062 13.455 14.403-4.417 4.62-8.793 9.198-13.278 13.889 1.993 0.3542 3.39 0.0248 4.7-1.4354 3.349-3.7349 6.894-7.2954 10.356-10.93 1.445-1.5171 1.448-1.5475-0.016-3.1211-3.542-3.8059-7.177-7.5304-10.596-11.442z" fill="url(#a)"/>
<path d="m447.53 1.4808c-1.325-1.5166-2.74-1.6404-4.621-1.3634 4.533 4.8519 8.974 9.6062 13.455 14.403-4.416 4.6199-8.793 9.198-13.277 13.889 1.992 0.3541 3.39 0.0248 4.699-1.4355 3.35-3.7347 6.895-7.2953 10.357-10.93 1.445-1.5171 1.447-1.5474-0.017-3.1211-3.542-3.8058-7.177-7.5302-10.596-11.442z" fill="url(#a)"/>
<path d="m429.1 34.946c-1.326-1.5166-2.741-1.6404-4.621-1.3633 4.532 4.8518 8.974 9.6062 13.454 14.403-4.416 4.62-8.792 9.198-13.277 13.889 1.992 0.3542 3.39 0.0248 4.7-1.4354 3.349-3.7349 6.894-7.2954 10.356-10.93 1.445-1.5171 1.448-1.5475-0.017-3.1211-3.541-3.8059-7.176-7.5304-10.595-11.442z" fill="url(#a)"/>
<path d="m484.42 1.4808c-1.326-1.5166-2.741-1.6404-4.621-1.3634 4.533 4.8519 8.974 9.6062 13.455 14.403-4.417 4.6199-8.793 9.198-13.278 13.889 1.993 0.3541 3.39 0.0248 4.7-1.4355 3.349-3.7347 6.894-7.2953 10.357-10.93 1.444-1.5171 1.447-1.5474-0.017-3.1211-3.542-3.8058-7.177-7.5302-10.596-11.442z" fill="url(#a)"/>
<path d="m465.98 34.946c-1.326-1.5166-2.741-1.6404-4.622-1.3633 4.533 4.8518 8.974 9.6062 13.455 14.403-4.416 4.62-8.793 9.198-13.277 13.889 1.992 0.3542 3.39 0.0248 4.699-1.4354 3.35-3.7349 6.895-7.2954 10.357-10.93 1.445-1.5171 1.448-1.5475-0.017-3.1211-3.541-3.8059-7.176-7.5304-10.595-11.442z" fill="url(#a)"/>
<path d="m521.35 1.4808c-1.326-1.5166-2.741-1.6404-4.621-1.3634 4.532 4.8519 8.974 9.6062 13.454 14.403-4.416 4.6199-8.792 9.198-13.277 13.889 1.992 0.3541 3.39 0.0248 4.7-1.4355 3.349-3.7347 6.894-7.2953 10.356-10.93 1.445-1.5171 1.448-1.5474-0.017-3.1211-3.541-3.8058-7.176-7.5302-10.595-11.442z" fill="url(#a)"/>
<path d="m502.91 34.946c-1.326-1.5166-2.741-1.6404-4.621-1.3633 4.533 4.8518 8.974 9.6062 13.455 14.403-4.417 4.62-8.793 9.198-13.278 13.889 1.993 0.3542 3.39 0.0248 4.7-1.4354 3.349-3.7349 6.894-7.2954 10.356-10.93 1.445-1.5171 1.448-1.5475-0.016-3.1211-3.542-3.8059-7.177-7.5304-10.596-11.442z" fill="url(#a)"/>
<path d="m558.23 1.4808c-1.325-1.5166-2.741-1.6404-4.621-1.3634 4.533 4.8519 8.974 9.6062 13.455 14.403-4.416 4.6199-8.793 9.198-13.277 13.889 1.992 0.3541 3.39 0.0248 4.699-1.4355 3.349-3.7347 6.895-7.2953 10.357-10.93 1.445-1.5171 1.447-1.5474-0.017-3.1211-3.542-3.8058-7.177-7.5302-10.596-11.442z" fill="url(#a)"/>
<path d="m539.8 34.946c-1.326-1.5166-2.741-1.6404-4.621-1.3633 4.532 4.8518 8.974 9.6062 13.455 14.403-4.417 4.62-8.793 9.198-13.278 13.889 1.993 0.3542 3.39 0.0248 4.7-1.4354 3.349-3.7349 6.894-7.2954 10.356-10.93 1.445-1.5171 1.448-1.5475-0.017-3.1211-3.541-3.8059-7.176-7.5304-10.595-11.442z" fill="url(#a)"/>
<path d="m595.16 1.4808c-1.326-1.5166-2.741-1.6404-4.621-1.3634 4.533 4.8519 8.974 9.6062 13.455 14.403-4.417 4.6199-8.793 9.198-13.278 13.889 1.993 0.3541 3.39 0.0248 4.7-1.4355 3.349-3.7347 6.894-7.2953 10.356-10.93 1.446-1.5171 1.448-1.5474-0.016-3.1211-3.542-3.8058-7.177-7.5302-10.596-11.442z" fill="url(#a)"/>
<path d="m576.73 34.946c-1.326-1.5166-2.741-1.6404-4.622-1.3633 4.533 4.8518 8.975 9.6062 13.455 14.403-4.416 4.62-8.792 9.198-13.277 13.889 1.992 0.3542 3.39 0.0248 4.699-1.4354 3.35-3.7349 6.895-7.2954 10.357-10.93 1.445-1.5171 1.448-1.5475-0.017-3.1211-3.541-3.8059-7.176-7.5304-10.595-11.442z" fill="url(#a)"/>
<path d="m632.05 1.4808c-1.326-1.5166-2.741-1.6404-4.621-1.3634 4.532 4.8519 8.974 9.6062 13.454 14.403-4.416 4.6199-8.792 9.198-13.277 13.889 1.993 0.3541 3.39 0.0248 4.7-1.4355 3.349-3.7347 6.894-7.2953 10.356-10.93 1.445-1.5171 1.448-1.5474-0.017-3.1211-3.541-3.8058-7.176-7.5302-10.595-11.442z" fill="url(#a)"/>
<path d="m613.61 34.946c-1.325-1.5166-2.741-1.6404-4.621-1.3633 4.533 4.8518 8.974 9.6062 13.455 14.403-4.416 4.62-8.793 9.198-13.278 13.889 1.993 0.3542 3.391 0.0248 4.7-1.4354 3.349-3.7349 6.895-7.2954 10.357-10.93 1.445-1.5171 1.447-1.5475-0.017-3.1211-3.542-3.8059-7.177-7.5304-10.596-11.442z" fill="url(#a)"/>
<path d="m668.98 1.4808c-1.326-1.5166-2.741-1.6404-4.622-1.3634 4.533 4.8519 8.974 9.6062 13.455 14.403-4.416 4.6199-8.793 9.198-13.277 13.889 1.992 0.3541 3.39 0.0248 4.699-1.4355 3.35-3.7347 6.895-7.2953 10.357-10.93 1.445-1.5171 1.448-1.5474-0.017-3.1211-3.541-3.8058-7.176-7.5302-10.595-11.442z" fill="url(#a)"/>
<path d="m650.54 34.946c-1.326-1.5166-2.741-1.6404-4.621-1.3633 4.532 4.8518 8.974 9.6062 13.455 14.403-4.417 4.62-8.793 9.198-13.278 13.889 1.993 0.3542 3.39 0.0248 4.7-1.4354 3.349-3.7349 6.894-7.2954 10.356-10.93 1.445-1.5171 1.448-1.5475-0.016-3.1211-3.542-3.8059-7.177-7.5304-10.596-11.442z" fill="url(#a)"/>
<path d="m705.86 1.4808c-1.325-1.5166-2.74-1.6404-4.621-1.3634 4.533 4.8519 8.974 9.6062 13.455 14.403-4.416 4.6199-8.793 9.198-13.278 13.889 1.993 0.3541 3.39 0.0248 4.7-1.4355 3.349-3.7347 6.895-7.2953 10.356-10.93 1.446-1.5171 1.448-1.5474-0.016-3.1211-3.542-3.8058-7.177-7.5302-10.596-11.442z" fill="url(#a)"/>
<path d="m687.43 34.946c-1.326-1.5166-2.741-1.6404-4.621-1.3633 4.532 4.8518 8.974 9.6062 13.454 14.403-4.416 4.62-8.792 9.198-13.277 13.889 1.993 0.3542 3.39 0.0248 4.7-1.4354 3.349-3.7349 6.894-7.2954 10.356-10.93 1.445-1.5171 1.448-1.5475-0.017-3.1211-3.541-3.8059-7.176-7.5304-10.595-11.442z" fill="url(#a)"/>
<path d="m742.79 1.4808c-1.326-1.5166-2.741-1.6404-4.621-1.3634 4.533 4.8519 8.974 9.6062 13.455 14.403-4.417 4.6199-8.793 9.198-13.278 13.889 1.993 0.3541 3.39 0.0248 4.7-1.4355 3.349-3.7347 6.894-7.2953 10.357-10.93 1.444-1.5171 1.447-1.5474-0.017-3.1211-3.542-3.8058-7.177-7.5302-10.596-11.442z" fill="url(#a)"/>
<path d="m724.36 34.946c-1.326-1.5166-2.741-1.6404-4.622-1.3633 4.533 4.8518 8.974 9.6062 13.455 14.403-4.416 4.62-8.793 9.198-13.277 13.889 1.992 0.3542 3.39 0.0248 4.699-1.4354 3.35-3.7349 6.895-7.2954 10.357-10.93 1.445-1.5171 1.447-1.5475-0.017-3.1211-3.541-3.8059-7.176-7.5304-10.595-11.442z" fill="url(#a)"/>
<path d="m779.68 1.4808c-1.326-1.5166-2.741-1.6404-4.621-1.3634 4.532 4.8519 8.974 9.6062 13.455 14.403-4.417 4.6199-8.793 9.198-13.278 13.889 1.993 0.3541 3.39 0.0248 4.7-1.4355 3.349-3.7347 6.894-7.2953 10.356-10.93 1.445-1.5171 1.448-1.5474-0.016-3.1211-3.542-3.8058-7.177-7.5302-10.596-11.442z" fill="url(#a)"/>
<path d="m761.24 34.946c-1.325-1.5166-2.741-1.6404-4.621-1.3633 4.533 4.8518 8.974 9.6062 13.455 14.403-4.416 4.62-8.793 9.198-13.277 13.889 1.992 0.3542 3.39 0.0248 4.699-1.4354 3.349-3.7349 6.894-7.2954 10.357-10.93 1.445-1.5171 1.447-1.5475-0.017-3.1211-3.542-3.8059-7.177-7.5304-10.596-11.442z" fill="url(#a)"/>
<path d="m816.61 1.4808c-1.326-1.5166-2.741-1.6404-4.622-1.3634 4.533 4.8519 8.974 9.6062 13.455 14.403-4.416 4.6199-8.793 9.198-13.277 13.889 1.992 0.3541 3.39 0.0248 4.699-1.4355 3.35-3.7347 6.895-7.2953 10.357-10.93 1.445-1.5171 1.448-1.5474-0.017-3.1211-3.541-3.8058-7.176-7.5302-10.595-11.442z" fill="url(#a)"/>
<path d="m798.17 34.946c-1.326-1.5166-2.741-1.6404-4.621-1.3633 4.532 4.8518 8.974 9.6062 13.454 14.403-4.416 4.62-8.792 9.198-13.277 13.889 1.993 0.3542 3.39 0.0248 4.7-1.4354 3.349-3.7349 6.894-7.2954 10.356-10.93 1.445-1.5171 1.448-1.5475-0.017-3.1211-3.541-3.8059-7.176-7.5304-10.595-11.442z" fill="url(#a)"/>
<path d="m853.49 1.4808c-1.325-1.5166-2.741-1.6404-4.621-1.3634 4.533 4.8519 8.974 9.6062 13.455 14.403-4.417 4.6199-8.793 9.198-13.278 13.889 1.993 0.3541 3.39 0.0248 4.7-1.4355 3.349-3.7347 6.894-7.2953 10.356-10.93 1.446-1.5171 1.448-1.5474-0.016-3.1211-3.542-3.8058-7.177-7.5302-10.596-11.442z" fill="url(#a)"/>
<path d="m835.06 34.946c-1.326-1.5166-2.741-1.6404-4.621-1.3633 4.532 4.8518 8.974 9.6062 13.454 14.403-4.416 4.62-8.792 9.198-13.277 13.889 1.993 0.3542 3.39 0.0248 4.7-1.4354 3.349-3.7349 6.894-7.2954 10.356-10.93 1.445-1.5171 1.448-1.5475-0.017-3.1211-3.541-3.8059-7.176-7.5304-10.595-11.442z" fill="url(#a)"/>
<path d="m890.42 1.4808c-1.326-1.5166-2.741-1.6404-4.621-1.3634 4.532 4.8519 8.974 9.6062 13.455 14.403-4.417 4.6199-8.793 9.198-13.278 13.889 1.993 0.3541 3.39 0.0248 4.7-1.4355 3.349-3.7347 6.894-7.2953 10.356-10.93 1.445-1.5171 1.448-1.5474-0.017-3.1211-3.541-3.8058-7.176-7.5302-10.595-11.442z" fill="url(#a)"/>
<path d="m871.98 34.946c-1.325-1.5166-2.74-1.6404-4.621-1.3633 4.533 4.8518 8.974 9.6062 13.455 14.403-4.416 4.62-8.793 9.198-13.277 13.889 1.992 0.3542 3.39 0.0248 4.699-1.4354 3.35-3.7349 6.895-7.2954 10.357-10.93 1.445-1.5171 1.447-1.5475-0.017-3.1211-3.542-3.8059-7.176-7.5304-10.596-11.442z" fill="url(#a)"/>
<path d="m927.35 1.4808c-1.326-1.5166-2.741-1.6404-4.621-1.3634 4.532 4.8519 8.973 9.6062 13.454 14.403-4.416 4.6199-8.793 9.198-13.277 13.889 1.992 0.3541 3.39 0.0248 4.699-1.4355 3.35-3.7347 6.895-7.2953 10.357-10.93 1.445-1.5171 1.447-1.5474-0.017-3.1211-3.542-3.8058-7.176-7.5302-10.595-11.442z" fill="url(#a)"/>
<path d="m908.91 34.946c-1.326-1.5166-2.741-1.6404-4.621-1.3633 4.533 4.8518 8.974 9.6062 13.455 14.403-4.417 4.62-8.793 9.198-13.278 13.889 1.993 0.3542 3.39 0.0248 4.7-1.4354 3.349-3.7349 6.894-7.2954 10.356-10.93 1.445-1.5171 1.448-1.5475-0.016-3.1211-3.542-3.8059-7.177-7.5304-10.596-11.442z" fill="url(#a)"/>
<path d="m964.28 1.4808c-1.325-1.5166-2.74-1.6404-4.621-1.3634 4.533 4.8519 8.974 9.6062 13.455 14.403-4.416 4.6199-8.793 9.198-13.277 13.889 1.992 0.3541 3.39 0.0248 4.699-1.4355 3.35-3.7347 6.895-7.2953 10.357-10.93 1.445-1.5171 1.447-1.5474-0.017-3.1211-3.542-3.8058-7.177-7.5302-10.596-11.442z" fill="url(#a)"/>
<path d="m945.84 34.946c-1.326-1.5166-2.741-1.6404-4.621-1.3633 4.532 4.8518 8.974 9.6062 13.454 14.403-4.416 4.62-8.792 9.198-13.277 13.889 1.993 0.3542 3.39 0.0248 4.7-1.4354 3.349-3.7349 6.894-7.2954 10.356-10.93 1.445-1.5171 1.448-1.5475-0.016-3.1211-3.542-3.8059-7.177-7.5304-10.596-11.442z" fill="url(#a)"/>
<path d="m1001.2 1.4808c-1.325-1.5166-2.741-1.6404-4.621-1.3634 4.531 4.8519 8.971 9.6062 13.451 14.403-4.41 4.6199-8.79 9.198-13.274 13.889 1.993 0.3541 3.394 0.0248 4.704-1.4355 3.35-3.7347 6.89-7.2953 10.35-10.93 1.45-1.5171 1.45-1.5474-0.01-3.1211-3.55-3.8058-7.18-7.5302-10.6-11.442z" fill="url(#a)"/>
<path d="m982.73 34.946c-1.326-1.5166-2.741-1.6404-4.622-1.3633 4.533 4.8518 8.974 9.6062 13.455 14.403-4.416 4.62-8.792 9.198-13.277 13.889 1.992 0.3542 3.39 0.0248 4.699-1.4354 3.35-3.7349 6.895-7.2954 10.357-10.93 1.445-1.5171 1.448-1.5475-0.017-3.1211-3.541-3.8059-7.176-7.5304-10.595-11.442z" fill="url(#a)"/>
<path d="m1038.1 1.4808c-1.33-1.5166-2.74-1.6404-4.62-1.3634 4.53 4.8519 8.97 9.6062 13.45 14.403-4.41 4.6199-8.79 9.198-13.27 13.889 1.99 0.3541 3.39 0.0248 4.7-1.4355 3.34-3.7347 6.89-7.2953 10.35-10.93 1.45-1.5171 1.45-1.5474-0.01-3.1211-3.55-3.8058-7.18-7.5302-10.6-11.442z" fill="url(#a)"/>
<path d="m1019.7 34.946c-1.33-1.5166-2.74-1.6404-4.62-1.3633 4.53 4.8518 8.97 9.6062 13.45 14.403-4.42 4.62-8.79 9.198-13.28 13.889 2 0.3542 3.39 0.0248 4.7-1.4354 3.35-3.7349 6.9-7.2954 10.36-10.93 1.44-1.5171 1.45-1.5475-0.02-3.1211-3.54-3.8059-7.17-7.5304-10.59-11.442z" fill="url(#a)"/>
<path d="m1075 1.4808c-1.32-1.5166-2.74-1.6404-4.62-1.3634 4.54 4.8519 8.98 9.6062 13.46 14.403-4.42 4.6199-8.79 9.198-13.28 13.889 1.99 0.3541 3.39 0.0248 4.7-1.4355 3.35-3.7347 6.9-7.2953 10.36-10.93 1.44-1.5171 1.44-1.5474-0.02-3.1211-3.54-3.8058-7.18-7.5302-10.6-11.442z" fill="url(#a)"/>
<path d="m1056.5 34.946c-1.33-1.5166-2.74-1.6404-4.62-1.3633 4.53 4.8518 8.97 9.6062 13.45 14.403-4.41 4.62-8.79 9.198-13.27 13.889 1.99 0.3542 3.39 0.0248 4.7-1.4354 3.34-3.7349 6.89-7.2954 10.35-10.93 1.45-1.5171 1.45-1.5475-0.02-3.1211-3.54-3.8059-7.17-7.5304-10.59-11.442z" fill="url(#a)"/>
<path d="m1111.9 1.4808c-1.32-1.5166-2.74-1.6404-4.62-1.3634 4.54 4.8519 8.98 9.6062 13.46 14.403-4.42 4.6199-8.79 9.198-13.28 13.889 1.99 0.3541 3.39 0.0248 4.7-1.4355 3.35-3.7347 6.89-7.2953 10.36-10.93 1.44-1.5171 1.44-1.5474-0.02-3.1211-3.54-3.8058-7.18-7.5302-10.6-11.442z" fill="url(#a)"/>
<path d="m1093.5 34.946c-1.33-1.5166-2.74-1.6404-4.62-1.3633 4.53 4.8518 8.97 9.6062 13.45 14.403-4.41 4.62-8.79 9.198-13.27 13.889 1.99 0.3542 3.39 0.0248 4.69-1.4354 3.35-3.7349 6.9-7.2954 10.36-10.93 1.45-1.5171 1.45-1.5475-0.02-3.1211-3.54-3.8059-7.17-7.5304-10.59-11.442z" fill="url(#a)"/>
<path d="m1148.8 1.4808c-1.33-1.5166-2.74-1.6404-4.62-1.3634 4.53 4.8519 8.97 9.6062 13.45 14.403-4.41 4.6199-8.79 9.198-13.28 13.889 2 0.3541 3.39 0.0248 4.7-1.4355 3.35-3.7347 6.9-7.2953 10.36-10.93 1.45-1.5171 1.45-1.5474-0.02-3.1211-3.54-3.8058-7.17-7.5302-10.59-11.442z" fill="url(#a)"/>
<path d="m1130.4 34.946c-1.32-1.5166-2.74-1.6404-4.62-1.3633 4.54 4.8518 8.98 9.6062 13.46 14.403-4.42 4.62-8.8 9.198-13.28 13.889 1.99 0.3542 3.39 0.0248 4.7-1.4354 3.35-3.7349 6.89-7.2954 10.36-10.93 1.44-1.5171 1.44-1.5475-0.02-3.1211-3.54-3.8059-7.18-7.5304-10.6-11.442z" fill="url(#a)"/>
<path d="m1167.3 34.946c-1.32-1.5166-2.74-1.6404-4.62-1.3633 4.53 4.8518 8.98 9.6062 13.46 14.403-4.42 4.62-8.8 9.198-13.28 13.889 1.99 0.3542 3.39 0.0248 4.7-1.4354 3.35-3.7349 6.89-7.2954 10.36-10.93 1.44-1.5171 1.44-1.5475-0.02-3.1211-3.54-3.8059-7.18-7.5304-10.6-11.442z" fill="url(#a)"/>
<path d="m1222.5 1.4808c-1.33-1.5166-2.74-1.6404-4.62-1.3634 4.53 4.8519 8.97 9.6062 13.45 14.403-4.42 4.6199-8.79 9.198-13.28 13.889 2 0.3541 3.39 0.0248 4.7-1.4355 3.35-3.7347 6.9-7.2953 10.36-10.93 1.44-1.5171 1.45-1.5474-0.02-3.1211-3.54-3.8058-7.17-7.5302-10.59-11.442z" fill="url(#a)"/>
<path d="m1185.6 1.4808c-1.33-1.5166-2.74-1.6404-4.62-1.3634 4.53 4.8519 8.97 9.6062 13.45 14.403-4.42 4.6199-8.79 9.198-13.28 13.889 2 0.3541 3.39 0.0248 4.7-1.4355 3.35-3.7347 6.9-7.2953 10.36-10.93 1.44-1.5171 1.45-1.5474-0.02-3.1211-3.54-3.8058-7.17-7.5302-10.59-11.442z" fill="url(#a)"/>
<path d="m1204.1 34.946c-1.32-1.5166-2.74-1.6404-4.62-1.3633 4.53 4.8518 8.97 9.6062 13.46 14.403-4.42 4.62-8.8 9.198-13.28 13.889 1.99 0.3542 3.39 0.0248 4.7-1.4354 3.35-3.7349 6.89-7.2954 10.35-10.93 1.45-1.5171 1.45-1.5475-0.01-3.1211-3.54-3.8059-7.18-7.5304-10.6-11.442z" fill="url(#a)"/>
<path d="m1259.4 1.4808c-1.33-1.5166-2.74-1.6404-4.62-1.3634 4.53 4.8519 8.97 9.6062 13.45 14.403-4.42 4.6199-8.79 9.198-13.28 13.889 2 0.3541 3.39 0.0248 4.7-1.4355 3.35-3.7347 6.9-7.2953 10.36-10.93 1.45-1.5171 1.45-1.5474-0.02-3.1211-3.54-3.8058-7.17-7.5302-10.59-11.442z" fill="url(#a)"/>
<path d="m1241 34.946c-1.32-1.5166-2.74-1.6404-4.62-1.3633 4.53 4.8518 8.97 9.6062 13.46 14.403-4.42 4.62-8.8 9.198-13.28 13.889 1.99 0.3542 3.39 0.0248 4.7-1.4354 3.35-3.7349 6.89-7.2954 10.35-10.93 1.45-1.5171 1.45-1.5475-0.01-3.1211-3.54-3.8059-7.18-7.5304-10.6-11.442z" fill="url(#a)"/>
<path d="m1296.3 1.4808c-1.33-1.5166-2.74-1.6404-4.62-1.3634 4.53 4.8519 8.97 9.6062 13.45 14.403-4.41 4.6199-8.79 9.198-13.27 13.889 1.99 0.3541 3.39 0.0248 4.7-1.4355 3.35-3.7347 6.89-7.2953 10.35-10.93 1.45-1.5171 1.45-1.5474-0.01-3.1211-3.55-3.8058-7.18-7.5302-10.6-11.442z" fill="url(#a)"/>
<path d="m1277.9 34.946c-1.33-1.5166-2.75-1.6404-4.63-1.3633 4.54 4.8518 8.98 9.6062 13.46 14.403-4.42 4.62-8.79 9.198-13.28 13.889 1.99 0.3542 3.39 0.0248 4.7-1.4354 3.35-3.7349 6.9-7.2954 10.36-10.93 1.44-1.5171 1.45-1.5475-0.02-3.1211-3.54-3.8059-7.18-7.5304-10.59-11.442z" fill="url(#a)"/>
<path d="m1333.2 1.4808c-1.32-1.5166-2.74-1.6404-4.62-1.3634 4.53 4.8519 8.97 9.6062 13.45 14.403-4.41 4.6199-8.79 9.198-13.27 13.889 1.99 0.3541 3.39 0.0248 4.7-1.4355 3.35-3.7347 6.89-7.2953 10.35-10.93 1.45-1.5171 1.45-1.5474-0.01-3.1211-3.54-3.8058-7.18-7.5302-10.6-11.442z" fill="url(#a)"/>
<path d="m1314.8 34.946c-1.33-1.5166-2.75-1.6404-4.63-1.3633 4.54 4.8518 8.98 9.6062 13.46 14.403-4.42 4.62-8.79 9.198-13.28 13.889 1.99 0.3542 3.39 0.0248 4.7-1.4354 3.35-3.7349 6.9-7.2954 10.36-10.93 1.44-1.5171 1.45-1.5475-0.02-3.1211-3.54-3.8059-7.18-7.5304-10.59-11.442z" fill="url(#a)"/>
<path d="m1370.1 1.4808c-1.32-1.5166-2.74-1.6404-4.62-1.3634 4.54 4.8519 8.98 9.6062 13.46 14.403-4.42 4.6199-8.79 9.198-13.28 13.889 1.99 0.3541 3.39 0.0248 4.7-1.4355 3.35-3.7347 6.9-7.2953 10.36-10.93 1.44-1.5171 1.44-1.5474-0.02-3.1211-3.54-3.8058-7.18-7.5302-10.6-11.442z" fill="url(#a)"/>
<path d="m1351.7 34.946c-1.33-1.5166-2.74-1.6404-4.62-1.3633 4.53 4.8518 8.97 9.6062 13.45 14.403-4.41 4.62-8.79 9.198-13.27 13.889 1.99 0.3542 3.39 0.0248 4.7-1.4354 3.34-3.7349 6.89-7.2954 10.35-10.93 1.45-1.5171 1.45-1.5475-0.02-3.1211-3.54-3.8059-7.17-7.5304-10.59-11.442z" fill="url(#a)"/>
<path d="m1402.6 28.409c1.99 0.3541 3.39 0.0248 4.7-1.4355 3.35-3.7347 6.89-7.2953 10.36-10.93 1.44-1.5171 1.44-1.5474-0.02-3.1211-3.54-3.8058-7.18-7.5302-10.6-11.442-1.32-1.5166-2.74-1.6404-4.62-1.3634 4.54 4.8519 8.98 9.6062 13.46 14.403-4.42 4.6199-8.79 9.198-13.28 13.889z" fill="url(#a)"/>
<path d="m1388.6 34.946c-1.33-1.5166-2.74-1.6404-4.62-1.3633 4.53 4.8518 8.97 9.6062 13.45 14.403-4.41 4.62-8.79 9.198-13.27 13.889 1.99 0.3542 3.39 0.0248 4.7-1.4354 3.35-3.7349 6.89-7.2954 10.35-10.93 1.45-1.5171 1.45-1.5475-0.01-3.1211-3.55-3.8059-7.18-7.5304-10.6-11.442z" fill="url(#a)"/>
<path d="m41.492 68.487c-1.3257-1.5166-2.741-1.6404-4.6212-1.3634 4.5326 4.8519 8.974 9.6062 13.455 14.403-4.4163 4.6199-8.7927 9.198-13.277 13.889 1.9926 0.3541 3.3901 0.0248 4.6997-1.4355 3.3491-3.7347 6.8943-7.2953 10.356-10.93 1.4451-1.5171 1.4476-1.5474-0.0168-3.1211-3.5415-3.8058-7.1765-7.5303-10.596-11.442z" fill="url(#a)"/>
<path d="m4.6211 68.487c-1.3256-1.5166-2.7407-1.6404-4.6211-1.3634 4.5326 4.8519 8.974 9.6062 13.455 14.403-4.4164 4.6199-8.7927 9.198-13.277 13.889 1.9924 0.3541 3.39 0.0248 4.6995-1.4355 3.3494-3.7347 6.8945-7.2953 10.357-10.93 1.4449-1.5171 1.4476-1.5474-0.0168-3.1211-3.5416-3.8058-7.1765-7.5303-10.596-11.442z" fill="url(#a)"/>
<path d="m23.057 101.95c-1.3257-1.516-2.7408-1.64-4.6211-1.363 4.5325 4.852 8.9739 9.606 13.455 14.403-4.4164 4.62-8.7927 9.198-13.277 13.889 1.9926 0.354 3.39 0.025 4.6996-1.435 3.3492-3.735 6.8944-7.296 10.356-10.93 1.4451-1.518 1.4478-1.548-0.0168-3.122-3.5415-3.805-7.1764-7.53-10.596-11.442z" fill="url(#a)"/>
<path d="m78.422 68.487c-1.3257-1.5166-2.7408-1.6404-4.6211-1.3634 4.5325 4.8519 8.9739 9.6062 13.455 14.403-4.4164 4.6199-8.7927 9.198-13.277 13.889 1.9924 0.3541 3.39 0.0248 4.6996-1.4355 3.3492-3.7347 6.8944-7.2953 10.356-10.93 1.4451-1.5171 1.4478-1.5474-0.0168-3.1211-3.5415-3.8058-7.1764-7.5303-10.596-11.442z" fill="url(#a)"/>
<path d="m59.986 101.95c-1.3256-1.516-2.7407-1.64-4.6211-1.363 4.5326 4.852 8.974 9.606 13.455 14.403-4.4165 4.62-8.7927 9.198-13.277 13.889 1.9924 0.354 3.39 0.025 4.6995-1.435 3.3494-3.735 6.8945-7.296 10.357-10.93 1.4449-1.518 1.4476-1.548-0.0168-3.122-3.5416-3.805-7.1765-7.53-10.596-11.442z" fill="url(#a)"/>
<path d="m115.3 68.487c-1.326-1.5166-2.741-1.6404-4.621-1.3634 4.532 4.8519 8.974 9.6062 13.454 14.403-4.416 4.6199-8.792 9.198-13.277 13.889 1.992 0.3541 3.39 0.0248 4.699-1.4355 3.35-3.7347 6.895-7.2953 10.357-10.93 1.445-1.5171 1.448-1.5474-0.017-3.1211-3.541-3.8058-7.176-7.5303-10.595-11.442z" fill="url(#a)"/>
<path d="m96.871 101.95c-1.3256-1.516-2.7408-1.64-4.6212-1.363 4.5327 4.852 8.974 9.606 13.455 14.403-4.417 4.62-8.7929 9.198-13.278 13.889 1.9924 0.354 3.39 0.025 4.6995-1.435 3.349-3.735 6.894-7.296 10.357-10.93 1.444-1.518 1.447-1.548-0.017-3.122-3.542-3.805-7.177-7.53-10.596-11.442z" fill="url(#a)"/>
<path d="m152.23 68.487c-1.325-1.5166-2.74-1.6404-4.621-1.3634 4.533 4.8519 8.974 9.6062 13.455 14.403-4.416 4.6199-8.793 9.198-13.277 13.889 1.992 0.3541 3.39 0.0248 4.699-1.4355 3.35-3.7347 6.895-7.2953 10.357-10.93 1.445-1.5171 1.447-1.5474-0.017-3.1211-3.542-3.8058-7.176-7.5303-10.596-11.442z" fill="url(#a)"/>
<path d="m133.8 101.95c-1.326-1.516-2.741-1.64-4.621-1.363 4.532 4.852 8.974 9.606 13.454 14.403-4.416 4.62-8.792 9.198-13.277 13.889 1.992 0.354 3.39 0.025 4.7-1.435 3.349-3.735 6.894-7.296 10.356-10.93 1.445-1.518 1.448-1.548-0.017-3.122-3.541-3.805-7.176-7.53-10.595-11.442z" fill="url(#a)"/>
<path d="m189.12 68.487c-1.325-1.5166-2.741-1.6404-4.621-1.3634 4.533 4.8519 8.974 9.6062 13.455 14.403-4.417 4.6199-8.793 9.198-13.277 13.889 1.992 0.3541 3.39 0.0248 4.699-1.4355 3.349-3.7347 6.895-7.2953 10.357-10.93 1.445-1.5171 1.447-1.5474-0.017-3.1211-3.542-3.8058-7.177-7.5303-10.596-11.442z" fill="url(#a)"/>
<path d="m170.68 101.95c-1.326-1.516-2.741-1.64-4.622-1.363 4.533 4.852 8.974 9.606 13.455 14.403-4.416 4.62-8.793 9.198-13.277 13.889 1.992 0.354 3.39 0.025 4.699-1.435 3.35-3.735 6.895-7.296 10.357-10.93 1.445-1.518 1.448-1.548-0.017-3.122-3.541-3.805-7.176-7.53-10.595-11.442z" fill="url(#a)"/>
<path d="m226.05 68.487c-1.326-1.5166-2.741-1.6404-4.621-1.3634 4.532 4.8519 8.974 9.6062 13.454 14.403-4.416 4.6199-8.792 9.198-13.277 13.889 1.992 0.3541 3.39 0.0248 4.7-1.4355 3.349-3.7347 6.894-7.2953 10.356-10.93 1.445-1.5171 1.448-1.5474-0.017-3.1211-3.541-3.8058-7.176-7.5303-10.595-11.442z" fill="url(#a)"/>
<path d="m207.61 101.95c-1.325-1.516-2.741-1.64-4.621-1.363 4.533 4.852 8.974 9.606 13.455 14.403-4.417 4.62-8.793 9.198-13.278 13.889 1.993 0.354 3.39 0.025 4.7-1.435 3.349-3.735 6.894-7.296 10.356-10.93 1.446-1.518 1.448-1.548-0.016-3.122-3.542-3.805-7.177-7.53-10.596-11.442z" fill="url(#a)"/>
<path d="m262.93 68.487c-1.326-1.5166-2.741-1.6404-4.622-1.3634 4.533 4.8519 8.974 9.6062 13.455 14.403-4.416 4.6199-8.793 9.198-13.277 13.889 1.992 0.3541 3.39 0.0248 4.699-1.4355 3.349-3.7347 6.895-7.2953 10.357-10.93 1.445-1.5171 1.447-1.5474-0.017-3.1211-3.542-3.8058-7.176-7.5303-10.595-11.442z" fill="url(#a)"/>
<path d="m244.5 101.95c-1.326-1.516-2.741-1.64-4.621-1.363 4.533 4.852 8.974 9.606 13.455 14.403-4.417 4.62-8.793 9.198-13.278 13.889 1.993 0.354 3.39 0.025 4.7-1.435 3.349-3.735 6.894-7.296 10.356-10.93 1.445-1.518 1.448-1.548-0.017-3.122-3.541-3.805-7.176-7.53-10.595-11.442z" fill="url(#a)"/>
<path d="m299.86 68.487c-1.325-1.5166-2.741-1.6404-4.621-1.3634 4.533 4.8519 8.974 9.6062 13.455 14.403-4.417 4.6199-8.793 9.198-13.277 13.889 1.992 0.3541 3.39 0.0248 4.699-1.4355 3.349-3.7347 6.895-7.2953 10.357-10.93 1.445-1.5171 1.447-1.5474-0.017-3.1211-3.542-3.8058-7.177-7.5303-10.596-11.442z" fill="url(#a)"/>
<path d="m281.43 101.95c-1.326-1.516-2.741-1.64-4.621-1.363 4.532 4.852 8.974 9.606 13.454 14.403-4.416 4.62-8.792 9.198-13.277 13.889 1.993 0.354 3.39 0.025 4.7-1.435 3.349-3.735 6.894-7.296 10.356-10.93 1.445-1.518 1.448-1.548-0.017-3.122-3.541-3.805-7.176-7.53-10.595-11.442z" fill="url(#a)"/>
<path d="m336.79 68.487c-1.326-1.5166-2.741-1.6404-4.621-1.3634 4.532 4.8519 8.974 9.6062 13.455 14.403-4.417 4.6199-8.793 9.198-13.278 13.889 1.993 0.3541 3.39 0.0248 4.7-1.4355 3.349-3.7347 6.894-7.2953 10.356-10.93 1.445-1.5171 1.448-1.5474-0.016-3.1211-3.542-3.8058-7.177-7.5303-10.596-11.442z" fill="url(#a)"/>
<path d="m318.36 101.95c-1.325-1.516-2.74-1.64-4.621-1.363 4.533 4.852 8.974 9.606 13.455 14.403-4.416 4.62-8.793 9.198-13.277 13.889 1.992 0.354 3.39 0.025 4.699-1.435 3.35-3.735 6.895-7.296 10.357-10.93 1.445-1.518 1.448-1.548-0.017-3.122-3.542-3.805-7.176-7.53-10.596-11.442z" fill="url(#a)"/>
<path d="m373.72 68.487c-1.326-1.5166-2.741-1.6404-4.621-1.3634 4.532 4.8519 8.974 9.6062 13.454 14.403-4.416 4.6199-8.792 9.198-13.277 13.889 1.992 0.3541 3.39 0.0248 4.7-1.4355 3.349-3.7347 6.894-7.2953 10.356-10.93 1.445-1.5171 1.448-1.5474-0.017-3.1211-3.541-3.8058-7.176-7.5303-10.595-11.442z" fill="url(#a)"/>
<path d="m355.28 101.95c-1.325-1.516-2.741-1.64-4.621-1.363 4.533 4.852 8.974 9.606 13.455 14.403-4.417 4.62-8.793 9.198-13.277 13.889 1.992 0.354 3.39 0.025 4.699-1.435 3.349-3.735 6.895-7.296 10.357-10.93 1.445-1.518 1.447-1.548-0.017-3.122-3.542-3.805-7.177-7.53-10.596-11.442z" fill="url(#a)"/>
<path d="m410.6 68.487c-1.326-1.5166-2.741-1.6404-4.622-1.3634 4.533 4.8519 8.974 9.6062 13.455 14.403-4.416 4.6199-8.792 9.198-13.277 13.889 1.992 0.3541 3.39 0.0248 4.699-1.4355 3.35-3.7347 6.895-7.2953 10.357-10.93 1.445-1.5171 1.448-1.5474-0.017-3.1211-3.542-3.8058-7.176-7.5303-10.595-11.442z" fill="url(#a)"/>
<path d="m392.17 101.95c-1.326-1.516-2.741-1.64-4.621-1.363 4.533 4.852 8.974 9.606 13.455 14.403-4.417 4.62-8.793 9.198-13.278 13.889 1.993 0.354 3.39 0.025 4.7-1.435 3.349-3.735 6.894-7.296 10.356-10.93 1.445-1.518 1.448-1.548-0.016-3.122-3.542-3.805-7.177-7.53-10.596-11.442z" fill="url(#a)"/>
<path d="m447.53 68.487c-1.325-1.5166-2.74-1.6404-4.621-1.3634 4.533 4.8519 8.974 9.6062 13.455 14.403-4.416 4.6199-8.793 9.198-13.277 13.889 1.992 0.3541 3.39 0.0248 4.699-1.4355 3.35-3.7347 6.895-7.2953 10.357-10.93 1.445-1.5171 1.447-1.5474-0.017-3.1211-3.542-3.8058-7.177-7.5303-10.596-11.442z" fill="url(#a)"/>
<path d="m429.1 101.95c-1.326-1.516-2.741-1.64-4.621-1.363 4.532 4.852 8.974 9.606 13.454 14.403-4.416 4.62-8.792 9.198-13.277 13.889 1.992 0.354 3.39 0.025 4.7-1.435 3.349-3.735 6.894-7.296 10.356-10.93 1.445-1.518 1.448-1.548-0.017-3.122-3.541-3.805-7.176-7.53-10.595-11.442z" fill="url(#a)"/>
<path d="m484.42 68.487c-1.326-1.5166-2.741-1.6404-4.621-1.3634 4.533 4.8519 8.974 9.6062 13.455 14.403-4.417 4.6199-8.793 9.198-13.278 13.889 1.993 0.3541 3.39 0.0248 4.7-1.4355 3.349-3.7347 6.894-7.2953 10.357-10.93 1.444-1.5171 1.447-1.5474-0.017-3.1211-3.542-3.8058-7.177-7.5303-10.596-11.442z" fill="url(#a)"/>
<path d="m465.98 101.95c-1.326-1.516-2.741-1.64-4.622-1.363 4.533 4.852 8.974 9.606 13.455 14.403-4.416 4.62-8.793 9.198-13.277 13.889 1.992 0.354 3.39 0.025 4.699-1.435 3.35-3.735 6.895-7.296 10.357-10.93 1.445-1.518 1.448-1.548-0.017-3.122-3.541-3.805-7.176-7.53-10.595-11.442z" fill="url(#a)"/>
<path d="m521.35 68.487c-1.326-1.5166-2.741-1.6404-4.621-1.3634 4.532 4.8519 8.974 9.6062 13.454 14.403-4.416 4.6199-8.792 9.198-13.277 13.889 1.992 0.3541 3.39 0.0248 4.7-1.4355 3.349-3.7347 6.894-7.2953 10.356-10.93 1.445-1.5171 1.448-1.5474-0.017-3.1211-3.541-3.8058-7.176-7.5303-10.595-11.442z" fill="url(#a)"/>
<path d="m502.91 101.95c-1.326-1.516-2.741-1.64-4.621-1.363 4.533 4.852 8.974 9.606 13.455 14.403-4.417 4.62-8.793 9.198-13.278 13.889 1.993 0.354 3.39 0.025 4.7-1.435 3.349-3.735 6.894-7.296 10.356-10.93 1.445-1.518 1.448-1.548-0.016-3.122-3.542-3.805-7.177-7.53-10.596-11.442z" fill="url(#a)"/>
<path d="m558.23 68.487c-1.325-1.5166-2.741-1.6404-4.621-1.3634 4.533 4.8519 8.974 9.6062 13.455 14.403-4.416 4.6199-8.793 9.198-13.277 13.889 1.992 0.3541 3.39 0.0248 4.699-1.4355 3.349-3.7347 6.895-7.2953 10.357-10.93 1.445-1.5171 1.447-1.5474-0.017-3.1211-3.542-3.8058-7.177-7.5303-10.596-11.442z" fill="url(#a)"/>
<path d="m539.8 101.95c-1.326-1.516-2.741-1.64-4.621-1.363 4.532 4.852 8.974 9.606 13.455 14.403-4.417 4.62-8.793 9.198-13.278 13.889 1.993 0.354 3.39 0.025 4.7-1.435 3.349-3.735 6.894-7.296 10.356-10.93 1.445-1.518 1.448-1.548-0.017-3.122-3.541-3.805-7.176-7.53-10.595-11.442z" fill="url(#a)"/>
<path d="m595.16 68.487c-1.326-1.5166-2.741-1.6404-4.621-1.3634 4.533 4.8519 8.974 9.6062 13.455 14.403-4.417 4.6199-8.793 9.198-13.278 13.889 1.993 0.3541 3.39 0.0248 4.7-1.4355 3.349-3.7347 6.894-7.2953 10.356-10.93 1.446-1.5171 1.448-1.5474-0.016-3.1211-3.542-3.8058-7.177-7.5303-10.596-11.442z" fill="url(#a)"/>
<path d="m576.73 101.95c-1.326-1.516-2.741-1.64-4.622-1.363 4.533 4.852 8.975 9.606 13.455 14.403-4.416 4.62-8.792 9.198-13.277 13.889 1.992 0.354 3.39 0.025 4.699-1.435 3.35-3.735 6.895-7.296 10.357-10.93 1.445-1.518 1.448-1.548-0.017-3.122-3.541-3.805-7.176-7.53-10.595-11.442z" fill="url(#a)"/>
<path d="m632.05 68.487c-1.326-1.5166-2.741-1.6404-4.621-1.3634 4.532 4.8519 8.974 9.6062 13.454 14.403-4.416 4.6199-8.792 9.198-13.277 13.889 1.993 0.3541 3.39 0.0248 4.7-1.4355 3.349-3.7347 6.894-7.2953 10.356-10.93 1.445-1.5171 1.448-1.5474-0.017-3.1211-3.541-3.8058-7.176-7.5303-10.595-11.442z" fill="url(#a)"/>
<path d="m613.61 101.95c-1.325-1.516-2.741-1.64-4.621-1.363 4.533 4.852 8.974 9.606 13.455 14.403-4.416 4.62-8.793 9.198-13.278 13.889 1.993 0.354 3.391 0.025 4.7-1.435 3.349-3.735 6.895-7.296 10.357-10.93 1.445-1.518 1.447-1.548-0.017-3.122-3.542-3.805-7.177-7.53-10.596-11.442z" fill="url(#a)"/>
<path d="m668.98 68.487c-1.326-1.5166-2.741-1.6404-4.622-1.3634 4.533 4.8519 8.974 9.6062 13.455 14.403-4.416 4.6199-8.793 9.198-13.277 13.889 1.992 0.3541 3.39 0.0248 4.699-1.4355 3.35-3.7347 6.895-7.2953 10.357-10.93 1.445-1.5171 1.448-1.5474-0.017-3.1211-3.541-3.8058-7.176-7.5303-10.595-11.442z" fill="url(#a)"/>
<path d="m650.54 101.95c-1.326-1.516-2.741-1.64-4.621-1.363 4.532 4.852 8.974 9.606 13.455 14.403-4.417 4.62-8.793 9.198-13.278 13.889 1.993 0.354 3.39 0.025 4.7-1.435 3.349-3.735 6.894-7.296 10.356-10.93 1.445-1.518 1.448-1.548-0.016-3.122-3.542-3.805-7.177-7.53-10.596-11.442z" fill="url(#a)"/>
<path d="m705.86 68.487c-1.325-1.5166-2.74-1.6404-4.621-1.3634 4.533 4.8519 8.974 9.6062 13.455 14.403-4.416 4.6199-8.793 9.198-13.278 13.889 1.993 0.3541 3.39 0.0248 4.7-1.4355 3.349-3.7347 6.895-7.2953 10.356-10.93 1.446-1.5171 1.448-1.5474-0.016-3.1211-3.542-3.8058-7.177-7.5303-10.596-11.442z" fill="url(#a)"/>
<path d="m687.43 101.95c-1.326-1.516-2.741-1.64-4.621-1.363 4.532 4.852 8.974 9.606 13.454 14.403-4.416 4.62-8.792 9.198-13.277 13.889 1.993 0.354 3.39 0.025 4.7-1.435 3.349-3.735 6.894-7.296 10.356-10.93 1.445-1.518 1.448-1.548-0.017-3.122-3.541-3.805-7.176-7.53-10.595-11.442z" fill="url(#a)"/>
<path d="m742.79 68.487c-1.326-1.5166-2.741-1.6404-4.621-1.3634 4.533 4.8519 8.974 9.6062 13.455 14.403-4.417 4.6199-8.793 9.198-13.278 13.889 1.993 0.3541 3.39 0.0248 4.7-1.4355 3.349-3.7347 6.894-7.2953 10.357-10.93 1.444-1.5171 1.447-1.5474-0.017-3.1211-3.542-3.8058-7.177-7.5303-10.596-11.442z" fill="url(#a)"/>
<path d="m724.36 101.95c-1.326-1.516-2.741-1.64-4.622-1.363 4.533 4.852 8.974 9.606 13.455 14.403-4.416 4.62-8.793 9.198-13.277 13.889 1.992 0.354 3.39 0.025 4.699-1.435 3.35-3.735 6.895-7.296 10.357-10.93 1.445-1.518 1.447-1.548-0.017-3.122-3.541-3.805-7.176-7.53-10.595-11.442z" fill="url(#a)"/>
<path d="m779.68 68.487c-1.326-1.5166-2.741-1.6404-4.621-1.3634 4.532 4.8519 8.974 9.6062 13.455 14.403-4.417 4.6199-8.793 9.198-13.278 13.889 1.993 0.3541 3.39 0.0248 4.7-1.4355 3.349-3.7347 6.894-7.2953 10.356-10.93 1.445-1.5171 1.448-1.5474-0.016-3.1211-3.542-3.8058-7.177-7.5303-10.596-11.442z" fill="url(#a)"/>
<path d="m761.24 101.95c-1.325-1.516-2.741-1.64-4.621-1.363 4.533 4.852 8.974 9.606 13.455 14.403-4.416 4.62-8.793 9.198-13.277 13.889 1.992 0.354 3.39 0.025 4.699-1.435 3.349-3.735 6.894-7.296 10.357-10.93 1.445-1.518 1.447-1.548-0.017-3.122-3.542-3.805-7.177-7.53-10.596-11.442z" fill="url(#a)"/>
<path d="m816.61 68.487c-1.326-1.5166-2.741-1.6404-4.622-1.3634 4.533 4.8519 8.974 9.6062 13.455 14.403-4.416 4.6199-8.793 9.198-13.277 13.889 1.992 0.3541 3.39 0.0248 4.699-1.4355 3.35-3.7347 6.895-7.2953 10.357-10.93 1.445-1.5171 1.448-1.5474-0.017-3.1211-3.541-3.8058-7.176-7.5303-10.595-11.442z" fill="url(#a)"/>
<path d="m798.17 101.95c-1.326-1.516-2.741-1.64-4.621-1.363 4.532 4.852 8.974 9.606 13.454 14.403-4.416 4.62-8.792 9.198-13.277 13.889 1.993 0.354 3.39 0.025 4.7-1.435 3.349-3.735 6.894-7.296 10.356-10.93 1.445-1.518 1.448-1.548-0.017-3.122-3.541-3.805-7.176-7.53-10.595-11.442z" fill="url(#a)"/>
<path d="m853.49 68.487c-1.325-1.5166-2.741-1.6404-4.621-1.3634 4.533 4.8519 8.974 9.6062 13.455 14.403-4.417 4.6199-8.793 9.198-13.278 13.889 1.993 0.3541 3.39 0.0248 4.7-1.4355 3.349-3.7347 6.894-7.2953 10.356-10.93 1.446-1.5171 1.448-1.5474-0.016-3.1211-3.542-3.8058-7.177-7.5303-10.596-11.442z" fill="url(#a)"/>
<path d="m835.06 101.95c-1.326-1.516-2.741-1.64-4.621-1.363 4.532 4.852 8.974 9.606 13.454 14.403-4.416 4.62-8.792 9.198-13.277 13.889 1.993 0.354 3.39 0.025 4.7-1.435 3.349-3.735 6.894-7.296 10.356-10.93 1.445-1.518 1.448-1.548-0.017-3.122-3.541-3.805-7.176-7.53-10.595-11.442z" fill="url(#a)"/>
<path d="m890.42 68.487c-1.326-1.5166-2.741-1.6404-4.621-1.3634 4.532 4.8519 8.974 9.6062 13.455 14.403-4.417 4.6199-8.793 9.198-13.278 13.889 1.993 0.3541 3.39 0.0248 4.7-1.4355 3.349-3.7347 6.894-7.2953 10.356-10.93 1.445-1.5171 1.448-1.5474-0.017-3.1211-3.541-3.8058-7.176-7.5303-10.595-11.442z" fill="url(#a)"/>
<path d="m871.98 101.95c-1.325-1.516-2.74-1.64-4.621-1.363 4.533 4.852 8.974 9.606 13.455 14.403-4.416 4.62-8.793 9.198-13.277 13.889 1.992 0.354 3.39 0.025 4.699-1.435 3.35-3.735 6.895-7.296 10.357-10.93 1.445-1.518 1.447-1.548-0.017-3.122-3.542-3.805-7.176-7.53-10.596-11.442z" fill="url(#a)"/>
<path d="m927.35 68.487c-1.326-1.5166-2.741-1.6404-4.621-1.3634 4.532 4.8519 8.973 9.6062 13.454 14.403-4.416 4.6199-8.793 9.198-13.277 13.889 1.992 0.3541 3.39 0.0248 4.699-1.4355 3.35-3.7347 6.895-7.2953 10.357-10.93 1.445-1.5171 1.447-1.5474-0.017-3.1211-3.542-3.8058-7.176-7.5303-10.595-11.442z" fill="url(#a)"/>
<path d="m908.91 101.95c-1.326-1.516-2.741-1.64-4.621-1.363 4.533 4.852 8.974 9.606 13.455 14.403-4.417 4.62-8.793 9.198-13.278 13.889 1.993 0.354 3.39 0.025 4.7-1.435 3.349-3.735 6.894-7.296 10.356-10.93 1.445-1.518 1.448-1.548-0.016-3.122-3.542-3.805-7.177-7.53-10.596-11.442z" fill="url(#a)"/>
<path d="m964.28 68.487c-1.325-1.5166-2.74-1.6404-4.621-1.3634 4.533 4.8519 8.974 9.6062 13.455 14.403-4.416 4.6199-8.793 9.198-13.277 13.889 1.992 0.3541 3.39 0.0248 4.699-1.4355 3.35-3.7347 6.895-7.2953 10.357-10.93 1.445-1.5171 1.447-1.5474-0.017-3.1211-3.542-3.8058-7.177-7.5303-10.596-11.442z" fill="url(#a)"/>
<path d="m945.84 101.95c-1.326-1.516-2.741-1.64-4.621-1.363 4.532 4.852 8.974 9.606 13.454 14.403-4.416 4.62-8.792 9.198-13.277 13.889 1.993 0.354 3.39 0.025 4.7-1.435 3.349-3.735 6.894-7.296 10.356-10.93 1.445-1.518 1.448-1.548-0.016-3.122-3.542-3.805-7.177-7.53-10.596-11.442z" fill="url(#a)"/>
<path d="m1001.2 68.487c-1.325-1.5166-2.741-1.6404-4.621-1.3634 4.531 4.8519 8.971 9.6062 13.451 14.403-4.41 4.6199-8.79 9.198-13.274 13.889 1.993 0.3541 3.394 0.0248 4.704-1.4355 3.35-3.7347 6.89-7.2953 10.35-10.93 1.45-1.5171 1.45-1.5474-0.01-3.1211-3.55-3.8058-7.18-7.5303-10.6-11.442z" fill="url(#a)"/>
<path d="m982.73 101.95c-1.326-1.516-2.741-1.64-4.622-1.363 4.533 4.852 8.974 9.606 13.455 14.403-4.416 4.62-8.792 9.198-13.277 13.889 1.992 0.354 3.39 0.025 4.699-1.435 3.35-3.735 6.895-7.296 10.357-10.93 1.445-1.518 1.448-1.548-0.017-3.122-3.541-3.805-7.176-7.53-10.595-11.442z" fill="url(#a)"/>
<path d="m1038.1 68.487c-1.33-1.5166-2.74-1.6404-4.62-1.3634 4.53 4.8519 8.97 9.6062 13.45 14.403-4.41 4.6199-8.79 9.198-13.27 13.889 1.99 0.3541 3.39 0.0248 4.7-1.4355 3.34-3.7347 6.89-7.2953 10.35-10.93 1.45-1.5171 1.45-1.5474-0.01-3.1211-3.55-3.8058-7.18-7.5303-10.6-11.442z" fill="url(#a)"/>
<path d="m1019.7 101.95c-1.33-1.516-2.74-1.64-4.62-1.363 4.53 4.852 8.97 9.606 13.45 14.403-4.42 4.62-8.79 9.198-13.28 13.889 2 0.354 3.39 0.025 4.7-1.435 3.35-3.735 6.9-7.296 10.36-10.93 1.44-1.518 1.45-1.548-0.02-3.122-3.54-3.805-7.17-7.53-10.59-11.442z" fill="url(#a)"/>
<path d="m1075 68.487c-1.32-1.5166-2.74-1.6404-4.62-1.3634 4.54 4.8519 8.98 9.6062 13.46 14.403-4.42 4.6199-8.79 9.198-13.28 13.889 1.99 0.3541 3.39 0.0248 4.7-1.4355 3.35-3.7347 6.9-7.2953 10.36-10.93 1.44-1.5171 1.44-1.5474-0.02-3.1211-3.54-3.8058-7.18-7.5303-10.6-11.442z" fill="url(#a)"/>
<path d="m1056.5 101.95c-1.33-1.516-2.74-1.64-4.62-1.363 4.53 4.852 8.97 9.606 13.45 14.403-4.41 4.62-8.79 9.198-13.27 13.889 1.99 0.354 3.39 0.025 4.7-1.435 3.34-3.735 6.89-7.296 10.35-10.93 1.45-1.518 1.45-1.548-0.02-3.122-3.54-3.805-7.17-7.53-10.59-11.442z" fill="url(#a)"/>
<path d="m1111.9 68.487c-1.32-1.5166-2.74-1.6404-4.62-1.3634 4.54 4.8519 8.98 9.6062 13.46 14.403-4.42 4.6199-8.79 9.198-13.28 13.889 1.99 0.3541 3.39 0.0248 4.7-1.4355 3.35-3.7347 6.89-7.2953 10.36-10.93 1.44-1.5171 1.44-1.5474-0.02-3.1211-3.54-3.8058-7.18-7.5303-10.6-11.442z" fill="url(#a)"/>
<path d="m1093.5 101.95c-1.33-1.516-2.74-1.64-4.62-1.363 4.53 4.852 8.97 9.606 13.45 14.403-4.41 4.62-8.79 9.198-13.27 13.889 1.99 0.354 3.39 0.025 4.69-1.435 3.35-3.735 6.9-7.296 10.36-10.93 1.45-1.518 1.45-1.548-0.02-3.122-3.54-3.805-7.17-7.53-10.59-11.442z" fill="url(#a)"/>
<path d="m1148.8 68.487c-1.33-1.5166-2.74-1.6404-4.62-1.3634 4.53 4.8519 8.97 9.6062 13.45 14.403-4.41 4.6199-8.79 9.198-13.28 13.889 2 0.3541 3.39 0.0248 4.7-1.4355 3.35-3.7347 6.9-7.2953 10.36-10.93 1.45-1.5171 1.45-1.5474-0.02-3.1211-3.54-3.8058-7.17-7.5303-10.59-11.442z" fill="url(#a)"/>
<path d="m1130.4 101.95c-1.32-1.516-2.74-1.64-4.62-1.363 4.54 4.852 8.98 9.606 13.46 14.403-4.42 4.62-8.8 9.198-13.28 13.889 1.99 0.354 3.39 0.025 4.7-1.435 3.35-3.735 6.89-7.296 10.36-10.93 1.44-1.518 1.44-1.548-0.02-3.122-3.54-3.805-7.18-7.53-10.6-11.442z" fill="url(#a)"/>
<path d="m1167.3 101.95c-1.32-1.516-2.74-1.64-4.62-1.363 4.53 4.852 8.98 9.606 13.46 14.403-4.42 4.62-8.8 9.198-13.28 13.889 1.99 0.354 3.39 0.025 4.7-1.435 3.35-3.735 6.89-7.296 10.36-10.93 1.44-1.518 1.44-1.548-0.02-3.122-3.54-3.805-7.18-7.53-10.6-11.442z" fill="url(#a)"/>
<path d="m1222.5 68.487c-1.33-1.5166-2.74-1.6404-4.62-1.3634 4.53 4.8519 8.97 9.6062 13.45 14.403-4.42 4.6199-8.79 9.198-13.28 13.889 2 0.3541 3.39 0.0248 4.7-1.4355 3.35-3.7347 6.9-7.2953 10.36-10.93 1.44-1.5171 1.45-1.5474-0.02-3.1211-3.54-3.8058-7.17-7.5303-10.59-11.442z" fill="url(#a)"/>
<path d="m1185.6 68.487c-1.33-1.5166-2.74-1.6404-4.62-1.3634 4.53 4.8519 8.97 9.6062 13.45 14.403-4.42 4.6199-8.79 9.198-13.28 13.889 2 0.3541 3.39 0.0248 4.7-1.4355 3.35-3.7347 6.9-7.2953 10.36-10.93 1.44-1.5171 1.45-1.5474-0.02-3.1211-3.54-3.8058-7.17-7.5303-10.59-11.442z" fill="url(#a)"/>
<path d="m1204.1 101.95c-1.32-1.516-2.74-1.64-4.62-1.363 4.53 4.852 8.97 9.606 13.46 14.403-4.42 4.62-8.8 9.198-13.28 13.889 1.99 0.354 3.39 0.025 4.7-1.435 3.35-3.735 6.89-7.296 10.35-10.93 1.45-1.518 1.45-1.548-0.01-3.122-3.54-3.805-7.18-7.53-10.6-11.442z" fill="url(#a)"/>
<path d="m1259.4 68.487c-1.33-1.5166-2.74-1.6404-4.62-1.3634 4.53 4.8519 8.97 9.6062 13.45 14.403-4.42 4.6199-8.79 9.198-13.28 13.889 2 0.3541 3.39 0.0248 4.7-1.4355 3.35-3.7347 6.9-7.2953 10.36-10.93 1.45-1.5171 1.45-1.5474-0.02-3.1211-3.54-3.8058-7.17-7.5303-10.59-11.442z" fill="url(#a)"/>
<path d="m1241 101.95c-1.32-1.516-2.74-1.64-4.62-1.363 4.53 4.852 8.97 9.606 13.46 14.403-4.42 4.62-8.8 9.198-13.28 13.889 1.99 0.354 3.39 0.025 4.7-1.435 3.35-3.735 6.89-7.296 10.35-10.93 1.45-1.518 1.45-1.548-0.01-3.122-3.54-3.805-7.18-7.53-10.6-11.442z" fill="url(#a)"/>
<path d="m1296.3 68.487c-1.33-1.5166-2.74-1.6404-4.62-1.3634 4.53 4.8519 8.97 9.6062 13.45 14.403-4.41 4.6199-8.79 9.198-13.27 13.889 1.99 0.3541 3.39 0.0248 4.7-1.4355 3.35-3.7347 6.89-7.2953 10.35-10.93 1.45-1.5171 1.45-1.5474-0.01-3.1211-3.55-3.8058-7.18-7.5303-10.6-11.442z" fill="url(#a)"/>
<path d="m1277.9 101.95c-1.33-1.516-2.75-1.64-4.63-1.363 4.54 4.852 8.98 9.606 13.46 14.403-4.42 4.62-8.79 9.198-13.28 13.889 1.99 0.354 3.39 0.025 4.7-1.435 3.35-3.735 6.9-7.296 10.36-10.93 1.44-1.518 1.45-1.548-0.02-3.122-3.54-3.805-7.18-7.53-10.59-11.442z" fill="url(#a)"/>
<path d="m1333.2 68.487c-1.32-1.5166-2.74-1.6404-4.62-1.3634 4.53 4.8519 8.97 9.6062 13.45 14.403-4.41 4.6199-8.79 9.198-13.27 13.889 1.99 0.3541 3.39 0.0248 4.7-1.4355 3.35-3.7347 6.89-7.2953 10.35-10.93 1.45-1.5171 1.45-1.5474-0.01-3.1211-3.54-3.8058-7.18-7.5303-10.6-11.442z" fill="url(#a)"/>
<path d="m1314.8 101.95c-1.33-1.516-2.75-1.64-4.63-1.363 4.54 4.852 8.98 9.606 13.46 14.403-4.42 4.62-8.79 9.198-13.28 13.889 1.99 0.354 3.39 0.025 4.7-1.435 3.35-3.735 6.9-7.296 10.36-10.93 1.44-1.518 1.45-1.548-0.02-3.122-3.54-3.805-7.18-7.53-10.59-11.442z" fill="url(#a)"/>
<path d="m1370.1 68.487c-1.32-1.5166-2.74-1.6404-4.62-1.3634 4.54 4.8519 8.98 9.6062 13.46 14.403-4.42 4.6199-8.79 9.198-13.28 13.889 1.99 0.3541 3.39 0.0248 4.7-1.4355 3.35-3.7347 6.9-7.2953 10.36-10.93 1.44-1.5171 1.44-1.5474-0.02-3.1211-3.54-3.8058-7.18-7.5303-10.6-11.442z" fill="url(#a)"/>
<path d="m1351.7 101.95c-1.33-1.516-2.74-1.64-4.62-1.363 4.53 4.852 8.97 9.606 13.45 14.403-4.41 4.62-8.79 9.198-13.27 13.889 1.99 0.354 3.39 0.025 4.7-1.435 3.34-3.735 6.89-7.296 10.35-10.93 1.45-1.518 1.45-1.548-0.02-3.122-3.54-3.805-7.17-7.53-10.59-11.442z" fill="url(#a)"/>
<path d="m1407.1 68.487c-1.32-1.5166-2.74-1.6404-4.62-1.3634 4.54 4.8519 8.98 9.6062 13.46 14.403-4.42 4.6199-8.79 9.198-13.28 13.889 1.99 0.3541 3.39 0.0248 4.7-1.4355 3.35-3.7347 6.89-7.2953 10.36-10.93 1.44-1.5171 1.44-1.5474-0.02-3.1211-3.54-3.8058-7.18-7.5303-10.6-11.442z" fill="url(#a)"/>
<path d="m1388.6 101.95c-1.33-1.516-2.74-1.64-4.62-1.363 4.53 4.852 8.97 9.606 13.45 14.403-4.41 4.62-8.79 9.198-13.27 13.889 1.99 0.354 3.39 0.025 4.7-1.435 3.35-3.735 6.89-7.296 10.35-10.93 1.45-1.518 1.45-1.548-0.01-3.122-3.55-3.805-7.18-7.53-10.6-11.442z" fill="url(#a)"/>
<path d="m1333.2 135.46c-1.32-1.517-2.74-1.641-4.62-1.364 4.53 4.852 8.97 9.607 13.45 14.403-4.41 4.62-8.79 9.198-13.27 13.889 1.99 0.355 3.39 0.025 4.7-1.435 3.35-3.735 6.89-7.295 10.35-10.93 1.45-1.517 1.45-1.548-0.01-3.121-3.54-3.806-7.18-7.531-10.6-11.442z" fill="url(#a)"/>
<path d="m1314.8 168.93c-1.33-1.517-2.75-1.64-4.63-1.363 4.54 4.851 8.98 9.606 13.46 14.402-4.42 4.62-8.79 9.198-13.28 13.89 1.99 0.354 3.39 0.024 4.7-1.436 3.35-3.735 6.9-7.295 10.36-10.93 1.44-1.517 1.45-1.547-0.02-3.121-3.54-3.806-7.18-7.53-10.59-11.442z" fill="url(#a)"/>
<path d="m1370.1 135.46c-1.32-1.517-2.74-1.641-4.62-1.364 4.54 4.852 8.98 9.607 13.46 14.403-4.42 4.62-8.79 9.198-13.28 13.889 1.99 0.355 3.39 0.025 4.7-1.435 3.35-3.735 6.9-7.295 10.36-10.93 1.44-1.517 1.44-1.548-0.02-3.121-3.54-3.806-7.18-7.531-10.6-11.442z" fill="url(#a)"/>
<path d="m1351.7 168.93c-1.33-1.517-2.74-1.64-4.62-1.363 4.53 4.851 8.97 9.606 13.45 14.402-4.41 4.62-8.79 9.198-13.27 13.89 1.99 0.354 3.39 0.024 4.7-1.436 3.34-3.735 6.89-7.295 10.35-10.93 1.45-1.517 1.45-1.547-0.02-3.121-3.54-3.806-7.17-7.53-10.59-11.442z" fill="url(#a)"/>
<path d="m1407.1 135.46c-1.32-1.517-2.74-1.641-4.62-1.364 4.54 4.852 8.98 9.607 13.46 14.403-4.42 4.62-8.79 9.198-13.28 13.889 1.99 0.355 3.39 0.025 4.7-1.435 3.35-3.735 6.89-7.295 10.36-10.93 1.44-1.517 1.44-1.548-0.02-3.121-3.54-3.806-7.18-7.531-10.6-11.442z" fill="url(#a)"/>
<path d="m1388.6 168.93c-1.33-1.517-2.74-1.64-4.62-1.363 4.53 4.851 8.97 9.606 13.45 14.402-4.41 4.62-8.79 9.198-13.27 13.89 1.99 0.354 3.39 0.024 4.7-1.436 3.35-3.735 6.89-7.295 10.35-10.93 1.45-1.517 1.45-1.547-0.01-3.121-3.55-3.806-7.18-7.53-10.6-11.442z" fill="url(#a)"/>
<path d="m1333.2 202.7c-1.32-1.516-2.74-1.64-4.62-1.363 4.53 4.852 8.97 9.606 13.45 14.403-4.41 4.62-8.79 9.198-13.27 13.889 1.99 0.354 3.39 0.025 4.7-1.435 3.35-3.735 6.89-7.296 10.35-10.931 1.45-1.517 1.45-1.547-0.01-3.121-3.54-3.805-7.18-7.53-10.6-11.442z" fill="url(#a)"/>
<path d="m1314.8 236.17c-1.33-1.517-2.75-1.641-4.63-1.364 4.54 4.852 8.98 9.606 13.46 14.403-4.42 4.62-8.79 9.198-13.28 13.889 1.99 0.355 3.39 0.025 4.7-1.435 3.35-3.735 6.9-7.295 10.36-10.93 1.44-1.517 1.45-1.548-0.02-3.121-3.54-3.806-7.18-7.531-10.59-11.442z" fill="url(#a)"/>
<path d="m1370.1 202.7c-1.32-1.516-2.74-1.64-4.62-1.363 4.54 4.852 8.98 9.606 13.46 14.403-4.42 4.62-8.79 9.198-13.28 13.889 1.99 0.354 3.39 0.025 4.7-1.435 3.35-3.735 6.9-7.296 10.36-10.931 1.44-1.517 1.44-1.547-0.02-3.121-3.54-3.805-7.18-7.53-10.6-11.442z" fill="url(#a)"/>
<path d="m1351.7 236.17c-1.33-1.517-2.74-1.641-4.62-1.364 4.53 4.852 8.97 9.606 13.45 14.403-4.41 4.62-8.79 9.198-13.27 13.889 1.99 0.355 3.39 0.025 4.7-1.435 3.34-3.735 6.89-7.295 10.35-10.93 1.45-1.517 1.45-1.548-0.02-3.121-3.54-3.806-7.17-7.531-10.59-11.442z" fill="url(#a)"/>
<path d="m1407.1 202.7c-1.32-1.516-2.74-1.64-4.62-1.363 4.54 4.852 8.98 9.606 13.46 14.403-4.42 4.62-8.79 9.198-13.28 13.889 1.99 0.354 3.39 0.025 4.7-1.435 3.35-3.735 6.89-7.296 10.36-10.931 1.44-1.517 1.44-1.547-0.02-3.121-3.54-3.805-7.18-7.53-10.6-11.442z" fill="url(#a)"/>
<path d="m1388.6 236.17c-1.33-1.517-2.74-1.641-4.62-1.364 4.53 4.852 8.97 9.606 13.45 14.403-4.41 4.62-8.79 9.198-13.27 13.889 1.99 0.355 3.39 0.025 4.7-1.435 3.35-3.735 6.89-7.295 10.35-10.93 1.45-1.517 1.45-1.548-0.01-3.121-3.55-3.806-7.18-7.531-10.6-11.442z" fill="url(#a)"/>
<path d="m1333.2 269.68c-1.32-1.517-2.74-1.64-4.62-1.363 4.53 4.851 8.97 9.606 13.45 14.402-4.41 4.62-8.79 9.198-13.27 13.89 1.99 0.354 3.39 0.024 4.7-1.436 3.35-3.735 6.89-7.295 10.35-10.93 1.45-1.517 1.45-1.547-0.01-3.121-3.54-3.806-7.18-7.53-10.6-11.442z" fill="url(#a)"/>
<path d="m1314.8 303.15c-1.33-1.516-2.75-1.64-4.63-1.363 4.54 4.852 8.98 9.606 13.46 14.402-4.42 4.62-8.79 9.199-13.28 13.89 1.99 0.354 3.39 0.025 4.7-1.436 3.35-3.734 6.9-7.295 10.36-10.93 1.44-1.517 1.45-1.547-0.02-3.121-3.54-3.806-7.18-7.53-10.59-11.442z" fill="url(#a)"/>
<path d="m1370.1 269.68c-1.32-1.517-2.74-1.64-4.62-1.363 4.54 4.851 8.98 9.606 13.46 14.402-4.42 4.62-8.79 9.198-13.28 13.89 1.99 0.354 3.39 0.024 4.7-1.436 3.35-3.735 6.9-7.295 10.36-10.93 1.44-1.517 1.44-1.547-0.02-3.121-3.54-3.806-7.18-7.53-10.6-11.442z" fill="url(#a)"/>
<path d="m1351.7 303.15c-1.33-1.516-2.74-1.64-4.62-1.363 4.53 4.852 8.97 9.606 13.45 14.402-4.41 4.62-8.79 9.199-13.27 13.89 1.99 0.354 3.39 0.025 4.7-1.436 3.34-3.734 6.89-7.295 10.35-10.93 1.45-1.517 1.45-1.547-0.02-3.121-3.54-3.806-7.17-7.53-10.59-11.442z" fill="url(#a)"/>
<path d="m1407.1 269.68c-1.32-1.517-2.74-1.64-4.62-1.363 4.54 4.851 8.98 9.606 13.46 14.402-4.42 4.62-8.79 9.198-13.28 13.89 1.99 0.354 3.39 0.024 4.7-1.436 3.35-3.735 6.89-7.295 10.36-10.93 1.44-1.517 1.44-1.547-0.02-3.121-3.54-3.806-7.18-7.53-10.6-11.442z" fill="url(#a)"/>
<path d="m1388.6 303.15c-1.33-1.516-2.74-1.64-4.62-1.363 4.53 4.852 8.97 9.606 13.45 14.402-4.41 4.62-8.79 9.199-13.27 13.89 1.99 0.354 3.39 0.025 4.7-1.436 3.35-3.734 6.89-7.295 10.35-10.93 1.45-1.517 1.45-1.547-0.01-3.121-3.55-3.806-7.18-7.53-10.6-11.442z" fill="url(#a)"/>
<path d="m1333.2 336.72c-1.32-1.517-2.74-1.641-4.62-1.364 4.53 4.852 8.97 9.606 13.45 14.403-4.41 4.62-8.79 9.198-13.27 13.889 1.99 0.354 3.39 0.025 4.7-1.435 3.35-3.735 6.89-7.296 10.35-10.93 1.45-1.518 1.45-1.548-0.01-3.122-3.54-3.805-7.18-7.53-10.6-11.441z" fill="url(#a)"/>
<path d="m1314.8 370.18c-1.33-1.517-2.75-1.641-4.63-1.364 4.54 4.852 8.98 9.607 13.46 14.403-4.42 4.62-8.79 9.198-13.28 13.89 1.99 0.354 3.39 0.024 4.7-1.436 3.35-3.735 6.9-7.295 10.36-10.93 1.44-1.517 1.45-1.547-0.02-3.121-3.54-3.806-7.18-7.53-10.59-11.442z" fill="url(#a)"/>
<path d="m1370.1 336.72c-1.32-1.517-2.74-1.641-4.62-1.364 4.54 4.852 8.98 9.606 13.46 14.403-4.42 4.62-8.79 9.198-13.28 13.889 1.99 0.354 3.39 0.025 4.7-1.435 3.35-3.735 6.9-7.296 10.36-10.93 1.44-1.518 1.44-1.548-0.02-3.122-3.54-3.805-7.18-7.53-10.6-11.441z" fill="url(#a)"/>
<path d="m1351.7 370.18c-1.33-1.517-2.74-1.641-4.62-1.364 4.53 4.852 8.97 9.607 13.45 14.403-4.41 4.62-8.79 9.198-13.27 13.89 1.99 0.354 3.39 0.024 4.7-1.436 3.34-3.735 6.89-7.295 10.35-10.93 1.45-1.517 1.45-1.547-0.02-3.121-3.54-3.806-7.17-7.53-10.59-11.442z" fill="url(#a)"/>
<path d="m1407.1 336.72c-1.32-1.517-2.74-1.641-4.62-1.364 4.54 4.852 8.98 9.606 13.46 14.403-4.42 4.62-8.79 9.198-13.28 13.889 1.99 0.354 3.39 0.025 4.7-1.435 3.35-3.735 6.89-7.296 10.36-10.93 1.44-1.518 1.44-1.548-0.02-3.122-3.54-3.805-7.18-7.53-10.6-11.441z" fill="url(#a)"/>
<path d="m1388.6 370.18c-1.33-1.517-2.74-1.641-4.62-1.364 4.53 4.852 8.97 9.607 13.45 14.403-4.41 4.62-8.79 9.198-13.27 13.89 1.99 0.354 3.39 0.024 4.7-1.436 3.35-3.735 6.89-7.295 10.35-10.93 1.45-1.517 1.45-1.547-0.01-3.121-3.55-3.806-7.18-7.53-10.6-11.442z" fill="url(#a)"/>
<path d="m23.057 437.16c-1.3257-1.517-2.7408-1.64-4.6211-1.363 4.5325 4.851 8.9739 9.606 13.455 14.402-4.4164 4.62-8.7927 9.198-13.277 13.89 1.9926 0.354 3.39 0.024 4.6996-1.436 3.3492-3.735 6.8944-7.295 10.356-10.93 1.4451-1.517 1.4478-1.547-0.0168-3.121-3.5415-3.806-7.1764-7.53-10.596-11.442z" fill="url(#a)"/>
<path d="m59.986 437.16c-1.3256-1.517-2.7407-1.64-4.6211-1.363 4.5326 4.851 8.974 9.606 13.455 14.402-4.4165 4.62-8.7927 9.198-13.277 13.89 1.9924 0.354 3.39 0.024 4.6995-1.436 3.3494-3.735 6.8945-7.295 10.357-10.93 1.4449-1.517 1.4476-1.547-0.0168-3.121-3.5416-3.806-7.1765-7.53-10.596-11.442z" fill="url(#a)"/>
<path d="m96.871 437.16c-1.3256-1.517-2.7408-1.64-4.6212-1.363 4.5327 4.851 8.974 9.606 13.455 14.402-4.417 4.62-8.7929 9.198-13.278 13.89 1.9924 0.354 3.39 0.024 4.6995-1.436 3.349-3.735 6.894-7.295 10.357-10.93 1.444-1.517 1.447-1.547-0.017-3.121-3.542-3.806-7.177-7.53-10.596-11.442z" fill="url(#a)"/>
<path d="m133.8 437.16c-1.326-1.517-2.741-1.64-4.621-1.363 4.532 4.851 8.974 9.606 13.454 14.402-4.416 4.62-8.792 9.198-13.277 13.89 1.992 0.354 3.39 0.024 4.7-1.436 3.349-3.735 6.894-7.295 10.356-10.93 1.445-1.517 1.448-1.547-0.017-3.121-3.541-3.806-7.176-7.53-10.595-11.442z" fill="url(#a)"/>
<path d="m170.68 437.16c-1.326-1.517-2.741-1.64-4.622-1.363 4.533 4.851 8.974 9.606 13.455 14.402-4.416 4.62-8.793 9.198-13.277 13.89 1.992 0.354 3.39 0.024 4.699-1.436 3.35-3.735 6.895-7.295 10.357-10.93 1.445-1.517 1.448-1.547-0.017-3.121-3.541-3.806-7.176-7.53-10.595-11.442z" fill="url(#a)"/>
<path d="m207.61 437.16c-1.325-1.517-2.741-1.64-4.621-1.363 4.533 4.851 8.974 9.606 13.455 14.402-4.417 4.62-8.793 9.198-13.278 13.89 1.993 0.354 3.39 0.024 4.7-1.436 3.349-3.735 6.894-7.295 10.356-10.93 1.446-1.517 1.448-1.547-0.016-3.121-3.542-3.806-7.177-7.53-10.596-11.442z" fill="url(#a)"/>
<path d="m244.5 437.16c-1.326-1.517-2.741-1.64-4.621-1.363 4.533 4.851 8.974 9.606 13.455 14.402-4.417 4.62-8.793 9.198-13.278 13.89 1.993 0.354 3.39 0.024 4.7-1.436 3.349-3.735 6.894-7.295 10.356-10.93 1.445-1.517 1.448-1.547-0.017-3.121-3.541-3.806-7.176-7.53-10.595-11.442z" fill="url(#a)"/>
<path d="m281.43 437.16c-1.326-1.517-2.741-1.64-4.621-1.363 4.532 4.851 8.974 9.606 13.454 14.402-4.416 4.62-8.792 9.198-13.277 13.89 1.993 0.354 3.39 0.024 4.7-1.436 3.349-3.735 6.894-7.295 10.356-10.93 1.445-1.517 1.448-1.547-0.017-3.121-3.541-3.806-7.176-7.53-10.595-11.442z" fill="url(#a)"/>
<path d="m318.36 437.16c-1.325-1.517-2.74-1.64-4.621-1.363 4.533 4.851 8.974 9.606 13.455 14.402-4.416 4.62-8.793 9.198-13.277 13.89 1.992 0.354 3.39 0.024 4.699-1.436 3.35-3.735 6.895-7.295 10.357-10.93 1.445-1.517 1.448-1.547-0.017-3.121-3.542-3.806-7.176-7.53-10.596-11.442z" fill="url(#a)"/>
<path d="m355.28 437.16c-1.325-1.517-2.741-1.64-4.621-1.363 4.533 4.851 8.974 9.606 13.455 14.402-4.417 4.62-8.793 9.198-13.277 13.89 1.992 0.354 3.39 0.024 4.699-1.436 3.349-3.735 6.895-7.295 10.357-10.93 1.445-1.517 1.447-1.547-0.017-3.121-3.542-3.806-7.177-7.53-10.596-11.442z" fill="url(#a)"/>
<path d="m392.17 437.16c-1.326-1.517-2.741-1.64-4.621-1.363 4.533 4.851 8.974 9.606 13.455 14.402-4.417 4.62-8.793 9.198-13.278 13.89 1.993 0.354 3.39 0.024 4.7-1.436 3.349-3.735 6.894-7.295 10.356-10.93 1.445-1.517 1.448-1.547-0.016-3.121-3.542-3.806-7.177-7.53-10.596-11.442z" fill="url(#a)"/>
<path d="m429.1 437.16c-1.326-1.517-2.741-1.64-4.621-1.363 4.532 4.851 8.974 9.606 13.454 14.402-4.416 4.62-8.792 9.198-13.277 13.89 1.992 0.354 3.39 0.024 4.7-1.436 3.349-3.735 6.894-7.295 10.356-10.93 1.445-1.517 1.448-1.547-0.017-3.121-3.541-3.806-7.176-7.53-10.595-11.442z" fill="url(#a)"/>
<path d="m465.98 437.16c-1.326-1.517-2.741-1.64-4.622-1.363 4.533 4.851 8.974 9.606 13.455 14.402-4.416 4.62-8.793 9.198-13.277 13.89 1.992 0.354 3.39 0.024 4.699-1.436 3.35-3.735 6.895-7.295 10.357-10.93 1.445-1.517 1.448-1.547-0.017-3.121-3.541-3.806-7.176-7.53-10.595-11.442z" fill="url(#a)"/>
<path d="m502.91 437.16c-1.326-1.517-2.741-1.64-4.621-1.363 4.533 4.851 8.974 9.606 13.455 14.402-4.417 4.62-8.793 9.198-13.278 13.89 1.993 0.354 3.39 0.024 4.7-1.436 3.349-3.735 6.894-7.295 10.356-10.93 1.445-1.517 1.448-1.547-0.016-3.121-3.542-3.806-7.177-7.53-10.596-11.442z" fill="url(#a)"/>
<path d="m539.8 437.16c-1.326-1.517-2.741-1.64-4.621-1.363 4.532 4.851 8.974 9.606 13.455 14.402-4.417 4.62-8.793 9.198-13.278 13.89 1.993 0.354 3.39 0.024 4.7-1.436 3.349-3.735 6.894-7.295 10.356-10.93 1.445-1.517 1.448-1.547-0.017-3.121-3.541-3.806-7.176-7.53-10.595-11.442z" fill="url(#a)"/>
<path d="m576.73 437.16c-1.326-1.517-2.741-1.64-4.622-1.363 4.533 4.851 8.975 9.606 13.455 14.402-4.416 4.62-8.792 9.198-13.277 13.89 1.992 0.354 3.39 0.024 4.699-1.436 3.35-3.735 6.895-7.295 10.357-10.93 1.445-1.517 1.448-1.547-0.017-3.121-3.541-3.806-7.176-7.53-10.595-11.442z" fill="url(#a)"/>
<path d="m613.61 437.16c-1.325-1.517-2.741-1.64-4.621-1.363 4.533 4.851 8.974 9.606 13.455 14.402-4.416 4.62-8.793 9.198-13.278 13.89 1.993 0.354 3.391 0.024 4.7-1.436 3.349-3.735 6.895-7.295 10.357-10.93 1.445-1.517 1.447-1.547-0.017-3.121-3.542-3.806-7.177-7.53-10.596-11.442z" fill="url(#a)"/>
<path d="m650.54 437.16c-1.326-1.517-2.741-1.64-4.621-1.363 4.532 4.851 8.974 9.606 13.455 14.402-4.417 4.62-8.793 9.198-13.278 13.89 1.993 0.354 3.39 0.024 4.7-1.436 3.349-3.735 6.894-7.295 10.356-10.93 1.445-1.517 1.448-1.547-0.016-3.121-3.542-3.806-7.177-7.53-10.596-11.442z" fill="url(#a)"/>
<path d="m687.43 437.16c-1.326-1.517-2.741-1.64-4.621-1.363 4.532 4.851 8.974 9.606 13.454 14.402-4.416 4.62-8.792 9.198-13.277 13.89 1.993 0.354 3.39 0.024 4.7-1.436 3.349-3.735 6.894-7.295 10.356-10.93 1.445-1.517 1.448-1.547-0.017-3.121-3.541-3.806-7.176-7.53-10.595-11.442z" fill="url(#a)"/>
<path d="m724.36 437.16c-1.326-1.517-2.741-1.64-4.622-1.363 4.533 4.851 8.974 9.606 13.455 14.402-4.416 4.62-8.793 9.198-13.277 13.89 1.992 0.354 3.39 0.024 4.699-1.436 3.35-3.735 6.895-7.295 10.357-10.93 1.445-1.517 1.447-1.547-0.017-3.121-3.541-3.806-7.176-7.53-10.595-11.442z" fill="url(#a)"/>
<path d="m761.24 437.16c-1.325-1.517-2.741-1.64-4.621-1.363 4.533 4.851 8.974 9.606 13.455 14.402-4.416 4.62-8.793 9.198-13.277 13.89 1.992 0.354 3.39 0.024 4.699-1.436 3.349-3.735 6.894-7.295 10.357-10.93 1.445-1.517 1.447-1.547-0.017-3.121-3.542-3.806-7.177-7.53-10.596-11.442z" fill="url(#a)"/>
<path d="m798.17 437.16c-1.326-1.517-2.741-1.64-4.621-1.363 4.532 4.851 8.974 9.606 13.454 14.402-4.416 4.62-8.792 9.198-13.277 13.89 1.993 0.354 3.39 0.024 4.7-1.436 3.349-3.735 6.894-7.295 10.356-10.93 1.445-1.517 1.448-1.547-0.017-3.121-3.541-3.806-7.176-7.53-10.595-11.442z" fill="url(#a)"/>
<path d="m835.06 437.16c-1.326-1.517-2.741-1.64-4.621-1.363 4.532 4.851 8.974 9.606 13.454 14.402-4.416 4.62-8.792 9.198-13.277 13.89 1.993 0.354 3.39 0.024 4.7-1.436 3.349-3.735 6.894-7.295 10.356-10.93 1.445-1.517 1.448-1.547-0.017-3.121-3.541-3.806-7.176-7.53-10.595-11.442z" fill="url(#a)"/>
<path d="m871.98 437.16c-1.325-1.517-2.74-1.64-4.621-1.363 4.533 4.851 8.974 9.606 13.455 14.402-4.416 4.62-8.793 9.198-13.277 13.89 1.992 0.354 3.39 0.024 4.699-1.436 3.35-3.735 6.895-7.295 10.357-10.93 1.445-1.517 1.447-1.547-0.017-3.121-3.542-3.806-7.176-7.53-10.596-11.442z" fill="url(#a)"/>
<path d="m908.91 437.16c-1.326-1.517-2.741-1.64-4.621-1.363 4.533 4.851 8.974 9.606 13.455 14.402-4.417 4.62-8.793 9.198-13.278 13.89 1.993 0.354 3.39 0.024 4.7-1.436 3.349-3.735 6.894-7.295 10.356-10.93 1.445-1.517 1.448-1.547-0.016-3.121-3.542-3.806-7.177-7.53-10.596-11.442z" fill="url(#a)"/>
<path d="m945.84 437.16c-1.326-1.517-2.741-1.64-4.621-1.363 4.532 4.851 8.974 9.606 13.454 14.402-4.416 4.62-8.792 9.198-13.277 13.89 1.993 0.354 3.39 0.024 4.7-1.436 3.349-3.735 6.894-7.295 10.356-10.93 1.445-1.517 1.448-1.547-0.016-3.121-3.542-3.806-7.177-7.53-10.596-11.442z" fill="url(#a)"/>
<path d="m982.73 437.16c-1.326-1.517-2.741-1.64-4.622-1.363 4.533 4.851 8.974 9.606 13.455 14.402-4.416 4.62-8.792 9.198-13.277 13.89 1.992 0.354 3.39 0.024 4.699-1.436 3.35-3.735 6.895-7.295 10.357-10.93 1.445-1.517 1.448-1.547-0.017-3.121-3.541-3.806-7.176-7.53-10.595-11.442z" fill="url(#a)"/>
<path d="m1019.7 437.16c-1.33-1.517-2.74-1.64-4.62-1.363 4.53 4.851 8.97 9.606 13.45 14.402-4.42 4.62-8.79 9.198-13.28 13.89 2 0.354 3.39 0.024 4.7-1.436 3.35-3.735 6.9-7.295 10.36-10.93 1.44-1.517 1.45-1.547-0.02-3.121-3.54-3.806-7.17-7.53-10.59-11.442z" fill="url(#a)"/>
<path d="m1056.5 437.16c-1.33-1.517-2.74-1.64-4.62-1.363 4.53 4.851 8.97 9.606 13.45 14.402-4.41 4.62-8.79 9.198-13.27 13.89 1.99 0.354 3.39 0.024 4.7-1.436 3.34-3.735 6.89-7.295 10.35-10.93 1.45-1.517 1.45-1.547-0.02-3.121-3.54-3.806-7.17-7.53-10.59-11.442z" fill="url(#a)"/>
<path d="m1093.5 437.16c-1.33-1.517-2.74-1.64-4.62-1.363 4.53 4.851 8.97 9.606 13.45 14.402-4.41 4.62-8.79 9.198-13.27 13.89 1.99 0.354 3.39 0.024 4.69-1.436 3.35-3.735 6.9-7.295 10.36-10.93 1.45-1.517 1.45-1.547-0.02-3.121-3.54-3.806-7.17-7.53-10.59-11.442z" fill="url(#a)"/>
<path d="m1130.4 437.16c-1.32-1.517-2.74-1.64-4.62-1.363 4.54 4.851 8.98 9.606 13.46 14.402-4.42 4.62-8.8 9.198-13.28 13.89 1.99 0.354 3.39 0.024 4.7-1.436 3.35-3.735 6.89-7.295 10.36-10.93 1.44-1.517 1.44-1.547-0.02-3.121-3.54-3.806-7.18-7.53-10.6-11.442z" fill="url(#a)"/>
<path d="m1167.3 437.16c-1.32-1.517-2.74-1.64-4.62-1.363 4.53 4.851 8.98 9.606 13.46 14.402-4.42 4.62-8.8 9.198-13.28 13.89 1.99 0.354 3.39 0.024 4.7-1.436 3.35-3.735 6.89-7.295 10.36-10.93 1.44-1.517 1.44-1.547-0.02-3.121-3.54-3.806-7.18-7.53-10.6-11.442z" fill="url(#a)"/>
<path d="m1204.1 437.16c-1.32-1.517-2.74-1.64-4.62-1.363 4.53 4.851 8.97 9.606 13.46 14.402-4.42 4.62-8.8 9.198-13.28 13.89 1.99 0.354 3.39 0.024 4.7-1.436 3.35-3.735 6.89-7.295 10.35-10.93 1.45-1.517 1.45-1.547-0.01-3.121-3.54-3.806-7.18-7.53-10.6-11.442z" fill="url(#a)"/>
<path d="m1241 437.16c-1.32-1.517-2.74-1.64-4.62-1.363 4.53 4.851 8.97 9.606 13.46 14.402-4.42 4.62-8.8 9.198-13.28 13.89 1.99 0.354 3.39 0.024 4.7-1.436 3.35-3.735 6.89-7.295 10.35-10.93 1.45-1.517 1.45-1.547-0.01-3.121-3.54-3.806-7.18-7.53-10.6-11.442z" fill="url(#a)"/>
<path d="m1277.9 437.16c-1.33-1.517-2.75-1.64-4.63-1.363 4.54 4.851 8.98 9.606 13.46 14.402-4.42 4.62-8.79 9.198-13.28 13.89 1.99 0.354 3.39 0.024 4.7-1.436 3.35-3.735 6.9-7.295 10.36-10.93 1.44-1.517 1.45-1.547-0.02-3.121-3.54-3.806-7.18-7.53-10.59-11.442z" fill="url(#a)"/>
<path d="m1333.2 403.7c-1.32-1.517-2.74-1.641-4.62-1.364 4.53 4.852 8.97 9.606 13.45 14.403-4.41 4.62-8.79 9.198-13.27 13.889 1.99 0.354 3.39 0.025 4.7-1.435 3.35-3.735 6.89-7.296 10.35-10.93 1.45-1.517 1.45-1.548-0.01-3.121-3.54-3.806-7.18-7.531-10.6-11.442z" fill="url(#a)"/>
<path d="m1314.8 437.16c-1.33-1.517-2.75-1.64-4.63-1.363 4.54 4.851 8.98 9.606 13.46 14.402-4.42 4.62-8.79 9.198-13.28 13.89 1.99 0.354 3.39 0.024 4.7-1.436 3.35-3.735 6.9-7.295 10.36-10.93 1.44-1.517 1.45-1.547-0.02-3.121-3.54-3.806-7.18-7.53-10.59-11.442z" fill="url(#a)"/>
<path d="m1370.1 403.7c-1.32-1.517-2.74-1.641-4.62-1.364 4.54 4.852 8.98 9.606 13.46 14.403-4.42 4.62-8.79 9.198-13.28 13.889 1.99 0.354 3.39 0.025 4.7-1.435 3.35-3.735 6.9-7.296 10.36-10.93 1.44-1.517 1.44-1.548-0.02-3.121-3.54-3.806-7.18-7.531-10.6-11.442z" fill="url(#a)"/>
<path d="m1351.7 437.16c-1.33-1.517-2.74-1.64-4.62-1.363 4.53 4.851 8.97 9.606 13.45 14.402-4.41 4.62-8.79 9.198-13.27 13.89 1.99 0.354 3.39 0.024 4.7-1.436 3.34-3.735 6.89-7.295 10.35-10.93 1.45-1.517 1.45-1.547-0.02-3.121-3.54-3.806-7.17-7.53-10.59-11.442z" fill="url(#a)"/>
<path d="m1407.1 403.7c-1.32-1.517-2.74-1.641-4.62-1.364 4.54 4.852 8.98 9.606 13.46 14.403-4.42 4.62-8.79 9.198-13.28 13.889 1.99 0.354 3.39 0.025 4.7-1.435 3.35-3.735 6.89-7.296 10.36-10.93 1.44-1.517 1.44-1.548-0.02-3.121-3.54-3.806-7.18-7.531-10.6-11.442z" fill="url(#a)"/>
<path d="m1388.6 437.16c-1.33-1.517-2.74-1.64-4.62-1.363 4.53 4.851 8.97 9.606 13.45 14.402-4.41 4.62-8.79 9.198-13.27 13.89 1.99 0.354 3.39 0.024 4.7-1.436 3.35-3.735 6.89-7.295 10.35-10.93 1.45-1.517 1.45-1.547-0.01-3.121-3.55-3.806-7.18-7.53-10.6-11.442z" fill="url(#a)"/>
<path d="m41.492 470.94c-1.3257-1.517-2.741-1.641-4.6212-1.364 4.5326 4.852 8.974 9.607 13.455 14.403-4.4163 4.62-8.7927 9.198-13.277 13.89 1.9926 0.354 3.3901 0.024 4.6997-1.436 3.3491-3.735 6.8943-7.295 10.356-10.93 1.4451-1.517 1.4476-1.547-0.0168-3.121-3.5415-3.806-7.1765-7.53-10.596-11.442z" fill="url(#a)"/>
<path d="m4.6211 470.94c-1.3256-1.517-2.7407-1.641-4.6211-1.364 4.5326 4.852 8.974 9.607 13.455 14.403-4.4164 4.62-8.7927 9.198-13.277 13.89 1.9924 0.354 3.39 0.024 4.6995-1.436 3.3494-3.735 6.8945-7.295 10.357-10.93 1.4449-1.517 1.4476-1.547-0.0168-3.121-3.5416-3.806-7.1765-7.53-10.596-11.442z" fill="url(#a)"/>
<path d="m23.057 504.4c-1.3257-1.516-2.7408-1.64-4.6211-1.363 4.5325 4.852 8.9739 9.606 13.455 14.402-4.4164 4.62-8.7927 9.199-13.277 13.89 1.9926 0.354 3.39 0.025 4.6996-1.436 3.3492-3.734 6.8944-7.295 10.356-10.93 1.4451-1.517 1.4478-1.547-0.0168-3.121-3.5415-3.806-7.1764-7.53-10.596-11.442z" fill="url(#a)"/>
<path d="m78.422 470.94c-1.3257-1.517-2.7408-1.641-4.6211-1.364 4.5325 4.852 8.9739 9.607 13.455 14.403-4.4164 4.62-8.7927 9.198-13.277 13.89 1.9924 0.354 3.39 0.024 4.6996-1.436 3.3492-3.735 6.8944-7.295 10.356-10.93 1.4451-1.517 1.4478-1.547-0.0168-3.121-3.5415-3.806-7.1764-7.53-10.596-11.442z" fill="url(#a)"/>
<path d="m59.986 504.4c-1.3256-1.516-2.7407-1.64-4.6211-1.363 4.5326 4.852 8.974 9.606 13.455 14.402-4.4165 4.62-8.7927 9.199-13.277 13.89 1.9924 0.354 3.39 0.025 4.6995-1.436 3.3494-3.734 6.8945-7.295 10.357-10.93 1.4449-1.517 1.4476-1.547-0.0168-3.121-3.5416-3.806-7.1765-7.53-10.596-11.442z" fill="url(#a)"/>
<path d="m115.3 470.94c-1.326-1.517-2.741-1.641-4.621-1.364 4.532 4.852 8.974 9.607 13.454 14.403-4.416 4.62-8.792 9.198-13.277 13.89 1.992 0.354 3.39 0.024 4.699-1.436 3.35-3.735 6.895-7.295 10.357-10.93 1.445-1.517 1.448-1.547-0.017-3.121-3.541-3.806-7.176-7.53-10.595-11.442z" fill="url(#a)"/>
<path d="m96.871 504.4c-1.3256-1.516-2.7408-1.64-4.6212-1.363 4.5327 4.852 8.974 9.606 13.455 14.402-4.417 4.62-8.7929 9.199-13.278 13.89 1.9924 0.354 3.39 0.025 4.6995-1.436 3.349-3.734 6.894-7.295 10.357-10.93 1.444-1.517 1.447-1.547-0.017-3.121-3.542-3.806-7.177-7.53-10.596-11.442z" fill="url(#a)"/>
<path d="m152.23 470.94c-1.325-1.517-2.74-1.641-4.621-1.364 4.533 4.852 8.974 9.607 13.455 14.403-4.416 4.62-8.793 9.198-13.277 13.89 1.992 0.354 3.39 0.024 4.699-1.436 3.35-3.735 6.895-7.295 10.357-10.93 1.445-1.517 1.447-1.547-0.017-3.121-3.542-3.806-7.176-7.53-10.596-11.442z" fill="url(#a)"/>
<path d="m133.8 504.4c-1.326-1.516-2.741-1.64-4.621-1.363 4.532 4.852 8.974 9.606 13.454 14.402-4.416 4.62-8.792 9.199-13.277 13.89 1.992 0.354 3.39 0.025 4.7-1.436 3.349-3.734 6.894-7.295 10.356-10.93 1.445-1.517 1.448-1.547-0.017-3.121-3.541-3.806-7.176-7.53-10.595-11.442z" fill="url(#a)"/>
<path d="m189.12 470.94c-1.325-1.517-2.741-1.641-4.621-1.364 4.533 4.852 8.974 9.607 13.455 14.403-4.417 4.62-8.793 9.198-13.277 13.89 1.992 0.354 3.39 0.024 4.699-1.436 3.349-3.735 6.895-7.295 10.357-10.93 1.445-1.517 1.447-1.547-0.017-3.121-3.542-3.806-7.177-7.53-10.596-11.442z" fill="url(#a)"/>
<path d="m170.68 504.4c-1.326-1.516-2.741-1.64-4.622-1.363 4.533 4.852 8.974 9.606 13.455 14.402-4.416 4.62-8.793 9.199-13.277 13.89 1.992 0.354 3.39 0.025 4.699-1.436 3.35-3.734 6.895-7.295 10.357-10.93 1.445-1.517 1.448-1.547-0.017-3.121-3.541-3.806-7.176-7.53-10.595-11.442z" fill="url(#a)"/>
<path d="m226.05 470.94c-1.326-1.517-2.741-1.641-4.621-1.364 4.532 4.852 8.974 9.607 13.454 14.403-4.416 4.62-8.792 9.198-13.277 13.89 1.992 0.354 3.39 0.024 4.7-1.436 3.349-3.735 6.894-7.295 10.356-10.93 1.445-1.517 1.448-1.547-0.017-3.121-3.541-3.806-7.176-7.53-10.595-11.442z" fill="url(#a)"/>
<path d="m207.61 504.4c-1.325-1.516-2.741-1.64-4.621-1.363 4.533 4.852 8.974 9.606 13.455 14.402-4.417 4.62-8.793 9.199-13.278 13.89 1.993 0.354 3.39 0.025 4.7-1.436 3.349-3.734 6.894-7.295 10.356-10.93 1.446-1.517 1.448-1.547-0.016-3.121-3.542-3.806-7.177-7.53-10.596-11.442z" fill="url(#a)"/>
<path d="m262.93 470.94c-1.326-1.517-2.741-1.641-4.622-1.364 4.533 4.852 8.974 9.607 13.455 14.403-4.416 4.62-8.793 9.198-13.277 13.89 1.992 0.354 3.39 0.024 4.699-1.436 3.349-3.735 6.895-7.295 10.357-10.93 1.445-1.517 1.447-1.547-0.017-3.121-3.542-3.806-7.176-7.53-10.595-11.442z" fill="url(#a)"/>
<path d="m244.5 504.4c-1.326-1.516-2.741-1.64-4.621-1.363 4.533 4.852 8.974 9.606 13.455 14.402-4.417 4.62-8.793 9.199-13.278 13.89 1.993 0.354 3.39 0.025 4.7-1.436 3.349-3.734 6.894-7.295 10.356-10.93 1.445-1.517 1.448-1.547-0.017-3.121-3.541-3.806-7.176-7.53-10.595-11.442z" fill="url(#a)"/>
<path d="m299.86 470.94c-1.325-1.517-2.741-1.641-4.621-1.364 4.533 4.852 8.974 9.607 13.455 14.403-4.417 4.62-8.793 9.198-13.277 13.89 1.992 0.354 3.39 0.024 4.699-1.436 3.349-3.735 6.895-7.295 10.357-10.93 1.445-1.517 1.447-1.547-0.017-3.121-3.542-3.806-7.177-7.53-10.596-11.442z" fill="url(#a)"/>
<path d="m281.43 504.4c-1.326-1.516-2.741-1.64-4.621-1.363 4.532 4.852 8.974 9.606 13.454 14.402-4.416 4.62-8.792 9.199-13.277 13.89 1.993 0.354 3.39 0.025 4.7-1.436 3.349-3.734 6.894-7.295 10.356-10.93 1.445-1.517 1.448-1.547-0.017-3.121-3.541-3.806-7.176-7.53-10.595-11.442z" fill="url(#a)"/>
<path d="m336.79 470.94c-1.326-1.517-2.741-1.641-4.621-1.364 4.532 4.852 8.974 9.607 13.455 14.403-4.417 4.62-8.793 9.198-13.278 13.89 1.993 0.354 3.39 0.024 4.7-1.436 3.349-3.735 6.894-7.295 10.356-10.93 1.445-1.517 1.448-1.547-0.016-3.121-3.542-3.806-7.177-7.53-10.596-11.442z" fill="url(#a)"/>
<path d="m318.36 504.4c-1.325-1.516-2.74-1.64-4.621-1.363 4.533 4.852 8.974 9.606 13.455 14.402-4.416 4.62-8.793 9.199-13.277 13.89 1.992 0.354 3.39 0.025 4.699-1.436 3.35-3.734 6.895-7.295 10.357-10.93 1.445-1.517 1.448-1.547-0.017-3.121-3.542-3.806-7.176-7.53-10.596-11.442z" fill="url(#a)"/>
<path d="m373.72 470.94c-1.326-1.517-2.741-1.641-4.621-1.364 4.532 4.852 8.974 9.607 13.454 14.403-4.416 4.62-8.792 9.198-13.277 13.89 1.992 0.354 3.39 0.024 4.7-1.436 3.349-3.735 6.894-7.295 10.356-10.93 1.445-1.517 1.448-1.547-0.017-3.121-3.541-3.806-7.176-7.53-10.595-11.442z" fill="url(#a)"/>
<path d="m355.28 504.4c-1.325-1.516-2.741-1.64-4.621-1.363 4.533 4.852 8.974 9.606 13.455 14.402-4.417 4.62-8.793 9.199-13.277 13.89 1.992 0.354 3.39 0.025 4.699-1.436 3.349-3.734 6.895-7.295 10.357-10.93 1.445-1.517 1.447-1.547-0.017-3.121-3.542-3.806-7.177-7.53-10.596-11.442z" fill="url(#a)"/>
<path d="m410.6 470.94c-1.326-1.517-2.741-1.641-4.622-1.364 4.533 4.852 8.974 9.607 13.455 14.403-4.416 4.62-8.792 9.198-13.277 13.89 1.992 0.354 3.39 0.024 4.699-1.436 3.35-3.735 6.895-7.295 10.357-10.93 1.445-1.517 1.448-1.547-0.017-3.121-3.542-3.806-7.176-7.53-10.595-11.442z" fill="url(#a)"/>
<path d="m392.17 504.4c-1.326-1.516-2.741-1.64-4.621-1.363 4.533 4.852 8.974 9.606 13.455 14.402-4.417 4.62-8.793 9.199-13.278 13.89 1.993 0.354 3.39 0.025 4.7-1.436 3.349-3.734 6.894-7.295 10.356-10.93 1.445-1.517 1.448-1.547-0.016-3.121-3.542-3.806-7.177-7.53-10.596-11.442z" fill="url(#a)"/>
<path d="m447.53 470.94c-1.325-1.517-2.74-1.641-4.621-1.364 4.533 4.852 8.974 9.607 13.455 14.403-4.416 4.62-8.793 9.198-13.277 13.89 1.992 0.354 3.39 0.024 4.699-1.436 3.35-3.735 6.895-7.295 10.357-10.93 1.445-1.517 1.447-1.547-0.017-3.121-3.542-3.806-7.177-7.53-10.596-11.442z" fill="url(#a)"/>
<path d="m429.1 504.4c-1.326-1.516-2.741-1.64-4.621-1.363 4.532 4.852 8.974 9.606 13.454 14.402-4.416 4.62-8.792 9.199-13.277 13.89 1.992 0.354 3.39 0.025 4.7-1.436 3.349-3.734 6.894-7.295 10.356-10.93 1.445-1.517 1.448-1.547-0.017-3.121-3.541-3.806-7.176-7.53-10.595-11.442z" fill="url(#a)"/>
<path d="m484.42 470.94c-1.326-1.517-2.741-1.641-4.621-1.364 4.533 4.852 8.974 9.607 13.455 14.403-4.417 4.62-8.793 9.198-13.278 13.89 1.993 0.354 3.39 0.024 4.7-1.436 3.349-3.735 6.894-7.295 10.357-10.93 1.444-1.517 1.447-1.547-0.017-3.121-3.542-3.806-7.177-7.53-10.596-11.442z" fill="url(#a)"/>
<path d="m465.98 504.4c-1.326-1.516-2.741-1.64-4.622-1.363 4.533 4.852 8.974 9.606 13.455 14.402-4.416 4.62-8.793 9.199-13.277 13.89 1.992 0.354 3.39 0.025 4.699-1.436 3.35-3.734 6.895-7.295 10.357-10.93 1.445-1.517 1.448-1.547-0.017-3.121-3.541-3.806-7.176-7.53-10.595-11.442z" fill="url(#a)"/>
<path d="m521.35 470.94c-1.326-1.517-2.741-1.641-4.621-1.364 4.532 4.852 8.974 9.607 13.454 14.403-4.416 4.62-8.792 9.198-13.277 13.89 1.992 0.354 3.39 0.024 4.7-1.436 3.349-3.735 6.894-7.295 10.356-10.93 1.445-1.517 1.448-1.547-0.017-3.121-3.541-3.806-7.176-7.53-10.595-11.442z" fill="url(#a)"/>
<path d="m502.91 504.4c-1.326-1.516-2.741-1.64-4.621-1.363 4.533 4.852 8.974 9.606 13.455 14.402-4.417 4.62-8.793 9.199-13.278 13.89 1.993 0.354 3.39 0.025 4.7-1.436 3.349-3.734 6.894-7.295 10.356-10.93 1.445-1.517 1.448-1.547-0.016-3.121-3.542-3.806-7.177-7.53-10.596-11.442z" fill="url(#a)"/>
<path d="m558.23 470.94c-1.325-1.517-2.741-1.641-4.621-1.364 4.533 4.852 8.974 9.607 13.455 14.403-4.416 4.62-8.793 9.198-13.277 13.89 1.992 0.354 3.39 0.024 4.699-1.436 3.349-3.735 6.895-7.295 10.357-10.93 1.445-1.517 1.447-1.547-0.017-3.121-3.542-3.806-7.177-7.53-10.596-11.442z" fill="url(#a)"/>
<path d="m539.8 504.4c-1.326-1.516-2.741-1.64-4.621-1.363 4.532 4.852 8.974 9.606 13.455 14.402-4.417 4.62-8.793 9.199-13.278 13.89 1.993 0.354 3.39 0.025 4.7-1.436 3.349-3.734 6.894-7.295 10.356-10.93 1.445-1.517 1.448-1.547-0.017-3.121-3.541-3.806-7.176-7.53-10.595-11.442z" fill="url(#a)"/>
<path d="m595.16 470.94c-1.326-1.517-2.741-1.641-4.621-1.364 4.533 4.852 8.974 9.607 13.455 14.403-4.417 4.62-8.793 9.198-13.278 13.89 1.993 0.354 3.39 0.024 4.7-1.436 3.349-3.735 6.894-7.295 10.356-10.93 1.446-1.517 1.448-1.547-0.016-3.121-3.542-3.806-7.177-7.53-10.596-11.442z" fill="url(#a)"/>
<path d="m576.73 504.4c-1.326-1.516-2.741-1.64-4.622-1.363 4.533 4.852 8.975 9.606 13.455 14.402-4.416 4.62-8.792 9.199-13.277 13.89 1.992 0.354 3.39 0.025 4.699-1.436 3.35-3.734 6.895-7.295 10.357-10.93 1.445-1.517 1.448-1.547-0.017-3.121-3.541-3.806-7.176-7.53-10.595-11.442z" fill="url(#a)"/>
<path d="m632.05 470.94c-1.326-1.517-2.741-1.641-4.621-1.364 4.532 4.852 8.974 9.607 13.454 14.403-4.416 4.62-8.792 9.198-13.277 13.89 1.993 0.354 3.39 0.024 4.7-1.436 3.349-3.735 6.894-7.295 10.356-10.93 1.445-1.517 1.448-1.547-0.017-3.121-3.541-3.806-7.176-7.53-10.595-11.442z" fill="url(#a)"/>
<path d="m613.61 504.4c-1.325-1.516-2.741-1.64-4.621-1.363 4.533 4.852 8.974 9.606 13.455 14.402-4.416 4.62-8.793 9.199-13.278 13.89 1.993 0.354 3.391 0.025 4.7-1.436 3.349-3.734 6.895-7.295 10.357-10.93 1.445-1.517 1.447-1.547-0.017-3.121-3.542-3.806-7.177-7.53-10.596-11.442z" fill="url(#a)"/>
<path d="m668.98 470.94c-1.326-1.517-2.741-1.641-4.622-1.364 4.533 4.852 8.974 9.607 13.455 14.403-4.416 4.62-8.793 9.198-13.277 13.89 1.992 0.354 3.39 0.024 4.699-1.436 3.35-3.735 6.895-7.295 10.357-10.93 1.445-1.517 1.448-1.547-0.017-3.121-3.541-3.806-7.176-7.53-10.595-11.442z" fill="url(#a)"/>
<path d="m650.54 504.4c-1.326-1.516-2.741-1.64-4.621-1.363 4.532 4.852 8.974 9.606 13.455 14.402-4.417 4.62-8.793 9.199-13.278 13.89 1.993 0.354 3.39 0.025 4.7-1.436 3.349-3.734 6.894-7.295 10.356-10.93 1.445-1.517 1.448-1.547-0.016-3.121-3.542-3.806-7.177-7.53-10.596-11.442z" fill="url(#a)"/>
<path d="m705.86 470.94c-1.325-1.517-2.74-1.641-4.621-1.364 4.533 4.852 8.974 9.607 13.455 14.403-4.416 4.62-8.793 9.198-13.278 13.89 1.993 0.354 3.39 0.024 4.7-1.436 3.349-3.735 6.895-7.295 10.356-10.93 1.446-1.517 1.448-1.547-0.016-3.121-3.542-3.806-7.177-7.53-10.596-11.442z" fill="url(#a)"/>
<path d="m687.43 504.4c-1.326-1.516-2.741-1.64-4.621-1.363 4.532 4.852 8.974 9.606 13.454 14.402-4.416 4.62-8.792 9.199-13.277 13.89 1.993 0.354 3.39 0.025 4.7-1.436 3.349-3.734 6.894-7.295 10.356-10.93 1.445-1.517 1.448-1.547-0.017-3.121-3.541-3.806-7.176-7.53-10.595-11.442z" fill="url(#a)"/>
<path d="m742.79 470.94c-1.326-1.517-2.741-1.641-4.621-1.364 4.533 4.852 8.974 9.607 13.455 14.403-4.417 4.62-8.793 9.198-13.278 13.89 1.993 0.354 3.39 0.024 4.7-1.436 3.349-3.735 6.894-7.295 10.357-10.93 1.444-1.517 1.447-1.547-0.017-3.121-3.542-3.806-7.177-7.53-10.596-11.442z" fill="url(#a)"/>
<path d="m724.36 504.4c-1.326-1.516-2.741-1.64-4.622-1.363 4.533 4.852 8.974 9.606 13.455 14.402-4.416 4.62-8.793 9.199-13.277 13.89 1.992 0.354 3.39 0.025 4.699-1.436 3.35-3.734 6.895-7.295 10.357-10.93 1.445-1.517 1.447-1.547-0.017-3.121-3.541-3.806-7.176-7.53-10.595-11.442z" fill="url(#a)"/>
<path d="m779.68 470.94c-1.326-1.517-2.741-1.641-4.621-1.364 4.532 4.852 8.974 9.607 13.455 14.403-4.417 4.62-8.793 9.198-13.278 13.89 1.993 0.354 3.39 0.024 4.7-1.436 3.349-3.735 6.894-7.295 10.356-10.93 1.445-1.517 1.448-1.547-0.016-3.121-3.542-3.806-7.177-7.53-10.596-11.442z" fill="url(#a)"/>
<path d="m761.24 504.4c-1.325-1.516-2.741-1.64-4.621-1.363 4.533 4.852 8.974 9.606 13.455 14.402-4.416 4.62-8.793 9.199-13.277 13.89 1.992 0.354 3.39 0.025 4.699-1.436 3.349-3.734 6.894-7.295 10.357-10.93 1.445-1.517 1.447-1.547-0.017-3.121-3.542-3.806-7.177-7.53-10.596-11.442z" fill="url(#a)"/>
<path d="m816.61 470.94c-1.326-1.517-2.741-1.641-4.622-1.364 4.533 4.852 8.974 9.607 13.455 14.403-4.416 4.62-8.793 9.198-13.277 13.89 1.992 0.354 3.39 0.024 4.699-1.436 3.35-3.735 6.895-7.295 10.357-10.93 1.445-1.517 1.448-1.547-0.017-3.121-3.541-3.806-7.176-7.53-10.595-11.442z" fill="url(#a)"/>
<path d="m798.17 504.4c-1.326-1.516-2.741-1.64-4.621-1.363 4.532 4.852 8.974 9.606 13.454 14.402-4.416 4.62-8.792 9.199-13.277 13.89 1.993 0.354 3.39 0.025 4.7-1.436 3.349-3.734 6.894-7.295 10.356-10.93 1.445-1.517 1.448-1.547-0.017-3.121-3.541-3.806-7.176-7.53-10.595-11.442z" fill="url(#a)"/>
<path d="m853.49 470.94c-1.325-1.517-2.741-1.641-4.621-1.364 4.533 4.852 8.974 9.607 13.455 14.403-4.417 4.62-8.793 9.198-13.278 13.89 1.993 0.354 3.39 0.024 4.7-1.436 3.349-3.735 6.894-7.295 10.356-10.93 1.446-1.517 1.448-1.547-0.016-3.121-3.542-3.806-7.177-7.53-10.596-11.442z" fill="url(#a)"/>
<path d="m835.06 504.4c-1.326-1.516-2.741-1.64-4.621-1.363 4.532 4.852 8.974 9.606 13.454 14.402-4.416 4.62-8.792 9.199-13.277 13.89 1.993 0.354 3.39 0.025 4.7-1.436 3.349-3.734 6.894-7.295 10.356-10.93 1.445-1.517 1.448-1.547-0.017-3.121-3.541-3.806-7.176-7.53-10.595-11.442z" fill="url(#a)"/>
<path d="m890.42 470.94c-1.326-1.517-2.741-1.641-4.621-1.364 4.532 4.852 8.974 9.607 13.455 14.403-4.417 4.62-8.793 9.198-13.278 13.89 1.993 0.354 3.39 0.024 4.7-1.436 3.349-3.735 6.894-7.295 10.356-10.93 1.445-1.517 1.448-1.547-0.017-3.121-3.541-3.806-7.176-7.53-10.595-11.442z" fill="url(#a)"/>
<path d="m871.98 504.4c-1.325-1.516-2.74-1.64-4.621-1.363 4.533 4.852 8.974 9.606 13.455 14.402-4.416 4.62-8.793 9.199-13.277 13.89 1.992 0.354 3.39 0.025 4.699-1.436 3.35-3.734 6.895-7.295 10.357-10.93 1.445-1.517 1.447-1.547-0.017-3.121-3.542-3.806-7.176-7.53-10.596-11.442z" fill="url(#a)"/>
<path d="m927.35 470.94c-1.326-1.517-2.741-1.641-4.621-1.364 4.532 4.852 8.973 9.607 13.454 14.403-4.416 4.62-8.793 9.198-13.277 13.89 1.992 0.354 3.39 0.024 4.699-1.436 3.35-3.735 6.895-7.295 10.357-10.93 1.445-1.517 1.447-1.547-0.017-3.121-3.542-3.806-7.176-7.53-10.595-11.442z" fill="url(#a)"/>
<path d="m908.91 504.4c-1.326-1.516-2.741-1.64-4.621-1.363 4.533 4.852 8.974 9.606 13.455 14.402-4.417 4.62-8.793 9.199-13.278 13.89 1.993 0.354 3.39 0.025 4.7-1.436 3.349-3.734 6.894-7.295 10.356-10.93 1.445-1.517 1.448-1.547-0.016-3.121-3.542-3.806-7.177-7.53-10.596-11.442z" fill="url(#a)"/>
<path d="m964.28 470.94c-1.325-1.517-2.74-1.641-4.621-1.364 4.533 4.852 8.974 9.607 13.455 14.403-4.416 4.62-8.793 9.198-13.277 13.89 1.992 0.354 3.39 0.024 4.699-1.436 3.35-3.735 6.895-7.295 10.357-10.93 1.445-1.517 1.447-1.547-0.017-3.121-3.542-3.806-7.177-7.53-10.596-11.442z" fill="url(#a)"/>
<path d="m945.84 504.4c-1.326-1.516-2.741-1.64-4.621-1.363 4.532 4.852 8.974 9.606 13.454 14.402-4.416 4.62-8.792 9.199-13.277 13.89 1.993 0.354 3.39 0.025 4.7-1.436 3.349-3.734 6.894-7.295 10.356-10.93 1.445-1.517 1.448-1.547-0.016-3.121-3.542-3.806-7.177-7.53-10.596-11.442z" fill="url(#a)"/>
<path d="m1001.2 470.94c-1.325-1.517-2.741-1.641-4.621-1.364 4.531 4.852 8.971 9.607 13.451 14.403-4.41 4.62-8.79 9.198-13.274 13.89 1.993 0.354 3.394 0.024 4.704-1.436 3.35-3.735 6.89-7.295 10.35-10.93 1.45-1.517 1.45-1.547-0.01-3.121-3.55-3.806-7.18-7.53-10.6-11.442z" fill="url(#a)"/>
<path d="m982.73 504.4c-1.326-1.516-2.741-1.64-4.622-1.363 4.533 4.852 8.974 9.606 13.455 14.402-4.416 4.62-8.792 9.199-13.277 13.89 1.992 0.354 3.39 0.025 4.699-1.436 3.35-3.734 6.895-7.295 10.357-10.93 1.445-1.517 1.448-1.547-0.017-3.121-3.541-3.806-7.176-7.53-10.595-11.442z" fill="url(#a)"/>
<path d="m1038.1 470.94c-1.33-1.517-2.74-1.641-4.62-1.364 4.53 4.852 8.97 9.607 13.45 14.403-4.41 4.62-8.79 9.198-13.27 13.89 1.99 0.354 3.39 0.024 4.7-1.436 3.34-3.735 6.89-7.295 10.35-10.93 1.45-1.517 1.45-1.547-0.01-3.121-3.55-3.806-7.18-7.53-10.6-11.442z" fill="url(#a)"/>
<path d="m1019.7 504.4c-1.33-1.516-2.74-1.64-4.62-1.363 4.53 4.852 8.97 9.606 13.45 14.402-4.42 4.62-8.79 9.199-13.28 13.89 2 0.354 3.39 0.025 4.7-1.436 3.35-3.734 6.9-7.295 10.36-10.93 1.44-1.517 1.45-1.547-0.02-3.121-3.54-3.806-7.17-7.53-10.59-11.442z" fill="url(#a)"/>
<path d="m1075 470.94c-1.32-1.517-2.74-1.641-4.62-1.364 4.54 4.852 8.98 9.607 13.46 14.403-4.42 4.62-8.79 9.198-13.28 13.89 1.99 0.354 3.39 0.024 4.7-1.436 3.35-3.735 6.9-7.295 10.36-10.93 1.44-1.517 1.44-1.547-0.02-3.121-3.54-3.806-7.18-7.53-10.6-11.442z" fill="url(#a)"/>
<path d="m1056.5 504.4c-1.33-1.516-2.74-1.64-4.62-1.363 4.53 4.852 8.97 9.606 13.45 14.402-4.41 4.62-8.79 9.199-13.27 13.89 1.99 0.354 3.39 0.025 4.7-1.436 3.34-3.734 6.89-7.295 10.35-10.93 1.45-1.517 1.45-1.547-0.02-3.121-3.54-3.806-7.17-7.53-10.59-11.442z" fill="url(#a)"/>
<path d="m1111.9 470.94c-1.32-1.517-2.74-1.641-4.62-1.364 4.54 4.852 8.98 9.607 13.46 14.403-4.42 4.62-8.79 9.198-13.28 13.89 1.99 0.354 3.39 0.024 4.7-1.436 3.35-3.735 6.89-7.295 10.36-10.93 1.44-1.517 1.44-1.547-0.02-3.121-3.54-3.806-7.18-7.53-10.6-11.442z" fill="url(#a)"/>
<path d="m1093.5 504.4c-1.33-1.516-2.74-1.64-4.62-1.363 4.53 4.852 8.97 9.606 13.45 14.402-4.41 4.62-8.79 9.199-13.27 13.89 1.99 0.354 3.39 0.025 4.69-1.436 3.35-3.734 6.9-7.295 10.36-10.93 1.45-1.517 1.45-1.547-0.02-3.121-3.54-3.806-7.17-7.53-10.59-11.442z" fill="url(#a)"/>
<path d="m1148.8 470.94c-1.33-1.517-2.74-1.641-4.62-1.364 4.53 4.852 8.97 9.607 13.45 14.403-4.41 4.62-8.79 9.198-13.28 13.89 2 0.354 3.39 0.024 4.7-1.436 3.35-3.735 6.9-7.295 10.36-10.93 1.45-1.517 1.45-1.547-0.02-3.121-3.54-3.806-7.17-7.53-10.59-11.442z" fill="url(#a)"/>
<path d="m1130.4 504.4c-1.32-1.516-2.74-1.64-4.62-1.363 4.54 4.852 8.98 9.606 13.46 14.402-4.42 4.62-8.8 9.199-13.28 13.89 1.99 0.354 3.39 0.025 4.7-1.436 3.35-3.734 6.89-7.295 10.36-10.93 1.44-1.517 1.44-1.547-0.02-3.121-3.54-3.806-7.18-7.53-10.6-11.442z" fill="url(#a)"/>
<path d="m1167.3 504.4c-1.32-1.516-2.74-1.64-4.62-1.363 4.53 4.852 8.98 9.606 13.46 14.402-4.42 4.62-8.8 9.199-13.28 13.89 1.99 0.354 3.39 0.025 4.7-1.436 3.35-3.734 6.89-7.295 10.36-10.93 1.44-1.517 1.44-1.547-0.02-3.121-3.54-3.806-7.18-7.53-10.6-11.442z" fill="url(#a)"/>
<path d="m1222.5 470.94c-1.33-1.517-2.74-1.641-4.62-1.364 4.53 4.852 8.97 9.607 13.45 14.403-4.42 4.62-8.79 9.198-13.28 13.89 2 0.354 3.39 0.024 4.7-1.436 3.35-3.735 6.9-7.295 10.36-10.93 1.44-1.517 1.45-1.547-0.02-3.121-3.54-3.806-7.17-7.53-10.59-11.442z" fill="url(#a)"/>
<path d="m1185.6 470.94c-1.33-1.517-2.74-1.641-4.62-1.364 4.53 4.852 8.97 9.607 13.45 14.403-4.42 4.62-8.79 9.198-13.28 13.89 2 0.354 3.39 0.024 4.7-1.436 3.35-3.735 6.9-7.295 10.36-10.93 1.44-1.517 1.45-1.547-0.02-3.121-3.54-3.806-7.17-7.53-10.59-11.442z" fill="url(#a)"/>
<path d="m1204.1 504.4c-1.32-1.516-2.74-1.64-4.62-1.363 4.53 4.852 8.97 9.606 13.46 14.402-4.42 4.62-8.8 9.199-13.28 13.89 1.99 0.354 3.39 0.025 4.7-1.436 3.35-3.734 6.89-7.295 10.35-10.93 1.45-1.517 1.45-1.547-0.01-3.121-3.54-3.806-7.18-7.53-10.6-11.442z" fill="url(#a)"/>
<path d="m1259.4 470.94c-1.33-1.517-2.74-1.641-4.62-1.364 4.53 4.852 8.97 9.607 13.45 14.403-4.42 4.62-8.79 9.198-13.28 13.89 2 0.354 3.39 0.024 4.7-1.436 3.35-3.735 6.9-7.295 10.36-10.93 1.45-1.517 1.45-1.547-0.02-3.121-3.54-3.806-7.17-7.53-10.59-11.442z" fill="url(#a)"/>
<path d="m1241 504.4c-1.32-1.516-2.74-1.64-4.62-1.363 4.53 4.852 8.97 9.606 13.46 14.402-4.42 4.62-8.8 9.199-13.28 13.89 1.99 0.354 3.39 0.025 4.7-1.436 3.35-3.734 6.89-7.295 10.35-10.93 1.45-1.517 1.45-1.547-0.01-3.121-3.54-3.806-7.18-7.53-10.6-11.442z" fill="url(#a)"/>
<path d="m1296.3 470.94c-1.33-1.517-2.74-1.641-4.62-1.364 4.53 4.852 8.97 9.607 13.45 14.403-4.41 4.62-8.79 9.198-13.27 13.89 1.99 0.354 3.39 0.024 4.7-1.436 3.35-3.735 6.89-7.295 10.35-10.93 1.45-1.517 1.45-1.547-0.01-3.121-3.55-3.806-7.18-7.53-10.6-11.442z" fill="url(#a)"/>
<path d="m1277.9 504.4c-1.33-1.516-2.75-1.64-4.63-1.363 4.54 4.852 8.98 9.606 13.46 14.402-4.42 4.62-8.79 9.199-13.28 13.89 1.99 0.354 3.39 0.025 4.7-1.436 3.35-3.734 6.9-7.295 10.36-10.93 1.44-1.517 1.45-1.547-0.02-3.121-3.54-3.806-7.18-7.53-10.59-11.442z" fill="url(#a)"/>
<path d="m1333.2 470.94c-1.32-1.517-2.74-1.641-4.62-1.364 4.53 4.852 8.97 9.607 13.45 14.403-4.41 4.62-8.79 9.198-13.27 13.89 1.99 0.354 3.39 0.024 4.7-1.436 3.35-3.735 6.89-7.295 10.35-10.93 1.45-1.517 1.45-1.547-0.01-3.121-3.54-3.806-7.18-7.53-10.6-11.442z" fill="url(#a)"/>
<path d="m1314.8 504.4c-1.33-1.516-2.75-1.64-4.63-1.363 4.54 4.852 8.98 9.606 13.46 14.402-4.42 4.62-8.79 9.199-13.28 13.89 1.99 0.354 3.39 0.025 4.7-1.436 3.35-3.734 6.9-7.295 10.36-10.93 1.44-1.517 1.45-1.547-0.02-3.121-3.54-3.806-7.18-7.53-10.59-11.442z" fill="url(#a)"/>
<path d="m1370.1 470.94c-1.32-1.517-2.74-1.641-4.62-1.364 4.54 4.852 8.98 9.607 13.46 14.403-4.42 4.62-8.79 9.198-13.28 13.89 1.99 0.354 3.39 0.024 4.7-1.436 3.35-3.735 6.9-7.295 10.36-10.93 1.44-1.517 1.44-1.547-0.02-3.121-3.54-3.806-7.18-7.53-10.6-11.442z" fill="url(#a)"/>
<path d="m1351.7 504.4c-1.33-1.516-2.74-1.64-4.62-1.363 4.53 4.852 8.97 9.606 13.45 14.402-4.41 4.62-8.79 9.199-13.27 13.89 1.99 0.354 3.39 0.025 4.7-1.436 3.34-3.734 6.89-7.295 10.35-10.93 1.45-1.517 1.45-1.547-0.02-3.121-3.54-3.806-7.17-7.53-10.59-11.442z" fill="url(#a)"/>
<path d="m1407.1 470.94c-1.32-1.517-2.74-1.641-4.62-1.364 4.54 4.852 8.98 9.607 13.46 14.403-4.42 4.62-8.79 9.198-13.28 13.89 1.99 0.354 3.39 0.024 4.7-1.436 3.35-3.735 6.89-7.295 10.36-10.93 1.44-1.517 1.44-1.547-0.02-3.121-3.54-3.806-7.18-7.53-10.6-11.442z" fill="url(#a)"/>
<path d="m1388.6 504.4c-1.33-1.516-2.74-1.64-4.62-1.363 4.53 4.852 8.97 9.606 13.45 14.402-4.41 4.62-8.79 9.199-13.27 13.89 1.99 0.354 3.39 0.025 4.7-1.436 3.35-3.734 6.89-7.295 10.35-10.93 1.45-1.517 1.45-1.547-0.01-3.121-3.55-3.806-7.18-7.53-10.6-11.442z" fill="url(#a)"/>
<defs>
<linearGradient id="a" x1="709.38" x2="709.38" y1="535.64" y2="59.192" gradientUnits="userSpaceOnUse">
<stop stop-color="#F3987F" offset="0"/>
<stop stop-color="#FECC00" offset="1"/>
</linearGradient>
</defs>
</svg>
