<svg width="486" height="57" viewBox="0 0 486 57" fill="none" xmlns="http://www.w3.org/2000/svg">
<path d="M106.766 23H103.802L101.748 9.48L99.668 23H96.626L94.13 5.086H96.392L98.29 20.53L100.448 7.166H103.204L105.258 20.53L107.39 5.086H109.47L106.766 23ZM117.39 2.902C117.875 2.902 118.265 3.04933 118.56 3.344C118.855 3.62133 119.002 3.98533 119.002 4.436C119.002 4.88667 118.855 5.25933 118.56 5.554C118.265 5.83133 117.875 5.97 117.39 5.97C116.922 5.97 116.541 5.83133 116.246 5.554C115.969 5.25933 115.83 4.88667 115.83 4.436C115.83 3.98533 115.969 3.62133 116.246 3.344C116.541 3.04933 116.922 2.902 117.39 2.902ZM119.132 21.258H122.98V23H112.736V21.258H116.948V11.04H112.866V9.298H119.132V21.258ZM132.46 21.492C133.5 21.492 134.323 21.2927 134.93 20.894C135.536 20.4953 135.84 19.9667 135.84 19.308C135.84 18.8573 135.762 18.4933 135.606 18.216C135.45 17.9213 135.138 17.6613 134.67 17.436C134.202 17.1933 133.491 16.9507 132.538 16.708C130.943 16.3093 129.764 15.8327 129.002 15.278C128.239 14.706 127.858 13.8653 127.858 12.756C127.858 11.612 128.334 10.702 129.288 10.026C130.241 9.35 131.498 9.012 133.058 9.012C134.964 9.012 136.628 9.51467 138.05 10.52L137.062 12.028C136.49 11.6293 135.892 11.326 135.268 11.118C134.644 10.8927 133.924 10.78 133.11 10.78C131.134 10.78 130.146 11.378 130.146 12.574C130.146 12.99 130.25 13.328 130.458 13.588C130.683 13.848 131.038 14.082 131.524 14.29C132.026 14.4807 132.772 14.7147 133.76 14.992C135.25 15.3907 136.36 15.902 137.088 16.526C137.833 17.1327 138.206 18.0253 138.206 19.204C138.206 20.5733 137.651 21.596 136.542 22.272C135.432 22.948 134.072 23.286 132.46 23.286C130.31 23.286 128.525 22.6707 127.104 21.44L128.326 20.01C128.88 20.4607 129.513 20.8247 130.224 21.102C130.934 21.362 131.68 21.492 132.46 21.492ZM148.05 21.492C149.09 21.492 149.913 21.2927 150.52 20.894C151.126 20.4953 151.43 19.9667 151.43 19.308C151.43 18.8573 151.352 18.4933 151.196 18.216C151.04 17.9213 150.728 17.6613 150.26 17.436C149.792 17.1933 149.081 16.9507 148.128 16.708C146.533 16.3093 145.354 15.8327 144.592 15.278C143.829 14.706 143.448 13.8653 143.448 12.756C143.448 11.612 143.924 10.702 144.878 10.026C145.831 9.35 147.088 9.012 148.648 9.012C150.554 9.012 152.218 9.51467 153.64 10.52L152.652 12.028C152.08 11.6293 151.482 11.326 150.858 11.118C150.234 10.8927 149.514 10.78 148.7 10.78C146.724 10.78 145.736 11.378 145.736 12.574C145.736 12.99 145.84 13.328 146.048 13.588C146.273 13.848 146.628 14.082 147.114 14.29C147.616 14.4807 148.362 14.7147 149.35 14.992C150.84 15.3907 151.95 15.902 152.678 16.526C153.423 17.1327 153.796 18.0253 153.796 19.204C153.796 20.5733 153.241 21.596 152.132 22.272C151.022 22.948 149.662 23.286 148.05 23.286C145.9 23.286 144.115 22.6707 142.694 21.44L143.916 20.01C144.47 20.4607 145.103 20.8247 145.814 21.102C146.524 21.362 147.27 21.492 148.05 21.492ZM160.701 16.916C160.753 18.424 161.143 19.5593 161.871 20.322C162.617 21.0847 163.553 21.466 164.679 21.466C165.355 21.466 165.971 21.3707 166.525 21.18C167.097 20.972 167.704 20.66 168.345 20.244L169.359 21.7C168.718 22.2027 167.981 22.5927 167.149 22.87C166.335 23.1473 165.511 23.286 164.679 23.286C162.703 23.286 161.161 22.6447 160.051 21.362C158.959 20.062 158.413 18.3287 158.413 16.162C158.413 14.7927 158.656 13.5707 159.141 12.496C159.627 11.404 160.32 10.5547 161.221 9.948C162.123 9.324 163.171 9.012 164.367 9.012C166.101 9.012 167.461 9.61867 168.449 10.832C169.455 12.028 169.957 13.666 169.957 15.746C169.957 16.1447 169.94 16.5347 169.905 16.916H160.701ZM164.393 10.806C163.336 10.806 162.478 11.1873 161.819 11.95C161.161 12.6953 160.788 13.796 160.701 15.252H167.825C167.808 13.8133 167.496 12.7127 166.889 11.95C166.283 11.1873 165.451 10.806 164.393 10.806ZM174.549 9.298H176.421L176.603 11.222C177.141 10.5287 177.817 9.99133 178.631 9.61C179.463 9.21133 180.295 9.012 181.127 9.012C183.693 9.012 184.975 10.364 184.975 13.068V23H182.791V14.68C182.791 13.6573 182.731 12.8773 182.609 12.34C182.505 11.8027 182.289 11.404 181.959 11.144C181.63 10.884 181.127 10.754 180.451 10.754C179.706 10.754 179.004 10.9793 178.345 11.43C177.687 11.8807 177.149 12.418 176.733 13.042V23H174.549V9.298ZM194.819 21.492C195.859 21.492 196.682 21.2927 197.289 20.894C197.896 20.4953 198.199 19.9667 198.199 19.308C198.199 18.8573 198.121 18.4933 197.965 18.216C197.809 17.9213 197.497 17.6613 197.029 17.436C196.561 17.1933 195.85 16.9507 194.897 16.708C193.302 16.3093 192.124 15.8327 191.361 15.278C190.598 14.706 190.217 13.8653 190.217 12.756C190.217 11.612 190.694 10.702 191.647 10.026C192.6 9.35 193.857 9.012 195.417 9.012C197.324 9.012 198.988 9.51467 200.409 10.52L199.421 12.028C198.849 11.6293 198.251 11.326 197.627 11.118C197.003 10.8927 196.284 10.78 195.469 10.78C193.493 10.78 192.505 11.378 192.505 12.574C192.505 12.99 192.609 13.328 192.817 13.588C193.042 13.848 193.398 14.082 193.883 14.29C194.386 14.4807 195.131 14.7147 196.119 14.992C197.61 15.3907 198.719 15.902 199.447 16.526C200.192 17.1327 200.565 18.0253 200.565 19.204C200.565 20.5733 200.01 21.596 198.901 22.272C197.792 22.948 196.431 23.286 194.819 23.286C192.67 23.286 190.884 22.6707 189.463 21.44L190.685 20.01C191.24 20.4607 191.872 20.8247 192.583 21.102C193.294 21.362 194.039 21.492 194.819 21.492ZM223.503 19.022C223.503 19.906 223.685 20.556 224.049 20.972C224.43 21.3707 225.019 21.57 225.817 21.57C226.545 21.57 227.247 21.362 227.923 20.946C228.599 20.53 229.136 20.01 229.535 19.386V9.298H231.719V23H229.847L229.665 21.154C229.127 21.83 228.46 22.3587 227.663 22.74C226.883 23.104 226.085 23.286 225.271 23.286C223.971 23.286 222.983 22.9393 222.307 22.246C221.648 21.5527 221.319 20.556 221.319 19.256V9.298H223.503V19.022ZM236.909 9.298H238.781L238.963 11.222C239.5 10.5287 240.176 9.99133 240.991 9.61C241.823 9.21133 242.655 9.012 243.487 9.012C246.052 9.012 247.335 10.364 247.335 13.068V23H245.151V14.68C245.151 13.6573 245.09 12.8773 244.969 12.34C244.865 11.8027 244.648 11.404 244.319 11.144C243.989 10.884 243.487 10.754 242.811 10.754C242.065 10.754 241.363 10.9793 240.705 11.43C240.046 11.8807 239.509 12.418 239.093 13.042V23H236.909V9.298ZM262.898 3.786V23H260.974L260.766 21.206C260.264 21.8993 259.683 22.4193 259.024 22.766C258.366 23.1127 257.655 23.286 256.892 23.286C255.159 23.286 253.85 22.6533 252.966 21.388C252.1 20.1227 251.666 18.3807 251.666 16.162C251.666 14.7927 251.883 13.5707 252.316 12.496C252.75 11.404 253.365 10.5547 254.162 9.948C254.977 9.324 255.93 9.012 257.022 9.012C258.53 9.012 259.761 9.558 260.714 10.65V3.526L262.898 3.786ZM257.594 10.78C256.45 10.78 255.566 11.2307 254.942 12.132C254.336 13.0333 254.032 14.3767 254.032 16.162C254.032 17.93 254.31 19.2733 254.864 20.192C255.436 21.0933 256.26 21.544 257.334 21.544C258.634 21.544 259.761 20.816 260.714 19.36V12.548C260.333 11.976 259.874 11.5427 259.336 11.248C258.799 10.936 258.218 10.78 257.594 10.78ZM106.766 51H103.802L101.748 37.48L99.668 51H96.626L94.13 33.086H96.392L98.29 48.53L100.448 35.166H103.204L105.258 48.53L107.39 33.086H109.47L106.766 51ZM113.932 44.916C113.984 46.424 114.374 47.5593 115.102 48.322C115.847 49.0847 116.783 49.466 117.91 49.466C118.586 49.466 119.201 49.3707 119.756 49.18C120.328 48.972 120.935 48.66 121.576 48.244L122.59 49.7C121.949 50.2027 121.212 50.5927 120.38 50.87C119.565 51.1473 118.742 51.286 117.91 51.286C115.934 51.286 114.391 50.6447 113.282 49.362C112.19 48.062 111.644 46.3287 111.644 44.162C111.644 42.7927 111.887 41.5707 112.372 40.496C112.857 39.404 113.551 38.5547 114.452 37.948C115.353 37.324 116.402 37.012 117.598 37.012C119.331 37.012 120.692 37.6187 121.68 38.832C122.685 40.028 123.188 41.666 123.188 43.746C123.188 44.1447 123.171 44.5347 123.136 44.916H113.932ZM117.624 38.806C116.567 38.806 115.709 39.1873 115.05 39.95C114.391 40.6953 114.019 41.796 113.932 43.252H121.056C121.039 41.8133 120.727 40.7127 120.12 39.95C119.513 39.1873 118.681 38.806 117.624 38.806ZM132.98 30.902C133.465 30.902 133.855 31.0493 134.15 31.344C134.444 31.6213 134.592 31.9853 134.592 32.436C134.592 32.8867 134.444 33.2593 134.15 33.554C133.855 33.8313 133.465 33.97 132.98 33.97C132.512 33.97 132.13 33.8313 131.836 33.554C131.558 33.2593 131.42 32.8867 131.42 32.436C131.42 31.9853 131.558 31.6213 131.836 31.344C132.13 31.0493 132.512 30.902 132.98 30.902ZM134.722 49.258H138.57V51H128.326V49.258H132.538V39.04H128.456V37.298H134.722V49.258ZM154.264 50.298C153.796 50.61 153.224 50.8527 152.548 51.026C151.889 51.1993 151.23 51.286 150.572 51.286C149.133 51.286 148.006 50.9133 147.192 50.168C146.377 49.4053 145.97 48.4087 145.97 47.178V39.014H142.824V37.298H145.97V34.204L148.154 33.944V37.298H152.912L152.626 39.014H148.154V47.152C148.154 47.932 148.362 48.5127 148.778 48.894C149.194 49.2753 149.861 49.466 150.78 49.466C151.716 49.466 152.591 49.2493 153.406 48.816L154.264 50.298ZM160.701 44.916C160.753 46.424 161.143 47.5593 161.871 48.322C162.617 49.0847 163.553 49.466 164.679 49.466C165.355 49.466 165.971 49.3707 166.525 49.18C167.097 48.972 167.704 48.66 168.345 48.244L169.359 49.7C168.718 50.2027 167.981 50.5927 167.149 50.87C166.335 51.1473 165.511 51.286 164.679 51.286C162.703 51.286 161.161 50.6447 160.051 49.362C158.959 48.062 158.413 46.3287 158.413 44.162C158.413 42.7927 158.656 41.5707 159.141 40.496C159.627 39.404 160.32 38.5547 161.221 37.948C162.123 37.324 163.171 37.012 164.367 37.012C166.101 37.012 167.461 37.6187 168.449 38.832C169.455 40.028 169.957 41.666 169.957 43.746C169.957 44.1447 169.94 44.5347 169.905 44.916H160.701ZM164.393 38.806C163.336 38.806 162.478 39.1873 161.819 39.95C161.161 40.6953 160.788 41.796 160.701 43.252H167.825C167.808 41.8133 167.496 40.7127 166.889 39.95C166.283 39.1873 165.451 38.806 164.393 38.806ZM183.805 37.012C184.36 37.012 185.001 37.1073 185.729 37.298L185.417 41.952H183.649V39.014H183.519C181.405 39.014 179.905 40.522 179.021 43.538V49.31H181.803V51H174.679V49.31H176.837V38.988H174.679V37.298H178.475L178.891 40.548C179.446 39.3693 180.105 38.4853 180.867 37.896C181.647 37.3067 182.627 37.012 183.805 37.012ZM192.323 39.092C193.38 37.7053 194.689 37.012 196.249 37.012C198 37.012 199.291 37.636 200.123 38.884C200.955 40.132 201.371 41.8827 201.371 44.136C201.371 46.2853 200.894 48.0187 199.941 49.336C198.988 50.636 197.653 51.286 195.937 51.286C194.36 51.286 193.12 50.714 192.219 49.57L192.063 51H190.139V31.786L192.323 31.526V39.092ZM195.443 49.518C196.587 49.518 197.462 49.0673 198.069 48.166C198.693 47.2647 199.005 45.9213 199.005 44.136C199.005 42.368 198.728 41.0333 198.173 40.132C197.636 39.2307 196.83 38.78 195.755 38.78C195.062 38.78 194.42 38.988 193.831 39.404C193.259 39.82 192.756 40.34 192.323 40.964V47.75C192.687 48.3047 193.138 48.738 193.675 49.05C194.212 49.362 194.802 49.518 195.443 49.518ZM210.929 30.902C211.414 30.902 211.804 31.0493 212.099 31.344C212.394 31.6213 212.541 31.9853 212.541 32.436C212.541 32.8867 212.394 33.2593 212.099 33.554C211.804 33.8313 211.414 33.97 210.929 33.97C210.461 33.97 210.08 33.8313 209.785 33.554C209.508 33.2593 209.369 32.8867 209.369 32.436C209.369 31.9853 209.508 31.6213 209.785 31.344C210.08 31.0493 210.461 30.902 210.929 30.902ZM212.671 49.258H216.519V51H206.275V49.258H210.487V39.04H206.405V37.298H212.671V49.258ZM226.675 47.62C226.675 48.8507 227.429 49.466 228.937 49.466C229.647 49.466 230.41 49.31 231.225 48.998L231.797 50.584C230.93 51.052 229.847 51.286 228.547 51.286C227.316 51.286 226.328 50.948 225.583 50.272C224.855 49.596 224.491 48.6773 224.491 47.516V33.528H220.279V31.786H226.675V47.62ZM247.309 31.786V51H245.385L245.177 49.206C244.674 49.8993 244.093 50.4193 243.435 50.766C242.776 51.1127 242.065 51.286 241.303 51.286C239.569 51.286 238.261 50.6533 237.377 49.388C236.51 48.1227 236.077 46.3807 236.077 44.162C236.077 42.7927 236.293 41.5707 236.727 40.496C237.16 39.404 237.775 38.5547 238.573 37.948C239.387 37.324 240.341 37.012 241.433 37.012C242.941 37.012 244.171 37.558 245.125 38.65V31.526L247.309 31.786ZM242.005 38.78C240.861 38.78 239.977 39.2307 239.353 40.132C238.746 41.0333 238.443 42.3767 238.443 44.162C238.443 45.93 238.72 47.2733 239.275 48.192C239.847 49.0933 240.67 49.544 241.745 49.544C243.045 49.544 244.171 48.816 245.125 47.36V40.548C244.743 39.976 244.284 39.5427 243.747 39.248C243.209 38.936 242.629 38.78 242.005 38.78ZM254.682 47.022C254.682 47.906 254.864 48.556 255.228 48.972C255.61 49.3707 256.199 49.57 256.996 49.57C257.724 49.57 258.426 49.362 259.102 48.946C259.778 48.53 260.316 48.01 260.714 47.386V37.298H262.898V51H261.026L260.844 49.154C260.307 49.83 259.64 50.3587 258.842 50.74C258.062 51.104 257.265 51.286 256.45 51.286C255.15 51.286 254.162 50.9393 253.486 50.246C252.828 49.5527 252.498 48.556 252.498 47.256V37.298H254.682V47.022ZM268.088 37.298H269.96L270.142 39.222C270.68 38.5287 271.356 37.9913 272.17 37.61C273.002 37.2113 273.834 37.012 274.666 37.012C277.232 37.012 278.514 38.364 278.514 41.068V51H276.33V42.68C276.33 41.6573 276.27 40.8773 276.148 40.34C276.044 39.8027 275.828 39.404 275.498 39.144C275.169 38.884 274.666 38.754 273.99 38.754C273.245 38.754 272.543 38.9793 271.884 39.43C271.226 39.8807 270.688 40.418 270.272 41.042V51H268.088V37.298ZM295.482 37.922C294.962 38.0953 294.399 38.208 293.792 38.26C293.185 38.2947 292.414 38.312 291.478 38.312C293.073 39.04 293.87 40.1927 293.87 41.77C293.87 43.1567 293.411 44.2833 292.492 45.15C291.573 45.9993 290.317 46.424 288.722 46.424C287.907 46.424 287.223 46.3287 286.668 46.138C286.46 46.294 286.287 46.4933 286.148 46.736C286.027 46.9787 285.966 47.2213 285.966 47.464C285.966 48.244 286.573 48.634 287.786 48.634H290.256C291.157 48.634 291.972 48.7987 292.7 49.128C293.445 49.44 294.026 49.882 294.442 50.454C294.875 51.026 295.092 51.6587 295.092 52.352C295.092 53.6867 294.52 54.7093 293.376 55.42C292.249 56.148 290.646 56.512 288.566 56.512C286.451 56.512 284.961 56.1827 284.094 55.524C283.227 54.8653 282.794 53.8167 282.794 52.378H284.77C284.77 52.95 284.874 53.4007 285.082 53.73C285.307 54.0767 285.689 54.328 286.226 54.484C286.781 54.6573 287.561 54.744 288.566 54.744C290.039 54.744 291.123 54.5533 291.816 54.172C292.527 53.7907 292.882 53.2273 292.882 52.482C292.882 51.858 292.596 51.3727 292.024 51.026C291.452 50.6967 290.715 50.532 289.814 50.532H287.37C286.243 50.532 285.385 50.2893 284.796 49.804C284.207 49.3013 283.912 48.6773 283.912 47.932C283.912 47.4987 284.042 47.074 284.302 46.658C284.562 46.2247 284.935 45.852 285.42 45.54C284.64 45.1413 284.059 44.6387 283.678 44.032C283.314 43.408 283.132 42.654 283.132 41.77C283.132 40.8513 283.357 40.0367 283.808 39.326C284.276 38.598 284.917 38.0347 285.732 37.636C286.564 37.22 287.517 37.012 288.592 37.012C290.152 37.012 291.339 36.9253 292.154 36.752C292.969 36.5787 293.861 36.284 294.832 35.868L295.482 37.922ZM288.566 38.624C287.509 38.624 286.711 38.91 286.174 39.482C285.637 40.0367 285.368 40.7993 285.368 41.77C285.368 42.7407 285.637 43.5207 286.174 44.11C286.729 44.682 287.543 44.968 288.618 44.968C289.589 44.968 290.325 44.6907 290.828 44.136C291.348 43.564 291.608 42.7667 291.608 41.744C291.608 39.664 290.594 38.624 288.566 38.624ZM303.948 49.492C304.988 49.492 305.811 49.2927 306.418 48.894C307.025 48.4953 307.328 47.9667 307.328 47.308C307.328 46.8573 307.25 46.4933 307.094 46.216C306.938 45.9213 306.626 45.6613 306.158 45.436C305.69 45.1933 304.979 44.9507 304.026 44.708C302.431 44.3093 301.253 43.8327 300.49 43.278C299.727 42.706 299.346 41.8653 299.346 40.756C299.346 39.612 299.823 38.702 300.776 38.026C301.729 37.35 302.986 37.012 304.546 37.012C306.453 37.012 308.117 37.5147 309.538 38.52L308.55 40.028C307.978 39.6293 307.38 39.326 306.756 39.118C306.132 38.8927 305.413 38.78 304.598 38.78C302.622 38.78 301.634 39.378 301.634 40.574C301.634 40.99 301.738 41.328 301.946 41.588C302.171 41.848 302.527 42.082 303.012 42.29C303.515 42.4807 304.26 42.7147 305.248 42.992C306.739 43.3907 307.848 43.902 308.576 44.526C309.321 45.1327 309.694 46.0253 309.694 47.204C309.694 48.5733 309.139 49.596 308.03 50.272C306.921 50.948 305.56 51.286 303.948 51.286C301.799 51.286 300.013 50.6707 298.592 49.44L299.814 48.01C300.369 48.4607 301.001 48.8247 301.712 49.102C302.423 49.362 303.168 49.492 303.948 49.492ZM325.206 49.128L324.946 51H314.91V49.336L322.502 39.222H315.508V37.298H325.128V39.014L317.588 49.128H325.206ZM332.19 44.916C332.242 46.424 332.632 47.5593 333.36 48.322C334.105 49.0847 335.041 49.466 336.168 49.466C336.844 49.466 337.459 49.3707 338.014 49.18C338.586 48.972 339.192 48.66 339.834 48.244L340.848 49.7C340.206 50.2027 339.47 50.5927 338.638 50.87C337.823 51.1473 337 51.286 336.168 51.286C334.192 51.286 332.649 50.6447 331.54 49.362C330.448 48.062 329.902 46.3287 329.902 44.162C329.902 42.7927 330.144 41.5707 330.63 40.496C331.115 39.404 331.808 38.5547 332.71 37.948C333.611 37.324 334.66 37.012 335.856 37.012C337.589 37.012 338.95 37.6187 339.938 38.832C340.943 40.028 341.446 41.666 341.446 43.746C341.446 44.1447 341.428 44.5347 341.394 44.916H332.19ZM335.882 38.806C334.824 38.806 333.966 39.1873 333.308 39.95C332.649 40.6953 332.276 41.796 332.19 43.252H339.314C339.296 41.8133 338.984 40.7127 338.378 39.95C337.771 39.1873 336.939 38.806 335.882 38.806ZM346.038 37.298H347.91L348.092 39.222C348.629 38.5287 349.305 37.9913 350.119 37.61C350.952 37.2113 351.784 37.012 352.616 37.012C355.181 37.012 356.464 38.364 356.464 41.068V51H354.28V42.68C354.28 41.6573 354.219 40.8773 354.098 40.34C353.994 39.8027 353.777 39.404 353.448 39.144C353.118 38.884 352.616 38.754 351.94 38.754C351.194 38.754 350.492 38.9793 349.834 39.43C349.175 39.8807 348.638 40.418 348.222 41.042V51H346.038V37.298ZM372.521 50.298C372.053 50.61 371.481 50.8527 370.805 51.026C370.147 51.1993 369.488 51.286 368.829 51.286C367.391 51.286 366.264 50.9133 365.449 50.168C364.635 49.4053 364.227 48.4087 364.227 47.178V39.014H361.081V37.298H364.227V34.204L366.411 33.944V37.298H371.169L370.883 39.014H366.411V47.152C366.411 47.932 366.619 48.5127 367.035 48.894C367.451 49.2753 368.119 49.466 369.037 49.466C369.973 49.466 370.849 49.2493 371.663 48.816L372.521 50.298ZM386.473 37.012C387.028 37.012 387.669 37.1073 388.397 37.298L388.085 41.952H386.317V39.014H386.187C384.073 39.014 382.573 40.522 381.689 43.538V49.31H384.471V51H377.347V49.31H379.505V38.988H377.347V37.298H381.143L381.559 40.548C382.114 39.3693 382.773 38.4853 383.535 37.896C384.315 37.3067 385.295 37.012 386.473 37.012ZM394.991 47.022C394.991 47.906 395.173 48.556 395.537 48.972C395.918 49.3707 396.508 49.57 397.305 49.57C398.033 49.57 398.735 49.362 399.411 48.946C400.087 48.53 400.624 48.01 401.023 47.386V37.298H403.207V51H401.335L401.153 49.154C400.616 49.83 399.948 50.3587 399.151 50.74C398.371 51.104 397.574 51.286 396.759 51.286C395.459 51.286 394.471 50.9393 393.795 50.246C393.136 49.5527 392.807 48.556 392.807 47.256V37.298H394.991V47.022ZM417.419 37.012C418.199 37.012 418.832 37.2893 419.317 37.844C419.82 38.3813 420.071 39.3693 420.071 40.808V51H418.069V41.172C418.069 40.2187 418.008 39.5773 417.887 39.248C417.766 38.9013 417.471 38.728 417.003 38.728C416.119 38.728 415.322 39.274 414.611 40.366V51H412.583V41.172C412.583 40.2187 412.522 39.5773 412.401 39.248C412.28 38.9013 411.985 38.728 411.517 38.728C410.633 38.728 409.836 39.274 409.125 40.366V51H407.123V37.298H408.813L408.969 38.91C409.385 38.3033 409.818 37.8353 410.269 37.506C410.737 37.1767 411.292 37.012 411.933 37.012C413.216 37.012 414.039 37.6187 414.403 38.832C414.819 38.2427 415.261 37.792 415.729 37.48C416.197 37.168 416.76 37.012 417.419 37.012Z" fill="#575656"/>
<path d="M35.3884 5.21061L13.9099 27.5971L35.6754 50.8109C32.6337 51.2574 30.3443 51.0578 28.1999 48.6134C22.6691 42.3087 16.789 36.3056 11.0598 30.1716C8.69075 27.6351 8.69512 27.5863 11.0327 25.1411C16.6332 19.2828 22.368 13.5439 27.7861 7.52431C29.9043 5.17064 32.1652 4.63989 35.3884 5.21061Z" fill="#575656"/>
<path d="M61.1691 50.8786V48.8903C61.1691 35.3338 61.1685 21.777 61.1696 8.22046C61.1699 5.3009 61.6928 4.8617 64.9995 5.25642V7.20166C64.9995 20.7005 64.9998 34.1996 64.9993 47.6984C64.9993 50.79 64.576 51.1673 61.169 50.8786H61.1691Z" fill="#575656"/>
<path d="M0.000103378 50.8786V48.8903C0.000103378 35.3338 -0.000381925 21.777 0.000750449 8.22046C0.00107398 5.3009 0.523907 4.8617 3.83076 5.25642V7.20166C3.83076 20.7005 3.83108 34.1996 3.8306 47.6984C3.8306 50.79 3.40725 51.1673 0.000265146 50.8786H0.000103378Z" fill="#575656"/>
</svg>
